M48
; DRILL file {KiCad 5.1.8-5.1.8} date Thu Jan  7 16:39:17 2021
; FORMAT={-:-/ absolute / metric / decimal}
; #@! TF.CreationDate,2021-01-07T16:39:17+01:00
; #@! TF.GenerationSoftware,Kicad,Pcbnew,5.1.8-5.1.8
FMAT,2
METRIC
T1C0.400
T2C1.000
T3C1.016
T4C3.200
%
G90
G05
T1
X6.8Y-33.65
X10.8Y-31.85
X13.75Y-30.75
X16.5Y-21.9
X16.5Y-23.3
X17.6Y-21.9
X17.6Y-23.3
X18.7Y-21.9
X18.7Y-23.3
X22.7Y-24.5
X23.7Y-24.5
X24.65Y-13.9
X24.65Y-14.9
X24.7Y-24.5
X24.75Y-16.4
X24.75Y-17.4
X24.95Y-19.75
X25.6Y-24.5
X25.65Y-13.9
X25.65Y-14.9
X25.75Y-16.4
X25.75Y-17.4
X26.25Y-25.5
X28.6Y-25.5
X28.6Y-27.5
X28.6Y-29.5
X28.6Y-31.5
X30.6Y-25.5
X30.6Y-27.5
X30.6Y-29.5
X30.6Y-31.5
X32.6Y-25.5
X32.6Y-27.5
X32.6Y-29.5
X32.6Y-31.5
X35.9Y-34.1
X38.5Y-28.5
X38.5Y-29.5
X38.9Y-12.7
X38.9Y-14.2
X38.9Y-15.7
X38.9Y-17.2
X38.9Y-18.7
X38.9Y-20.2
X38.9Y-21.7
X38.9Y-34.0
X38.9Y-38.2
X39.5Y-29.0
X41.5Y-34.0
X42.5Y-38.5
X43.5Y-34.0
X44.5Y-38.5
X45.5Y-34.0
X46.5Y-38.5
X46.8Y-15.6
X47.3Y-20.8
X47.5Y-34.0
X48.5Y-38.5
X48.7Y-20.4
X49.2Y-27.2
X49.5Y-34.0
X50.0Y-20.9
X50.5Y-38.5
X51.3Y-20.825
X51.5Y-34.0
X52.5Y-38.5
X53.5Y-34.0
X54.5Y-38.5
X55.5Y-34.0
X56.5Y-38.5
X57.5Y-34.0
X57.8Y-8.9
X58.5Y-38.5
X58.7Y-9.9
X61.3Y-7.3
X61.3Y-8.5
X65.0Y-37.0
X67.457Y-29.48
X68.75Y-38.0
X70.75Y-32.25
X74.25Y-39.05
X79.85Y-28.05
X79.85Y-23.65
T2
X48.71Y-12.67
X48.71Y-15.21
X48.71Y-17.75
X51.25Y-12.67
X51.25Y-15.21
X51.25Y-17.75
X42.21Y-12.67
X42.21Y-15.21
X42.21Y-17.75
X44.75Y-12.67
X44.75Y-15.21
X44.75Y-17.75
X42.25Y-22.71
X42.25Y-25.25
X50.75Y-22.71
X50.75Y-25.25
X53.29Y-22.71
X53.29Y-25.25
X55.83Y-22.71
X55.83Y-25.25
X58.37Y-22.71
X58.37Y-25.25
X60.91Y-22.71
X60.91Y-25.25
T3
X45.75Y-3.46
X45.75Y-6.0
X48.29Y-3.46
X48.29Y-6.0
X50.83Y-3.46
X50.83Y-6.0
X53.37Y-3.46
X53.37Y-6.0
X55.91Y-3.46
X55.91Y-6.0
X79.0Y-3.46
X79.0Y-6.0
X81.54Y-3.46
X81.54Y-6.0
X84.08Y-3.46
X84.08Y-6.0
X86.62Y-3.46
X86.62Y-6.0
X89.16Y-3.46
X89.16Y-6.0
X78.75Y-13.46
X78.75Y-16.0
X81.29Y-13.46
X81.29Y-16.0
X83.83Y-13.46
X83.83Y-16.0
X86.37Y-13.46
X86.37Y-16.0
X88.91Y-13.46
X88.91Y-16.0
T4
X82.2Y-126.0
X25.6Y-39.35
X25.6Y-126.0
X82.2Y-51.15
T2
G00X4.8Y-9.95
M15
G01X4.8Y-11.95
M16
G05
G00X10.7Y-7.9
M15
G01X8.7Y-7.9
M16
G05
G00X10.95Y-13.9
M15
G01X8.45Y-13.9
M16
G05
T0
M30
