G04 #@! TF.GenerationSoftware,KiCad,Pcbnew,5.1.8-5.1.8*
G04 #@! TF.CreationDate,2021-01-07T16:38:59+01:00*
G04 #@! TF.ProjectId,gpsdo-connector,67707364-6f2d-4636-9f6e-6e6563746f72,rev?*
G04 #@! TF.SameCoordinates,PX7ed6b40PY5742de0*
G04 #@! TF.FileFunction,Copper,L2,Bot*
G04 #@! TF.FilePolarity,Positive*
%FSLAX46Y46*%
G04 Gerber Fmt 4.6, Leading zero omitted, Abs format (unit mm)*
G04 Created by KiCad (PCBNEW 5.1.8-5.1.8) date 2021-01-07 16:38:59*
%MOMM*%
%LPD*%
G01*
G04 APERTURE LIST*
G04 #@! TA.AperFunction,EtchedComponent*
%ADD10C,0.100000*%
G04 #@! TD*
G04 #@! TA.AperFunction,ComponentPad*
%ADD11O,1.727200X1.727200*%
G04 #@! TD*
G04 #@! TA.AperFunction,ComponentPad*
%ADD12R,1.727200X1.727200*%
G04 #@! TD*
G04 #@! TA.AperFunction,ComponentPad*
%ADD13O,1.700000X1.700000*%
G04 #@! TD*
G04 #@! TA.AperFunction,ComponentPad*
%ADD14R,1.700000X1.700000*%
G04 #@! TD*
G04 #@! TA.AperFunction,ComponentPad*
%ADD15O,4.000000X2.000000*%
G04 #@! TD*
G04 #@! TA.AperFunction,ComponentPad*
%ADD16O,2.000000X4.000000*%
G04 #@! TD*
G04 #@! TA.AperFunction,ComponentPad*
%ADD17O,5.000000X2.000000*%
G04 #@! TD*
G04 #@! TA.AperFunction,SMDPad,CuDef*
%ADD18C,2.000000*%
G04 #@! TD*
G04 #@! TA.AperFunction,ViaPad*
%ADD19C,0.800000*%
G04 #@! TD*
G04 #@! TA.AperFunction,Conductor*
%ADD20C,0.250000*%
G04 #@! TD*
G04 #@! TA.AperFunction,Conductor*
%ADD21C,0.200000*%
G04 #@! TD*
G04 #@! TA.AperFunction,Conductor*
%ADD22C,0.100000*%
G04 #@! TD*
G04 APERTURE END LIST*
D10*
G36*
X42250000Y-28000000D02*
G01*
X38250000Y-28000000D01*
X38250000Y-30000000D01*
X42250000Y-30000000D01*
X42250000Y-28000000D01*
G37*
D11*
X55910000Y-3460000D03*
X55910000Y-6000000D03*
X53370000Y-3460000D03*
X53370000Y-6000000D03*
X50830000Y-3460000D03*
X50830000Y-6000000D03*
X48290000Y-3460000D03*
X48290000Y-6000000D03*
X45750000Y-3460000D03*
D12*
X45750000Y-6000000D03*
D13*
X60910000Y-22710000D03*
X60910000Y-25250000D03*
X58370000Y-22710000D03*
X58370000Y-25250000D03*
X55830000Y-22710000D03*
X55830000Y-25250000D03*
X53290000Y-22710000D03*
X53290000Y-25250000D03*
X50750000Y-22710000D03*
D14*
X50750000Y-25250000D03*
D13*
X48710000Y-12670000D03*
X51250000Y-12670000D03*
X48710000Y-15210000D03*
X51250000Y-15210000D03*
X48710000Y-17750000D03*
D14*
X51250000Y-17750000D03*
D11*
X88910000Y-13460000D03*
X88910000Y-16000000D03*
X86370000Y-13460000D03*
X86370000Y-16000000D03*
X83830000Y-13460000D03*
X83830000Y-16000000D03*
X81290000Y-13460000D03*
X81290000Y-16000000D03*
X78750000Y-13460000D03*
D12*
X78750000Y-16000000D03*
D15*
X9700000Y-7900000D03*
D16*
X4800000Y-10950000D03*
D17*
X9700000Y-13900000D03*
D13*
X42210000Y-12670000D03*
X44750000Y-12670000D03*
X42210000Y-15210000D03*
X44750000Y-15210000D03*
X42210000Y-17750000D03*
D14*
X44750000Y-17750000D03*
D11*
X89160000Y-3460000D03*
X89160000Y-6000000D03*
X86620000Y-3460000D03*
X86620000Y-6000000D03*
X84080000Y-3460000D03*
X84080000Y-6000000D03*
X81540000Y-3460000D03*
X81540000Y-6000000D03*
X79000000Y-3460000D03*
D12*
X79000000Y-6000000D03*
D13*
X42250000Y-22710000D03*
D14*
X42250000Y-25250000D03*
D18*
X38250000Y-29000000D03*
X42250000Y-29000000D03*
D19*
X35900000Y-34100000D03*
X6800000Y-33650000D03*
X39500000Y-29000000D03*
X38500000Y-29500000D03*
X38500000Y-28500000D03*
X16500000Y-23300000D03*
X18700000Y-21900000D03*
X17600000Y-21900000D03*
X16500000Y-21900000D03*
X18700000Y-23300000D03*
X17600000Y-23300000D03*
X25750000Y-16400000D03*
X25750000Y-17400000D03*
X24750000Y-16400000D03*
X24750000Y-17400000D03*
X25650000Y-13900000D03*
X25650000Y-14900000D03*
X24650000Y-13900000D03*
X24650000Y-14900000D03*
X22700000Y-24500000D03*
X23700000Y-24500000D03*
X24700000Y-24500000D03*
X25600000Y-24500000D03*
X38900000Y-34000000D03*
X38900000Y-38200000D03*
X28600000Y-25500000D03*
X30600000Y-25500000D03*
X32600000Y-25500000D03*
X28600000Y-27500000D03*
X30600000Y-27500000D03*
X32600000Y-27500000D03*
X28600000Y-29500000D03*
X30600000Y-29500000D03*
X32600000Y-29500000D03*
X28600000Y-31500000D03*
X30600000Y-31500000D03*
X32600000Y-31500000D03*
X38900000Y-12700000D03*
X38900000Y-14200000D03*
X38900000Y-15700000D03*
X38900000Y-17200000D03*
X38900000Y-18700000D03*
X38900000Y-20200000D03*
X38900000Y-21700000D03*
X24950000Y-19750000D03*
X26249995Y-25499995D03*
X13750004Y-30750000D03*
X10799996Y-31850000D03*
X41500000Y-34000000D03*
X79850000Y-23650000D03*
X79849999Y-28050000D03*
X67456765Y-29479612D03*
X65000000Y-37000000D03*
X74250012Y-39050000D03*
X68749998Y-38000010D03*
X70750000Y-32249994D03*
X43500000Y-34000000D03*
X45500000Y-34000000D03*
X47500000Y-34000000D03*
X49500000Y-34000000D03*
X51500000Y-34000000D03*
X53500000Y-34000000D03*
X55500000Y-34000000D03*
X57500000Y-34000000D03*
X42500000Y-38500000D03*
X44500000Y-38500000D03*
X46500000Y-38500000D03*
X48500000Y-38500000D03*
X50500000Y-38500000D03*
X52500000Y-38500000D03*
X54500000Y-38500000D03*
X56500000Y-38500000D03*
X58500000Y-38500000D03*
X47300000Y-20800000D03*
X50000000Y-20900000D03*
X48700004Y-20400000D03*
X51299996Y-20825032D03*
X57800000Y-8900000D03*
X61300000Y-7300000D03*
X58700000Y-9900000D03*
X61300000Y-8500000D03*
X46800000Y-15600000D03*
X49200000Y-27200000D03*
D20*
X23800000Y-35950000D02*
X21900000Y-37850000D01*
X29021002Y-37850000D02*
X27121002Y-35950000D01*
X27121002Y-35950000D02*
X23800000Y-35950000D01*
X34300000Y-37850000D02*
X29021002Y-37850000D01*
X35900000Y-34100000D02*
X35900000Y-36250000D01*
X35900000Y-36250000D02*
X34300000Y-37850000D01*
X21900000Y-37850000D02*
X9200000Y-37850000D01*
X9200000Y-37850000D02*
X6800000Y-35450000D01*
X6800000Y-35450000D02*
X6800000Y-33650000D01*
X26400000Y-24850000D02*
X26250000Y-25000000D01*
X26250000Y-25000000D02*
X26250000Y-25499990D01*
X24950000Y-19750000D02*
X26400000Y-21200000D01*
X26250000Y-25499990D02*
X26249995Y-25499995D01*
X26400000Y-21200000D02*
X26400000Y-24850000D01*
X11365681Y-31850000D02*
X10799996Y-31850000D01*
X12650004Y-31850000D02*
X11365681Y-31850000D01*
X13750004Y-30750000D02*
X12650004Y-31850000D01*
D21*
X42250000Y-29000000D02*
X43400000Y-27850000D01*
D20*
X47300000Y-16620000D02*
X48710000Y-15210000D01*
X47300000Y-20800000D02*
X47300000Y-16620000D01*
X50000000Y-16460000D02*
X51250000Y-15210000D01*
X50000000Y-20900000D02*
X50000000Y-16460000D01*
X48750000Y-17790000D02*
X48710000Y-17750000D01*
X48700004Y-17759996D02*
X48710000Y-17750000D01*
X48700004Y-20400000D02*
X48700004Y-17759996D01*
X51250000Y-20775036D02*
X51299996Y-20825032D01*
X51250000Y-17750000D02*
X51250000Y-20775036D01*
X57800000Y-8900000D02*
X59700000Y-8900000D01*
X59700000Y-8900000D02*
X61300000Y-7300000D01*
X58700000Y-9900000D02*
X59265685Y-9900000D01*
X59265685Y-9900000D02*
X59900000Y-9900000D01*
X59900000Y-9900000D02*
X61300000Y-8500000D01*
X46800000Y-16165685D02*
X46500000Y-16465685D01*
X46800000Y-15600000D02*
X46800000Y-16165685D01*
X46500000Y-16465685D02*
X46500000Y-21400000D01*
X46500000Y-21400000D02*
X49100000Y-24000000D01*
X49100000Y-24000000D02*
X49100000Y-27100000D01*
X49100000Y-27100000D02*
X49200000Y-27200000D01*
X39875000Y-27625000D02*
X38282220Y-27625000D01*
X38179117Y-27620166D01*
X37911286Y-27660508D01*
X37656473Y-27752326D01*
X37542342Y-27813330D01*
X37432003Y-28005226D01*
X37875000Y-28448223D01*
X37875000Y-28801777D01*
X37255226Y-28182003D01*
X37063330Y-28292342D01*
X36948074Y-28537448D01*
X36882851Y-28800329D01*
X36870166Y-29070883D01*
X36910508Y-29338714D01*
X37002326Y-29593527D01*
X37063330Y-29707658D01*
X37255226Y-29817997D01*
X37875000Y-29198223D01*
X37875000Y-29551777D01*
X37432003Y-29994774D01*
X37542342Y-30186670D01*
X37787448Y-30301926D01*
X38050329Y-30367149D01*
X38320883Y-30379834D01*
X38352976Y-30375000D01*
X39875000Y-30375000D01*
X39875000Y-39875000D01*
X28885712Y-39875000D01*
X28925000Y-39677484D01*
X28925000Y-39022516D01*
X28797222Y-38380133D01*
X28753171Y-38273785D01*
X28828735Y-38314175D01*
X28922985Y-38342765D01*
X29021002Y-38352419D01*
X29045562Y-38350000D01*
X34275440Y-38350000D01*
X34300000Y-38352419D01*
X34324560Y-38350000D01*
X34398017Y-38342765D01*
X34492267Y-38314175D01*
X34579129Y-38267746D01*
X34655264Y-38205264D01*
X34670929Y-38186176D01*
X36236187Y-36620920D01*
X36255264Y-36605264D01*
X36317746Y-36529129D01*
X36364175Y-36442267D01*
X36392765Y-36348017D01*
X36400000Y-36274560D01*
X36402419Y-36250000D01*
X36400000Y-36225440D01*
X36400000Y-34696016D01*
X36501982Y-34594034D01*
X36586796Y-34467100D01*
X36645217Y-34326059D01*
X36675000Y-34176331D01*
X36675000Y-34023669D01*
X36645217Y-33873941D01*
X36586796Y-33732900D01*
X36501982Y-33605966D01*
X36394034Y-33498018D01*
X36267100Y-33413204D01*
X36126059Y-33354783D01*
X35976331Y-33325000D01*
X35823669Y-33325000D01*
X35673941Y-33354783D01*
X35532900Y-33413204D01*
X35405966Y-33498018D01*
X35298018Y-33605966D01*
X35213204Y-33732900D01*
X35154783Y-33873941D01*
X35125000Y-34023669D01*
X35125000Y-34176331D01*
X35154783Y-34326059D01*
X35213204Y-34467100D01*
X35298018Y-34594034D01*
X35400000Y-34696016D01*
X35400001Y-36042892D01*
X34092895Y-37350000D01*
X29228109Y-37350000D01*
X27491931Y-35613824D01*
X27476266Y-35594736D01*
X27400131Y-35532254D01*
X27313269Y-35485825D01*
X27219019Y-35457235D01*
X27145562Y-35450000D01*
X27121002Y-35447581D01*
X27096442Y-35450000D01*
X23824560Y-35450000D01*
X23800000Y-35447581D01*
X23775440Y-35450000D01*
X23701983Y-35457235D01*
X23607733Y-35485825D01*
X23520871Y-35532254D01*
X23444736Y-35594736D01*
X23429080Y-35613813D01*
X21692895Y-37350000D01*
X9407107Y-37350000D01*
X7300000Y-35242895D01*
X7300000Y-34246016D01*
X7401982Y-34144034D01*
X7486796Y-34017100D01*
X7545217Y-33876059D01*
X7575000Y-33726331D01*
X7575000Y-33573669D01*
X7545217Y-33423941D01*
X7486796Y-33282900D01*
X7401982Y-33155966D01*
X7294034Y-33048018D01*
X7167100Y-32963204D01*
X7026059Y-32904783D01*
X6876331Y-32875000D01*
X6723669Y-32875000D01*
X6573941Y-32904783D01*
X6432900Y-32963204D01*
X6305966Y-33048018D01*
X6198018Y-33155966D01*
X6113204Y-33282900D01*
X6054783Y-33423941D01*
X6025000Y-33573669D01*
X6025000Y-33726331D01*
X6054783Y-33876059D01*
X6113204Y-34017100D01*
X6198018Y-34144034D01*
X6300001Y-34246017D01*
X6300000Y-35425440D01*
X6297581Y-35450000D01*
X6305683Y-35532255D01*
X6307235Y-35548016D01*
X6335825Y-35642266D01*
X6382254Y-35729129D01*
X6444736Y-35805264D01*
X6463824Y-35820929D01*
X8829080Y-38186187D01*
X8844736Y-38205264D01*
X8920871Y-38267746D01*
X9007733Y-38314175D01*
X9101983Y-38342765D01*
X9200000Y-38352419D01*
X9224560Y-38350000D01*
X21875440Y-38350000D01*
X21900000Y-38352419D01*
X21924560Y-38350000D01*
X21998017Y-38342765D01*
X22092267Y-38314175D01*
X22179129Y-38267746D01*
X22255264Y-38205264D01*
X22270929Y-38186176D01*
X22633157Y-37823948D01*
X22402778Y-38380133D01*
X22275000Y-39022516D01*
X22275000Y-39677484D01*
X22314288Y-39875000D01*
X3375000Y-39875000D01*
X3375000Y-31773669D01*
X10024996Y-31773669D01*
X10024996Y-31926331D01*
X10054779Y-32076059D01*
X10113200Y-32217100D01*
X10198014Y-32344034D01*
X10305962Y-32451982D01*
X10432896Y-32536796D01*
X10573937Y-32595217D01*
X10723665Y-32625000D01*
X10876327Y-32625000D01*
X11026055Y-32595217D01*
X11167096Y-32536796D01*
X11294030Y-32451982D01*
X11396012Y-32350000D01*
X12625444Y-32350000D01*
X12650004Y-32352419D01*
X12674564Y-32350000D01*
X12748021Y-32342765D01*
X12842271Y-32314175D01*
X12929133Y-32267746D01*
X13005268Y-32205264D01*
X13020933Y-32186176D01*
X13682110Y-31525000D01*
X13826335Y-31525000D01*
X13976063Y-31495217D01*
X14117104Y-31436796D01*
X14244038Y-31351982D01*
X14351986Y-31244034D01*
X14436800Y-31117100D01*
X14495221Y-30976059D01*
X14525004Y-30826331D01*
X14525004Y-30673669D01*
X14495221Y-30523941D01*
X14436800Y-30382900D01*
X14351986Y-30255966D01*
X14244038Y-30148018D01*
X14117104Y-30063204D01*
X13976063Y-30004783D01*
X13826335Y-29975000D01*
X13673673Y-29975000D01*
X13523945Y-30004783D01*
X13382904Y-30063204D01*
X13255970Y-30148018D01*
X13148022Y-30255966D01*
X13063208Y-30382900D01*
X13004787Y-30523941D01*
X12975004Y-30673669D01*
X12975004Y-30817894D01*
X12442899Y-31350000D01*
X11396012Y-31350000D01*
X11294030Y-31248018D01*
X11167096Y-31163204D01*
X11026055Y-31104783D01*
X10876327Y-31075000D01*
X10723665Y-31075000D01*
X10573937Y-31104783D01*
X10432896Y-31163204D01*
X10305962Y-31248018D01*
X10198014Y-31355966D01*
X10113200Y-31482900D01*
X10054779Y-31623941D01*
X10024996Y-31773669D01*
X3375000Y-31773669D01*
X3375000Y-19673669D01*
X24175000Y-19673669D01*
X24175000Y-19826331D01*
X24204783Y-19976059D01*
X24263204Y-20117100D01*
X24348018Y-20244034D01*
X24455966Y-20351982D01*
X24582900Y-20436796D01*
X24723941Y-20495217D01*
X24873669Y-20525000D01*
X25017894Y-20525000D01*
X25900000Y-21407107D01*
X25900001Y-24640415D01*
X25894736Y-24644736D01*
X25832254Y-24720871D01*
X25785825Y-24807734D01*
X25773004Y-24850001D01*
X25759069Y-24895936D01*
X25755961Y-24898013D01*
X25648013Y-25005961D01*
X25563199Y-25132895D01*
X25504778Y-25273936D01*
X25474995Y-25423664D01*
X25474995Y-25576326D01*
X25504778Y-25726054D01*
X25563199Y-25867095D01*
X25648013Y-25994029D01*
X25755961Y-26101977D01*
X25882895Y-26186791D01*
X26023936Y-26245212D01*
X26173664Y-26274995D01*
X26326326Y-26274995D01*
X26476054Y-26245212D01*
X26617095Y-26186791D01*
X26744029Y-26101977D01*
X26851977Y-25994029D01*
X26936791Y-25867095D01*
X26995212Y-25726054D01*
X27024995Y-25576326D01*
X27024995Y-25423664D01*
X26995212Y-25273936D01*
X26936791Y-25132895D01*
X26867941Y-25029853D01*
X26892765Y-24948017D01*
X26900000Y-24874560D01*
X26902419Y-24850001D01*
X26900000Y-24825441D01*
X26900000Y-21224560D01*
X26902419Y-21200000D01*
X26892765Y-21101983D01*
X26864175Y-21007734D01*
X26864175Y-21007733D01*
X26817746Y-20920871D01*
X26755264Y-20844736D01*
X26736187Y-20829080D01*
X25725000Y-19817894D01*
X25725000Y-19673669D01*
X25695217Y-19523941D01*
X25636796Y-19382900D01*
X25551982Y-19255966D01*
X25444034Y-19148018D01*
X25317100Y-19063204D01*
X25176059Y-19004783D01*
X25026331Y-18975000D01*
X24873669Y-18975000D01*
X24723941Y-19004783D01*
X24582900Y-19063204D01*
X24455966Y-19148018D01*
X24348018Y-19255966D01*
X24263204Y-19382900D01*
X24204783Y-19523941D01*
X24175000Y-19673669D01*
X3375000Y-19673669D01*
X3375000Y-15900000D01*
X3374999Y-15899607D01*
X3368712Y-13900000D01*
X6818347Y-13900000D01*
X6844895Y-14169547D01*
X6923519Y-14428736D01*
X7051198Y-14667605D01*
X7223024Y-14876976D01*
X7432395Y-15048802D01*
X7671264Y-15176481D01*
X7930453Y-15255105D01*
X8132451Y-15275000D01*
X11267549Y-15275000D01*
X11469547Y-15255105D01*
X11728736Y-15176481D01*
X11967605Y-15048802D01*
X12176976Y-14876976D01*
X12348802Y-14667605D01*
X12476481Y-14428736D01*
X12555105Y-14169547D01*
X12581653Y-13900000D01*
X12555105Y-13630453D01*
X12476481Y-13371264D01*
X12348802Y-13132395D01*
X12176976Y-12923024D01*
X11967605Y-12751198D01*
X11728736Y-12623519D01*
X11469547Y-12544895D01*
X11267549Y-12525000D01*
X8132451Y-12525000D01*
X7930453Y-12544895D01*
X7671264Y-12623519D01*
X7432395Y-12751198D01*
X7223024Y-12923024D01*
X7051198Y-13132395D01*
X6923519Y-13371264D01*
X6844895Y-13630453D01*
X6818347Y-13900000D01*
X3368712Y-13900000D01*
X3359828Y-11075000D01*
X3425000Y-11075000D01*
X3425000Y-12075000D01*
X3475807Y-12340847D01*
X3577501Y-12591674D01*
X3726175Y-12817842D01*
X3916116Y-13010660D01*
X4140024Y-13162717D01*
X4389295Y-13268170D01*
X4462332Y-13282893D01*
X4675000Y-13225138D01*
X4675000Y-11075000D01*
X4925000Y-11075000D01*
X4925000Y-13225138D01*
X5137668Y-13282893D01*
X5210705Y-13268170D01*
X5459976Y-13162717D01*
X5683884Y-13010660D01*
X5873825Y-12817842D01*
X6022499Y-12591674D01*
X6124193Y-12340847D01*
X6175000Y-12075000D01*
X6175000Y-11075000D01*
X4925000Y-11075000D01*
X4675000Y-11075000D01*
X3425000Y-11075000D01*
X3359828Y-11075000D01*
X3355898Y-9825000D01*
X3425000Y-9825000D01*
X3425000Y-10825000D01*
X4675000Y-10825000D01*
X4675000Y-8674862D01*
X4925000Y-8674862D01*
X4925000Y-10825000D01*
X6175000Y-10825000D01*
X6175000Y-9825000D01*
X6124193Y-9559153D01*
X6022499Y-9308326D01*
X5873825Y-9082158D01*
X5683884Y-8889340D01*
X5459976Y-8737283D01*
X5210705Y-8631830D01*
X5137668Y-8617107D01*
X4925000Y-8674862D01*
X4675000Y-8674862D01*
X4462332Y-8617107D01*
X4389295Y-8631830D01*
X4140024Y-8737283D01*
X3916116Y-8889340D01*
X3726175Y-9082158D01*
X3577501Y-9308326D01*
X3475807Y-9559153D01*
X3425000Y-9825000D01*
X3355898Y-9825000D01*
X3350907Y-8237668D01*
X7367107Y-8237668D01*
X7381830Y-8310705D01*
X7487283Y-8559976D01*
X7639340Y-8783884D01*
X7832158Y-8973825D01*
X8058326Y-9122499D01*
X8309153Y-9224193D01*
X8575000Y-9275000D01*
X9575000Y-9275000D01*
X9575000Y-8025000D01*
X9825000Y-8025000D01*
X9825000Y-9275000D01*
X10825000Y-9275000D01*
X11090847Y-9224193D01*
X11341674Y-9122499D01*
X11567842Y-8973825D01*
X11760660Y-8783884D01*
X11912717Y-8559976D01*
X12018170Y-8310705D01*
X12032893Y-8237668D01*
X11975138Y-8025000D01*
X9825000Y-8025000D01*
X9575000Y-8025000D01*
X7424862Y-8025000D01*
X7367107Y-8237668D01*
X3350907Y-8237668D01*
X3348784Y-7562332D01*
X7367107Y-7562332D01*
X7424862Y-7775000D01*
X9575000Y-7775000D01*
X9575000Y-6525000D01*
X9825000Y-6525000D01*
X9825000Y-7775000D01*
X11975138Y-7775000D01*
X12032893Y-7562332D01*
X12018170Y-7489295D01*
X11912717Y-7240024D01*
X11760660Y-7016116D01*
X11567842Y-6826175D01*
X11341674Y-6677501D01*
X11090847Y-6575807D01*
X10825000Y-6525000D01*
X9825000Y-6525000D01*
X9575000Y-6525000D01*
X8575000Y-6525000D01*
X8309153Y-6575807D01*
X8058326Y-6677501D01*
X7832158Y-6826175D01*
X7639340Y-7016116D01*
X7487283Y-7240024D01*
X7381830Y-7489295D01*
X7367107Y-7562332D01*
X3348784Y-7562332D01*
X3326258Y-400000D01*
X39875000Y-400000D01*
X39875000Y-27625000D01*
G04 #@! TA.AperFunction,Conductor*
D22*
G36*
X39875000Y-27625000D02*
G01*
X38282220Y-27625000D01*
X38179117Y-27620166D01*
X37911286Y-27660508D01*
X37656473Y-27752326D01*
X37542342Y-27813330D01*
X37432003Y-28005226D01*
X37875000Y-28448223D01*
X37875000Y-28801777D01*
X37255226Y-28182003D01*
X37063330Y-28292342D01*
X36948074Y-28537448D01*
X36882851Y-28800329D01*
X36870166Y-29070883D01*
X36910508Y-29338714D01*
X37002326Y-29593527D01*
X37063330Y-29707658D01*
X37255226Y-29817997D01*
X37875000Y-29198223D01*
X37875000Y-29551777D01*
X37432003Y-29994774D01*
X37542342Y-30186670D01*
X37787448Y-30301926D01*
X38050329Y-30367149D01*
X38320883Y-30379834D01*
X38352976Y-30375000D01*
X39875000Y-30375000D01*
X39875000Y-39875000D01*
X28885712Y-39875000D01*
X28925000Y-39677484D01*
X28925000Y-39022516D01*
X28797222Y-38380133D01*
X28753171Y-38273785D01*
X28828735Y-38314175D01*
X28922985Y-38342765D01*
X29021002Y-38352419D01*
X29045562Y-38350000D01*
X34275440Y-38350000D01*
X34300000Y-38352419D01*
X34324560Y-38350000D01*
X34398017Y-38342765D01*
X34492267Y-38314175D01*
X34579129Y-38267746D01*
X34655264Y-38205264D01*
X34670929Y-38186176D01*
X36236187Y-36620920D01*
X36255264Y-36605264D01*
X36317746Y-36529129D01*
X36364175Y-36442267D01*
X36392765Y-36348017D01*
X36400000Y-36274560D01*
X36402419Y-36250000D01*
X36400000Y-36225440D01*
X36400000Y-34696016D01*
X36501982Y-34594034D01*
X36586796Y-34467100D01*
X36645217Y-34326059D01*
X36675000Y-34176331D01*
X36675000Y-34023669D01*
X36645217Y-33873941D01*
X36586796Y-33732900D01*
X36501982Y-33605966D01*
X36394034Y-33498018D01*
X36267100Y-33413204D01*
X36126059Y-33354783D01*
X35976331Y-33325000D01*
X35823669Y-33325000D01*
X35673941Y-33354783D01*
X35532900Y-33413204D01*
X35405966Y-33498018D01*
X35298018Y-33605966D01*
X35213204Y-33732900D01*
X35154783Y-33873941D01*
X35125000Y-34023669D01*
X35125000Y-34176331D01*
X35154783Y-34326059D01*
X35213204Y-34467100D01*
X35298018Y-34594034D01*
X35400000Y-34696016D01*
X35400001Y-36042892D01*
X34092895Y-37350000D01*
X29228109Y-37350000D01*
X27491931Y-35613824D01*
X27476266Y-35594736D01*
X27400131Y-35532254D01*
X27313269Y-35485825D01*
X27219019Y-35457235D01*
X27145562Y-35450000D01*
X27121002Y-35447581D01*
X27096442Y-35450000D01*
X23824560Y-35450000D01*
X23800000Y-35447581D01*
X23775440Y-35450000D01*
X23701983Y-35457235D01*
X23607733Y-35485825D01*
X23520871Y-35532254D01*
X23444736Y-35594736D01*
X23429080Y-35613813D01*
X21692895Y-37350000D01*
X9407107Y-37350000D01*
X7300000Y-35242895D01*
X7300000Y-34246016D01*
X7401982Y-34144034D01*
X7486796Y-34017100D01*
X7545217Y-33876059D01*
X7575000Y-33726331D01*
X7575000Y-33573669D01*
X7545217Y-33423941D01*
X7486796Y-33282900D01*
X7401982Y-33155966D01*
X7294034Y-33048018D01*
X7167100Y-32963204D01*
X7026059Y-32904783D01*
X6876331Y-32875000D01*
X6723669Y-32875000D01*
X6573941Y-32904783D01*
X6432900Y-32963204D01*
X6305966Y-33048018D01*
X6198018Y-33155966D01*
X6113204Y-33282900D01*
X6054783Y-33423941D01*
X6025000Y-33573669D01*
X6025000Y-33726331D01*
X6054783Y-33876059D01*
X6113204Y-34017100D01*
X6198018Y-34144034D01*
X6300001Y-34246017D01*
X6300000Y-35425440D01*
X6297581Y-35450000D01*
X6305683Y-35532255D01*
X6307235Y-35548016D01*
X6335825Y-35642266D01*
X6382254Y-35729129D01*
X6444736Y-35805264D01*
X6463824Y-35820929D01*
X8829080Y-38186187D01*
X8844736Y-38205264D01*
X8920871Y-38267746D01*
X9007733Y-38314175D01*
X9101983Y-38342765D01*
X9200000Y-38352419D01*
X9224560Y-38350000D01*
X21875440Y-38350000D01*
X21900000Y-38352419D01*
X21924560Y-38350000D01*
X21998017Y-38342765D01*
X22092267Y-38314175D01*
X22179129Y-38267746D01*
X22255264Y-38205264D01*
X22270929Y-38186176D01*
X22633157Y-37823948D01*
X22402778Y-38380133D01*
X22275000Y-39022516D01*
X22275000Y-39677484D01*
X22314288Y-39875000D01*
X3375000Y-39875000D01*
X3375000Y-31773669D01*
X10024996Y-31773669D01*
X10024996Y-31926331D01*
X10054779Y-32076059D01*
X10113200Y-32217100D01*
X10198014Y-32344034D01*
X10305962Y-32451982D01*
X10432896Y-32536796D01*
X10573937Y-32595217D01*
X10723665Y-32625000D01*
X10876327Y-32625000D01*
X11026055Y-32595217D01*
X11167096Y-32536796D01*
X11294030Y-32451982D01*
X11396012Y-32350000D01*
X12625444Y-32350000D01*
X12650004Y-32352419D01*
X12674564Y-32350000D01*
X12748021Y-32342765D01*
X12842271Y-32314175D01*
X12929133Y-32267746D01*
X13005268Y-32205264D01*
X13020933Y-32186176D01*
X13682110Y-31525000D01*
X13826335Y-31525000D01*
X13976063Y-31495217D01*
X14117104Y-31436796D01*
X14244038Y-31351982D01*
X14351986Y-31244034D01*
X14436800Y-31117100D01*
X14495221Y-30976059D01*
X14525004Y-30826331D01*
X14525004Y-30673669D01*
X14495221Y-30523941D01*
X14436800Y-30382900D01*
X14351986Y-30255966D01*
X14244038Y-30148018D01*
X14117104Y-30063204D01*
X13976063Y-30004783D01*
X13826335Y-29975000D01*
X13673673Y-29975000D01*
X13523945Y-30004783D01*
X13382904Y-30063204D01*
X13255970Y-30148018D01*
X13148022Y-30255966D01*
X13063208Y-30382900D01*
X13004787Y-30523941D01*
X12975004Y-30673669D01*
X12975004Y-30817894D01*
X12442899Y-31350000D01*
X11396012Y-31350000D01*
X11294030Y-31248018D01*
X11167096Y-31163204D01*
X11026055Y-31104783D01*
X10876327Y-31075000D01*
X10723665Y-31075000D01*
X10573937Y-31104783D01*
X10432896Y-31163204D01*
X10305962Y-31248018D01*
X10198014Y-31355966D01*
X10113200Y-31482900D01*
X10054779Y-31623941D01*
X10024996Y-31773669D01*
X3375000Y-31773669D01*
X3375000Y-19673669D01*
X24175000Y-19673669D01*
X24175000Y-19826331D01*
X24204783Y-19976059D01*
X24263204Y-20117100D01*
X24348018Y-20244034D01*
X24455966Y-20351982D01*
X24582900Y-20436796D01*
X24723941Y-20495217D01*
X24873669Y-20525000D01*
X25017894Y-20525000D01*
X25900000Y-21407107D01*
X25900001Y-24640415D01*
X25894736Y-24644736D01*
X25832254Y-24720871D01*
X25785825Y-24807734D01*
X25773004Y-24850001D01*
X25759069Y-24895936D01*
X25755961Y-24898013D01*
X25648013Y-25005961D01*
X25563199Y-25132895D01*
X25504778Y-25273936D01*
X25474995Y-25423664D01*
X25474995Y-25576326D01*
X25504778Y-25726054D01*
X25563199Y-25867095D01*
X25648013Y-25994029D01*
X25755961Y-26101977D01*
X25882895Y-26186791D01*
X26023936Y-26245212D01*
X26173664Y-26274995D01*
X26326326Y-26274995D01*
X26476054Y-26245212D01*
X26617095Y-26186791D01*
X26744029Y-26101977D01*
X26851977Y-25994029D01*
X26936791Y-25867095D01*
X26995212Y-25726054D01*
X27024995Y-25576326D01*
X27024995Y-25423664D01*
X26995212Y-25273936D01*
X26936791Y-25132895D01*
X26867941Y-25029853D01*
X26892765Y-24948017D01*
X26900000Y-24874560D01*
X26902419Y-24850001D01*
X26900000Y-24825441D01*
X26900000Y-21224560D01*
X26902419Y-21200000D01*
X26892765Y-21101983D01*
X26864175Y-21007734D01*
X26864175Y-21007733D01*
X26817746Y-20920871D01*
X26755264Y-20844736D01*
X26736187Y-20829080D01*
X25725000Y-19817894D01*
X25725000Y-19673669D01*
X25695217Y-19523941D01*
X25636796Y-19382900D01*
X25551982Y-19255966D01*
X25444034Y-19148018D01*
X25317100Y-19063204D01*
X25176059Y-19004783D01*
X25026331Y-18975000D01*
X24873669Y-18975000D01*
X24723941Y-19004783D01*
X24582900Y-19063204D01*
X24455966Y-19148018D01*
X24348018Y-19255966D01*
X24263204Y-19382900D01*
X24204783Y-19523941D01*
X24175000Y-19673669D01*
X3375000Y-19673669D01*
X3375000Y-15900000D01*
X3374999Y-15899607D01*
X3368712Y-13900000D01*
X6818347Y-13900000D01*
X6844895Y-14169547D01*
X6923519Y-14428736D01*
X7051198Y-14667605D01*
X7223024Y-14876976D01*
X7432395Y-15048802D01*
X7671264Y-15176481D01*
X7930453Y-15255105D01*
X8132451Y-15275000D01*
X11267549Y-15275000D01*
X11469547Y-15255105D01*
X11728736Y-15176481D01*
X11967605Y-15048802D01*
X12176976Y-14876976D01*
X12348802Y-14667605D01*
X12476481Y-14428736D01*
X12555105Y-14169547D01*
X12581653Y-13900000D01*
X12555105Y-13630453D01*
X12476481Y-13371264D01*
X12348802Y-13132395D01*
X12176976Y-12923024D01*
X11967605Y-12751198D01*
X11728736Y-12623519D01*
X11469547Y-12544895D01*
X11267549Y-12525000D01*
X8132451Y-12525000D01*
X7930453Y-12544895D01*
X7671264Y-12623519D01*
X7432395Y-12751198D01*
X7223024Y-12923024D01*
X7051198Y-13132395D01*
X6923519Y-13371264D01*
X6844895Y-13630453D01*
X6818347Y-13900000D01*
X3368712Y-13900000D01*
X3359828Y-11075000D01*
X3425000Y-11075000D01*
X3425000Y-12075000D01*
X3475807Y-12340847D01*
X3577501Y-12591674D01*
X3726175Y-12817842D01*
X3916116Y-13010660D01*
X4140024Y-13162717D01*
X4389295Y-13268170D01*
X4462332Y-13282893D01*
X4675000Y-13225138D01*
X4675000Y-11075000D01*
X4925000Y-11075000D01*
X4925000Y-13225138D01*
X5137668Y-13282893D01*
X5210705Y-13268170D01*
X5459976Y-13162717D01*
X5683884Y-13010660D01*
X5873825Y-12817842D01*
X6022499Y-12591674D01*
X6124193Y-12340847D01*
X6175000Y-12075000D01*
X6175000Y-11075000D01*
X4925000Y-11075000D01*
X4675000Y-11075000D01*
X3425000Y-11075000D01*
X3359828Y-11075000D01*
X3355898Y-9825000D01*
X3425000Y-9825000D01*
X3425000Y-10825000D01*
X4675000Y-10825000D01*
X4675000Y-8674862D01*
X4925000Y-8674862D01*
X4925000Y-10825000D01*
X6175000Y-10825000D01*
X6175000Y-9825000D01*
X6124193Y-9559153D01*
X6022499Y-9308326D01*
X5873825Y-9082158D01*
X5683884Y-8889340D01*
X5459976Y-8737283D01*
X5210705Y-8631830D01*
X5137668Y-8617107D01*
X4925000Y-8674862D01*
X4675000Y-8674862D01*
X4462332Y-8617107D01*
X4389295Y-8631830D01*
X4140024Y-8737283D01*
X3916116Y-8889340D01*
X3726175Y-9082158D01*
X3577501Y-9308326D01*
X3475807Y-9559153D01*
X3425000Y-9825000D01*
X3355898Y-9825000D01*
X3350907Y-8237668D01*
X7367107Y-8237668D01*
X7381830Y-8310705D01*
X7487283Y-8559976D01*
X7639340Y-8783884D01*
X7832158Y-8973825D01*
X8058326Y-9122499D01*
X8309153Y-9224193D01*
X8575000Y-9275000D01*
X9575000Y-9275000D01*
X9575000Y-8025000D01*
X9825000Y-8025000D01*
X9825000Y-9275000D01*
X10825000Y-9275000D01*
X11090847Y-9224193D01*
X11341674Y-9122499D01*
X11567842Y-8973825D01*
X11760660Y-8783884D01*
X11912717Y-8559976D01*
X12018170Y-8310705D01*
X12032893Y-8237668D01*
X11975138Y-8025000D01*
X9825000Y-8025000D01*
X9575000Y-8025000D01*
X7424862Y-8025000D01*
X7367107Y-8237668D01*
X3350907Y-8237668D01*
X3348784Y-7562332D01*
X7367107Y-7562332D01*
X7424862Y-7775000D01*
X9575000Y-7775000D01*
X9575000Y-6525000D01*
X9825000Y-6525000D01*
X9825000Y-7775000D01*
X11975138Y-7775000D01*
X12032893Y-7562332D01*
X12018170Y-7489295D01*
X11912717Y-7240024D01*
X11760660Y-7016116D01*
X11567842Y-6826175D01*
X11341674Y-6677501D01*
X11090847Y-6575807D01*
X10825000Y-6525000D01*
X9825000Y-6525000D01*
X9575000Y-6525000D01*
X8575000Y-6525000D01*
X8309153Y-6575807D01*
X8058326Y-6677501D01*
X7832158Y-6826175D01*
X7639340Y-7016116D01*
X7487283Y-7240024D01*
X7381830Y-7489295D01*
X7367107Y-7562332D01*
X3348784Y-7562332D01*
X3326258Y-400000D01*
X39875000Y-400000D01*
X39875000Y-27625000D01*
G37*
G04 #@! TD.AperFunction*
D20*
X94375000Y-39875000D02*
X40625000Y-39875000D01*
X40625000Y-30375000D01*
X42217780Y-30375000D01*
X42320883Y-30379834D01*
X42588714Y-30339492D01*
X42843527Y-30247674D01*
X42957658Y-30186670D01*
X43067997Y-29994774D01*
X42625000Y-29551777D01*
X42625000Y-29198223D01*
X43244774Y-29817997D01*
X43436670Y-29707658D01*
X43551926Y-29462552D01*
X43617149Y-29199671D01*
X43629834Y-28929117D01*
X43589492Y-28661286D01*
X43497674Y-28406473D01*
X43436670Y-28292342D01*
X43244774Y-28182003D01*
X42625000Y-28801777D01*
X42625000Y-28448223D01*
X43067997Y-28005226D01*
X42957658Y-27813330D01*
X42712552Y-27698074D01*
X42449671Y-27632851D01*
X42179117Y-27620166D01*
X42147024Y-27625000D01*
X40625000Y-27625000D01*
X40625000Y-24400000D01*
X41023186Y-24400000D01*
X41023186Y-26100000D01*
X41030426Y-26173513D01*
X41051869Y-26244200D01*
X41086691Y-26309347D01*
X41133552Y-26366448D01*
X41190653Y-26413309D01*
X41255800Y-26448131D01*
X41326487Y-26469574D01*
X41400000Y-26476814D01*
X43100000Y-26476814D01*
X43173513Y-26469574D01*
X43244200Y-26448131D01*
X43309347Y-26413309D01*
X43366448Y-26366448D01*
X43413309Y-26309347D01*
X43448131Y-26244200D01*
X43469574Y-26173513D01*
X43476814Y-26100000D01*
X43476814Y-24400000D01*
X43469574Y-24326487D01*
X43448131Y-24255800D01*
X43413309Y-24190653D01*
X43366448Y-24133552D01*
X43309347Y-24086691D01*
X43244200Y-24051869D01*
X43173513Y-24030426D01*
X43100000Y-24023186D01*
X41400000Y-24023186D01*
X41326487Y-24030426D01*
X41255800Y-24051869D01*
X41190653Y-24086691D01*
X41133552Y-24133552D01*
X41086691Y-24190653D01*
X41051869Y-24255800D01*
X41030426Y-24326487D01*
X41023186Y-24400000D01*
X40625000Y-24400000D01*
X40625000Y-23024093D01*
X41065951Y-23024093D01*
X41090993Y-23106667D01*
X41190649Y-23325156D01*
X41331015Y-23520005D01*
X41506697Y-23683726D01*
X41710944Y-23810027D01*
X41935906Y-23894055D01*
X42125000Y-23834862D01*
X42125000Y-22835000D01*
X42375000Y-22835000D01*
X42375000Y-23834862D01*
X42564094Y-23894055D01*
X42789056Y-23810027D01*
X42993303Y-23683726D01*
X43168985Y-23520005D01*
X43309351Y-23325156D01*
X43409007Y-23106667D01*
X43434049Y-23024093D01*
X43374323Y-22835000D01*
X42375000Y-22835000D01*
X42125000Y-22835000D01*
X41125677Y-22835000D01*
X41065951Y-23024093D01*
X40625000Y-23024093D01*
X40625000Y-22395907D01*
X41065951Y-22395907D01*
X41125677Y-22585000D01*
X42125000Y-22585000D01*
X42125000Y-21585138D01*
X42375000Y-21585138D01*
X42375000Y-22585000D01*
X43374323Y-22585000D01*
X43434049Y-22395907D01*
X43409007Y-22313333D01*
X43309351Y-22094844D01*
X43168985Y-21899995D01*
X42993303Y-21736274D01*
X42789056Y-21609973D01*
X42564094Y-21525945D01*
X42375000Y-21585138D01*
X42125000Y-21585138D01*
X41935906Y-21525945D01*
X41710944Y-21609973D01*
X41506697Y-21736274D01*
X41331015Y-21899995D01*
X41190649Y-22094844D01*
X41090993Y-22313333D01*
X41065951Y-22395907D01*
X40625000Y-22395907D01*
X40625000Y-17629348D01*
X40985000Y-17629348D01*
X40985000Y-17870652D01*
X41032076Y-18107319D01*
X41124419Y-18330255D01*
X41258481Y-18530892D01*
X41429108Y-18701519D01*
X41629745Y-18835581D01*
X41852681Y-18927924D01*
X42089348Y-18975000D01*
X42330652Y-18975000D01*
X42567319Y-18927924D01*
X42790255Y-18835581D01*
X42990892Y-18701519D01*
X43161519Y-18530892D01*
X43295581Y-18330255D01*
X43387924Y-18107319D01*
X43435000Y-17870652D01*
X43435000Y-17629348D01*
X43387924Y-17392681D01*
X43295581Y-17169745D01*
X43161519Y-16969108D01*
X43092411Y-16900000D01*
X43523186Y-16900000D01*
X43523186Y-18600000D01*
X43530426Y-18673513D01*
X43551869Y-18744200D01*
X43586691Y-18809347D01*
X43633552Y-18866448D01*
X43690653Y-18913309D01*
X43755800Y-18948131D01*
X43826487Y-18969574D01*
X43900000Y-18976814D01*
X45600000Y-18976814D01*
X45673513Y-18969574D01*
X45744200Y-18948131D01*
X45809347Y-18913309D01*
X45866448Y-18866448D01*
X45913309Y-18809347D01*
X45948131Y-18744200D01*
X45969574Y-18673513D01*
X45976814Y-18600000D01*
X45976814Y-16900000D01*
X45969574Y-16826487D01*
X45948131Y-16755800D01*
X45913309Y-16690653D01*
X45866448Y-16633552D01*
X45809347Y-16586691D01*
X45744200Y-16551869D01*
X45673513Y-16530426D01*
X45600000Y-16523186D01*
X43900000Y-16523186D01*
X43826487Y-16530426D01*
X43755800Y-16551869D01*
X43690653Y-16586691D01*
X43633552Y-16633552D01*
X43586691Y-16690653D01*
X43551869Y-16755800D01*
X43530426Y-16826487D01*
X43523186Y-16900000D01*
X43092411Y-16900000D01*
X42990892Y-16798481D01*
X42790255Y-16664419D01*
X42567319Y-16572076D01*
X42330652Y-16525000D01*
X42089348Y-16525000D01*
X41852681Y-16572076D01*
X41629745Y-16664419D01*
X41429108Y-16798481D01*
X41258481Y-16969108D01*
X41124419Y-17169745D01*
X41032076Y-17392681D01*
X40985000Y-17629348D01*
X40625000Y-17629348D01*
X40625000Y-16465685D01*
X45997581Y-16465685D01*
X46000000Y-16490245D01*
X46000001Y-21375430D01*
X45997581Y-21400000D01*
X46007235Y-21498017D01*
X46029147Y-21570249D01*
X46035826Y-21592267D01*
X46082255Y-21679129D01*
X46144737Y-21755264D01*
X46163819Y-21770924D01*
X48600000Y-24207107D01*
X48600001Y-26703983D01*
X48598018Y-26705966D01*
X48513204Y-26832900D01*
X48454783Y-26973941D01*
X48425000Y-27123669D01*
X48425000Y-27276331D01*
X48454783Y-27426059D01*
X48513204Y-27567100D01*
X48598018Y-27694034D01*
X48705966Y-27801982D01*
X48832900Y-27886796D01*
X48973941Y-27945217D01*
X49123669Y-27975000D01*
X49276331Y-27975000D01*
X49426059Y-27945217D01*
X49567100Y-27886796D01*
X49694034Y-27801982D01*
X49801982Y-27694034D01*
X49886796Y-27567100D01*
X49945217Y-27426059D01*
X49975000Y-27276331D01*
X49975000Y-27123669D01*
X49945217Y-26973941D01*
X49886796Y-26832900D01*
X49801982Y-26705966D01*
X49694034Y-26598018D01*
X49600000Y-26535187D01*
X49600000Y-26325564D01*
X49633552Y-26366448D01*
X49690653Y-26413309D01*
X49755800Y-26448131D01*
X49826487Y-26469574D01*
X49900000Y-26476814D01*
X51600000Y-26476814D01*
X51673513Y-26469574D01*
X51744200Y-26448131D01*
X51809347Y-26413309D01*
X51866448Y-26366448D01*
X51913309Y-26309347D01*
X51948131Y-26244200D01*
X51969574Y-26173513D01*
X51976814Y-26100000D01*
X51976814Y-25129348D01*
X52065000Y-25129348D01*
X52065000Y-25370652D01*
X52112076Y-25607319D01*
X52204419Y-25830255D01*
X52338481Y-26030892D01*
X52509108Y-26201519D01*
X52709745Y-26335581D01*
X52932681Y-26427924D01*
X53169348Y-26475000D01*
X53410652Y-26475000D01*
X53647319Y-26427924D01*
X53870255Y-26335581D01*
X54070892Y-26201519D01*
X54241519Y-26030892D01*
X54375581Y-25830255D01*
X54467924Y-25607319D01*
X54515000Y-25370652D01*
X54515000Y-25129348D01*
X54605000Y-25129348D01*
X54605000Y-25370652D01*
X54652076Y-25607319D01*
X54744419Y-25830255D01*
X54878481Y-26030892D01*
X55049108Y-26201519D01*
X55249745Y-26335581D01*
X55472681Y-26427924D01*
X55709348Y-26475000D01*
X55950652Y-26475000D01*
X56187319Y-26427924D01*
X56410255Y-26335581D01*
X56610892Y-26201519D01*
X56781519Y-26030892D01*
X56915581Y-25830255D01*
X57007924Y-25607319D01*
X57055000Y-25370652D01*
X57055000Y-25129348D01*
X57145000Y-25129348D01*
X57145000Y-25370652D01*
X57192076Y-25607319D01*
X57284419Y-25830255D01*
X57418481Y-26030892D01*
X57589108Y-26201519D01*
X57789745Y-26335581D01*
X58012681Y-26427924D01*
X58249348Y-26475000D01*
X58490652Y-26475000D01*
X58727319Y-26427924D01*
X58950255Y-26335581D01*
X59150892Y-26201519D01*
X59321519Y-26030892D01*
X59455581Y-25830255D01*
X59547924Y-25607319D01*
X59595000Y-25370652D01*
X59595000Y-25129348D01*
X59685000Y-25129348D01*
X59685000Y-25370652D01*
X59732076Y-25607319D01*
X59824419Y-25830255D01*
X59958481Y-26030892D01*
X60129108Y-26201519D01*
X60329745Y-26335581D01*
X60552681Y-26427924D01*
X60789348Y-26475000D01*
X61030652Y-26475000D01*
X61267319Y-26427924D01*
X61490255Y-26335581D01*
X61690892Y-26201519D01*
X61861519Y-26030892D01*
X61995581Y-25830255D01*
X62087924Y-25607319D01*
X62135000Y-25370652D01*
X62135000Y-25129348D01*
X62087924Y-24892681D01*
X61995581Y-24669745D01*
X61861519Y-24469108D01*
X61690892Y-24298481D01*
X61490255Y-24164419D01*
X61267319Y-24072076D01*
X61030652Y-24025000D01*
X60789348Y-24025000D01*
X60552681Y-24072076D01*
X60329745Y-24164419D01*
X60129108Y-24298481D01*
X59958481Y-24469108D01*
X59824419Y-24669745D01*
X59732076Y-24892681D01*
X59685000Y-25129348D01*
X59595000Y-25129348D01*
X59547924Y-24892681D01*
X59455581Y-24669745D01*
X59321519Y-24469108D01*
X59150892Y-24298481D01*
X58950255Y-24164419D01*
X58727319Y-24072076D01*
X58490652Y-24025000D01*
X58249348Y-24025000D01*
X58012681Y-24072076D01*
X57789745Y-24164419D01*
X57589108Y-24298481D01*
X57418481Y-24469108D01*
X57284419Y-24669745D01*
X57192076Y-24892681D01*
X57145000Y-25129348D01*
X57055000Y-25129348D01*
X57007924Y-24892681D01*
X56915581Y-24669745D01*
X56781519Y-24469108D01*
X56610892Y-24298481D01*
X56410255Y-24164419D01*
X56187319Y-24072076D01*
X55950652Y-24025000D01*
X55709348Y-24025000D01*
X55472681Y-24072076D01*
X55249745Y-24164419D01*
X55049108Y-24298481D01*
X54878481Y-24469108D01*
X54744419Y-24669745D01*
X54652076Y-24892681D01*
X54605000Y-25129348D01*
X54515000Y-25129348D01*
X54467924Y-24892681D01*
X54375581Y-24669745D01*
X54241519Y-24469108D01*
X54070892Y-24298481D01*
X53870255Y-24164419D01*
X53647319Y-24072076D01*
X53410652Y-24025000D01*
X53169348Y-24025000D01*
X52932681Y-24072076D01*
X52709745Y-24164419D01*
X52509108Y-24298481D01*
X52338481Y-24469108D01*
X52204419Y-24669745D01*
X52112076Y-24892681D01*
X52065000Y-25129348D01*
X51976814Y-25129348D01*
X51976814Y-24400000D01*
X51969574Y-24326487D01*
X51948131Y-24255800D01*
X51913309Y-24190653D01*
X51866448Y-24133552D01*
X51809347Y-24086691D01*
X51744200Y-24051869D01*
X51673513Y-24030426D01*
X51600000Y-24023186D01*
X49900000Y-24023186D01*
X49826487Y-24030426D01*
X49755800Y-24051869D01*
X49690653Y-24086691D01*
X49633552Y-24133552D01*
X49600000Y-24174436D01*
X49600000Y-24024549D01*
X49602418Y-23999999D01*
X49600000Y-23975449D01*
X49600000Y-23975440D01*
X49592765Y-23901983D01*
X49564175Y-23807733D01*
X49517746Y-23720871D01*
X49455264Y-23644736D01*
X49436187Y-23629080D01*
X48831201Y-23024094D01*
X49565945Y-23024094D01*
X49649973Y-23249056D01*
X49776274Y-23453303D01*
X49939995Y-23628985D01*
X50134844Y-23769351D01*
X50353333Y-23869007D01*
X50435907Y-23894049D01*
X50625000Y-23834323D01*
X50625000Y-22835000D01*
X50875000Y-22835000D01*
X50875000Y-23834323D01*
X51064093Y-23894049D01*
X51146667Y-23869007D01*
X51365156Y-23769351D01*
X51560005Y-23628985D01*
X51723726Y-23453303D01*
X51850027Y-23249056D01*
X51934055Y-23024094D01*
X52105945Y-23024094D01*
X52189973Y-23249056D01*
X52316274Y-23453303D01*
X52479995Y-23628985D01*
X52674844Y-23769351D01*
X52893333Y-23869007D01*
X52975907Y-23894049D01*
X53165000Y-23834323D01*
X53165000Y-22835000D01*
X53415000Y-22835000D01*
X53415000Y-23834323D01*
X53604093Y-23894049D01*
X53686667Y-23869007D01*
X53905156Y-23769351D01*
X54100005Y-23628985D01*
X54263726Y-23453303D01*
X54390027Y-23249056D01*
X54474055Y-23024094D01*
X54645945Y-23024094D01*
X54729973Y-23249056D01*
X54856274Y-23453303D01*
X55019995Y-23628985D01*
X55214844Y-23769351D01*
X55433333Y-23869007D01*
X55515907Y-23894049D01*
X55705000Y-23834323D01*
X55705000Y-22835000D01*
X55955000Y-22835000D01*
X55955000Y-23834323D01*
X56144093Y-23894049D01*
X56226667Y-23869007D01*
X56445156Y-23769351D01*
X56640005Y-23628985D01*
X56803726Y-23453303D01*
X56930027Y-23249056D01*
X57014055Y-23024094D01*
X57185945Y-23024094D01*
X57269973Y-23249056D01*
X57396274Y-23453303D01*
X57559995Y-23628985D01*
X57754844Y-23769351D01*
X57973333Y-23869007D01*
X58055907Y-23894049D01*
X58245000Y-23834323D01*
X58245000Y-22835000D01*
X58495000Y-22835000D01*
X58495000Y-23834323D01*
X58684093Y-23894049D01*
X58766667Y-23869007D01*
X58985156Y-23769351D01*
X59180005Y-23628985D01*
X59343726Y-23453303D01*
X59470027Y-23249056D01*
X59554055Y-23024094D01*
X59725945Y-23024094D01*
X59809973Y-23249056D01*
X59936274Y-23453303D01*
X60099995Y-23628985D01*
X60294844Y-23769351D01*
X60513333Y-23869007D01*
X60595907Y-23894049D01*
X60785000Y-23834323D01*
X60785000Y-22835000D01*
X61035000Y-22835000D01*
X61035000Y-23834323D01*
X61224093Y-23894049D01*
X61306667Y-23869007D01*
X61525156Y-23769351D01*
X61720005Y-23628985D01*
X61883726Y-23453303D01*
X62010027Y-23249056D01*
X62094055Y-23024094D01*
X62034862Y-22835000D01*
X61035000Y-22835000D01*
X60785000Y-22835000D01*
X59785138Y-22835000D01*
X59725945Y-23024094D01*
X59554055Y-23024094D01*
X59494862Y-22835000D01*
X58495000Y-22835000D01*
X58245000Y-22835000D01*
X57245138Y-22835000D01*
X57185945Y-23024094D01*
X57014055Y-23024094D01*
X56954862Y-22835000D01*
X55955000Y-22835000D01*
X55705000Y-22835000D01*
X54705138Y-22835000D01*
X54645945Y-23024094D01*
X54474055Y-23024094D01*
X54414862Y-22835000D01*
X53415000Y-22835000D01*
X53165000Y-22835000D01*
X52165138Y-22835000D01*
X52105945Y-23024094D01*
X51934055Y-23024094D01*
X51874862Y-22835000D01*
X50875000Y-22835000D01*
X50625000Y-22835000D01*
X49625138Y-22835000D01*
X49565945Y-23024094D01*
X48831201Y-23024094D01*
X47381147Y-21574042D01*
X47526059Y-21545217D01*
X47667100Y-21486796D01*
X47794034Y-21401982D01*
X47901982Y-21294034D01*
X47986796Y-21167100D01*
X48045217Y-21026059D01*
X48075000Y-20876331D01*
X48075000Y-20859579D01*
X48098022Y-20894034D01*
X48205970Y-21001982D01*
X48332904Y-21086796D01*
X48473945Y-21145217D01*
X48623673Y-21175000D01*
X48776335Y-21175000D01*
X48926063Y-21145217D01*
X49067104Y-21086796D01*
X49194038Y-21001982D01*
X49225000Y-20971020D01*
X49225000Y-20976331D01*
X49254783Y-21126059D01*
X49313204Y-21267100D01*
X49398018Y-21394034D01*
X49505966Y-21501982D01*
X49632900Y-21586796D01*
X49773941Y-21645217D01*
X49923669Y-21675000D01*
X50076331Y-21675000D01*
X50110467Y-21668210D01*
X49939995Y-21791015D01*
X49776274Y-21966697D01*
X49649973Y-22170944D01*
X49565945Y-22395906D01*
X49625138Y-22585000D01*
X50625000Y-22585000D01*
X50625000Y-21585677D01*
X50451018Y-21530724D01*
X50494034Y-21501982D01*
X50601982Y-21394034D01*
X50675044Y-21284688D01*
X50698014Y-21319066D01*
X50805962Y-21427014D01*
X50932896Y-21511828D01*
X51009002Y-21543352D01*
X50875000Y-21585677D01*
X50875000Y-22585000D01*
X51874862Y-22585000D01*
X51934055Y-22395906D01*
X52105945Y-22395906D01*
X52165138Y-22585000D01*
X53165000Y-22585000D01*
X53165000Y-21585677D01*
X53415000Y-21585677D01*
X53415000Y-22585000D01*
X54414862Y-22585000D01*
X54474055Y-22395906D01*
X54645945Y-22395906D01*
X54705138Y-22585000D01*
X55705000Y-22585000D01*
X55705000Y-21585677D01*
X55955000Y-21585677D01*
X55955000Y-22585000D01*
X56954862Y-22585000D01*
X57014055Y-22395906D01*
X57185945Y-22395906D01*
X57245138Y-22585000D01*
X58245000Y-22585000D01*
X58245000Y-21585677D01*
X58495000Y-21585677D01*
X58495000Y-22585000D01*
X59494862Y-22585000D01*
X59554055Y-22395906D01*
X59725945Y-22395906D01*
X59785138Y-22585000D01*
X60785000Y-22585000D01*
X60785000Y-21585677D01*
X61035000Y-21585677D01*
X61035000Y-22585000D01*
X62034862Y-22585000D01*
X62094055Y-22395906D01*
X62010027Y-22170944D01*
X61883726Y-21966697D01*
X61720005Y-21791015D01*
X61525156Y-21650649D01*
X61306667Y-21550993D01*
X61224093Y-21525951D01*
X61035000Y-21585677D01*
X60785000Y-21585677D01*
X60595907Y-21525951D01*
X60513333Y-21550993D01*
X60294844Y-21650649D01*
X60099995Y-21791015D01*
X59936274Y-21966697D01*
X59809973Y-22170944D01*
X59725945Y-22395906D01*
X59554055Y-22395906D01*
X59470027Y-22170944D01*
X59343726Y-21966697D01*
X59180005Y-21791015D01*
X58985156Y-21650649D01*
X58766667Y-21550993D01*
X58684093Y-21525951D01*
X58495000Y-21585677D01*
X58245000Y-21585677D01*
X58055907Y-21525951D01*
X57973333Y-21550993D01*
X57754844Y-21650649D01*
X57559995Y-21791015D01*
X57396274Y-21966697D01*
X57269973Y-22170944D01*
X57185945Y-22395906D01*
X57014055Y-22395906D01*
X56930027Y-22170944D01*
X56803726Y-21966697D01*
X56640005Y-21791015D01*
X56445156Y-21650649D01*
X56226667Y-21550993D01*
X56144093Y-21525951D01*
X55955000Y-21585677D01*
X55705000Y-21585677D01*
X55515907Y-21525951D01*
X55433333Y-21550993D01*
X55214844Y-21650649D01*
X55019995Y-21791015D01*
X54856274Y-21966697D01*
X54729973Y-22170944D01*
X54645945Y-22395906D01*
X54474055Y-22395906D01*
X54390027Y-22170944D01*
X54263726Y-21966697D01*
X54100005Y-21791015D01*
X53905156Y-21650649D01*
X53686667Y-21550993D01*
X53604093Y-21525951D01*
X53415000Y-21585677D01*
X53165000Y-21585677D01*
X52975907Y-21525951D01*
X52893333Y-21550993D01*
X52674844Y-21650649D01*
X52479995Y-21791015D01*
X52316274Y-21966697D01*
X52189973Y-22170944D01*
X52105945Y-22395906D01*
X51934055Y-22395906D01*
X51850027Y-22170944D01*
X51723726Y-21966697D01*
X51560005Y-21791015D01*
X51365156Y-21650649D01*
X51254182Y-21600032D01*
X51376327Y-21600032D01*
X51526055Y-21570249D01*
X51667096Y-21511828D01*
X51794030Y-21427014D01*
X51901978Y-21319066D01*
X51986792Y-21192132D01*
X52045213Y-21051091D01*
X52074996Y-20901363D01*
X52074996Y-20748701D01*
X52045213Y-20598973D01*
X51986792Y-20457932D01*
X51901978Y-20330998D01*
X51794030Y-20223050D01*
X51750000Y-20193630D01*
X51750000Y-18976814D01*
X52100000Y-18976814D01*
X52173513Y-18969574D01*
X52244200Y-18948131D01*
X52309347Y-18913309D01*
X52366448Y-18866448D01*
X52413309Y-18809347D01*
X52448131Y-18744200D01*
X52469574Y-18673513D01*
X52476814Y-18600000D01*
X52476814Y-16900000D01*
X52469574Y-16826487D01*
X52448131Y-16755800D01*
X52413309Y-16690653D01*
X52366448Y-16633552D01*
X52309347Y-16586691D01*
X52244200Y-16551869D01*
X52173513Y-16530426D01*
X52100000Y-16523186D01*
X50643919Y-16523186D01*
X50812425Y-16354681D01*
X50892681Y-16387924D01*
X51129348Y-16435000D01*
X51370652Y-16435000D01*
X51607319Y-16387924D01*
X51830255Y-16295581D01*
X52030892Y-16161519D01*
X52201519Y-15990892D01*
X52335581Y-15790255D01*
X52427924Y-15567319D01*
X52475000Y-15330652D01*
X52475000Y-15136400D01*
X77509586Y-15136400D01*
X77509586Y-16863600D01*
X77516826Y-16937113D01*
X77538269Y-17007800D01*
X77573091Y-17072947D01*
X77619952Y-17130048D01*
X77677053Y-17176909D01*
X77742200Y-17211731D01*
X77812887Y-17233174D01*
X77886400Y-17240414D01*
X79613600Y-17240414D01*
X79687113Y-17233174D01*
X79757800Y-17211731D01*
X79822947Y-17176909D01*
X79880048Y-17130048D01*
X79926909Y-17072947D01*
X79961731Y-17007800D01*
X79983174Y-16937113D01*
X79990414Y-16863600D01*
X79990414Y-15878009D01*
X80051400Y-15878009D01*
X80051400Y-16121991D01*
X80098999Y-16361286D01*
X80192367Y-16586697D01*
X80327917Y-16789561D01*
X80500439Y-16962083D01*
X80703303Y-17097633D01*
X80928714Y-17191001D01*
X81168009Y-17238600D01*
X81411991Y-17238600D01*
X81651286Y-17191001D01*
X81876697Y-17097633D01*
X82079561Y-16962083D01*
X82252083Y-16789561D01*
X82387633Y-16586697D01*
X82481001Y-16361286D01*
X82489962Y-16316232D01*
X82632444Y-16316232D01*
X82717149Y-16543787D01*
X82844620Y-16750445D01*
X83009958Y-16928264D01*
X83206810Y-17070410D01*
X83427611Y-17171421D01*
X83513769Y-17197550D01*
X83705000Y-17138006D01*
X83705000Y-16125000D01*
X83955000Y-16125000D01*
X83955000Y-17138006D01*
X84146231Y-17197550D01*
X84232389Y-17171421D01*
X84453190Y-17070410D01*
X84650042Y-16928264D01*
X84815380Y-16750445D01*
X84942851Y-16543787D01*
X85027556Y-16316232D01*
X84968532Y-16125000D01*
X83955000Y-16125000D01*
X83705000Y-16125000D01*
X82691468Y-16125000D01*
X82632444Y-16316232D01*
X82489962Y-16316232D01*
X82528600Y-16121991D01*
X82528600Y-15878009D01*
X85131400Y-15878009D01*
X85131400Y-16121991D01*
X85178999Y-16361286D01*
X85272367Y-16586697D01*
X85407917Y-16789561D01*
X85580439Y-16962083D01*
X85783303Y-17097633D01*
X86008714Y-17191001D01*
X86248009Y-17238600D01*
X86491991Y-17238600D01*
X86731286Y-17191001D01*
X86956697Y-17097633D01*
X87159561Y-16962083D01*
X87332083Y-16789561D01*
X87467633Y-16586697D01*
X87561001Y-16361286D01*
X87608600Y-16121991D01*
X87608600Y-15878009D01*
X87671400Y-15878009D01*
X87671400Y-16121991D01*
X87718999Y-16361286D01*
X87812367Y-16586697D01*
X87947917Y-16789561D01*
X88120439Y-16962083D01*
X88323303Y-17097633D01*
X88548714Y-17191001D01*
X88788009Y-17238600D01*
X89031991Y-17238600D01*
X89271286Y-17191001D01*
X89496697Y-17097633D01*
X89699561Y-16962083D01*
X89872083Y-16789561D01*
X90007633Y-16586697D01*
X90101001Y-16361286D01*
X90148600Y-16121991D01*
X90148600Y-15878009D01*
X90101001Y-15638714D01*
X90007633Y-15413303D01*
X89872083Y-15210439D01*
X89699561Y-15037917D01*
X89496697Y-14902367D01*
X89271286Y-14808999D01*
X89031991Y-14761400D01*
X88788009Y-14761400D01*
X88548714Y-14808999D01*
X88323303Y-14902367D01*
X88120439Y-15037917D01*
X87947917Y-15210439D01*
X87812367Y-15413303D01*
X87718999Y-15638714D01*
X87671400Y-15878009D01*
X87608600Y-15878009D01*
X87561001Y-15638714D01*
X87467633Y-15413303D01*
X87332083Y-15210439D01*
X87159561Y-15037917D01*
X86956697Y-14902367D01*
X86731286Y-14808999D01*
X86491991Y-14761400D01*
X86248009Y-14761400D01*
X86008714Y-14808999D01*
X85783303Y-14902367D01*
X85580439Y-15037917D01*
X85407917Y-15210439D01*
X85272367Y-15413303D01*
X85178999Y-15638714D01*
X85131400Y-15878009D01*
X82528600Y-15878009D01*
X82489963Y-15683768D01*
X82632444Y-15683768D01*
X82691468Y-15875000D01*
X83705000Y-15875000D01*
X83705000Y-14861994D01*
X83955000Y-14861994D01*
X83955000Y-15875000D01*
X84968532Y-15875000D01*
X85027556Y-15683768D01*
X84942851Y-15456213D01*
X84815380Y-15249555D01*
X84650042Y-15071736D01*
X84453190Y-14929590D01*
X84232389Y-14828579D01*
X84146231Y-14802450D01*
X83955000Y-14861994D01*
X83705000Y-14861994D01*
X83513769Y-14802450D01*
X83427611Y-14828579D01*
X83206810Y-14929590D01*
X83009958Y-15071736D01*
X82844620Y-15249555D01*
X82717149Y-15456213D01*
X82632444Y-15683768D01*
X82489963Y-15683768D01*
X82481001Y-15638714D01*
X82387633Y-15413303D01*
X82252083Y-15210439D01*
X82079561Y-15037917D01*
X81876697Y-14902367D01*
X81651286Y-14808999D01*
X81411991Y-14761400D01*
X81168009Y-14761400D01*
X80928714Y-14808999D01*
X80703303Y-14902367D01*
X80500439Y-15037917D01*
X80327917Y-15210439D01*
X80192367Y-15413303D01*
X80098999Y-15638714D01*
X80051400Y-15878009D01*
X79990414Y-15878009D01*
X79990414Y-15136400D01*
X79983174Y-15062887D01*
X79961731Y-14992200D01*
X79926909Y-14927053D01*
X79880048Y-14869952D01*
X79822947Y-14823091D01*
X79757800Y-14788269D01*
X79687113Y-14766826D01*
X79613600Y-14759586D01*
X77886400Y-14759586D01*
X77812887Y-14766826D01*
X77742200Y-14788269D01*
X77677053Y-14823091D01*
X77619952Y-14869952D01*
X77573091Y-14927053D01*
X77538269Y-14992200D01*
X77516826Y-15062887D01*
X77509586Y-15136400D01*
X52475000Y-15136400D01*
X52475000Y-15089348D01*
X52427924Y-14852681D01*
X52335581Y-14629745D01*
X52201519Y-14429108D01*
X52030892Y-14258481D01*
X51830255Y-14124419D01*
X51607319Y-14032076D01*
X51370652Y-13985000D01*
X51129348Y-13985000D01*
X50892681Y-14032076D01*
X50669745Y-14124419D01*
X50469108Y-14258481D01*
X50298481Y-14429108D01*
X50164419Y-14629745D01*
X50072076Y-14852681D01*
X50025000Y-15089348D01*
X50025000Y-15330652D01*
X50072076Y-15567319D01*
X50105319Y-15647575D01*
X49663819Y-16089076D01*
X49644737Y-16104736D01*
X49582255Y-16180871D01*
X49537981Y-16263702D01*
X49535826Y-16267733D01*
X49507235Y-16361983D01*
X49497581Y-16460000D01*
X49500001Y-16484570D01*
X49500001Y-16807590D01*
X49490892Y-16798481D01*
X49290255Y-16664419D01*
X49067319Y-16572076D01*
X48830652Y-16525000D01*
X48589348Y-16525000D01*
X48352681Y-16572076D01*
X48129745Y-16664419D01*
X47929108Y-16798481D01*
X47800000Y-16927589D01*
X47800000Y-16827105D01*
X48272425Y-16354681D01*
X48352681Y-16387924D01*
X48589348Y-16435000D01*
X48830652Y-16435000D01*
X49067319Y-16387924D01*
X49290255Y-16295581D01*
X49490892Y-16161519D01*
X49661519Y-15990892D01*
X49795581Y-15790255D01*
X49887924Y-15567319D01*
X49935000Y-15330652D01*
X49935000Y-15089348D01*
X49887924Y-14852681D01*
X49795581Y-14629745D01*
X49661519Y-14429108D01*
X49490892Y-14258481D01*
X49290255Y-14124419D01*
X49067319Y-14032076D01*
X48830652Y-13985000D01*
X48589348Y-13985000D01*
X48352681Y-14032076D01*
X48129745Y-14124419D01*
X47929108Y-14258481D01*
X47758481Y-14429108D01*
X47624419Y-14629745D01*
X47532076Y-14852681D01*
X47485000Y-15089348D01*
X47485000Y-15230212D01*
X47401982Y-15105966D01*
X47294034Y-14998018D01*
X47167100Y-14913204D01*
X47026059Y-14854783D01*
X46876331Y-14825000D01*
X46723669Y-14825000D01*
X46573941Y-14854783D01*
X46432900Y-14913204D01*
X46305966Y-14998018D01*
X46198018Y-15105966D01*
X46113204Y-15232900D01*
X46054783Y-15373941D01*
X46025000Y-15523669D01*
X46025000Y-15676331D01*
X46054783Y-15826059D01*
X46113204Y-15967100D01*
X46184611Y-16073969D01*
X46163824Y-16094756D01*
X46144736Y-16110421D01*
X46082254Y-16186556D01*
X46035825Y-16273419D01*
X46022838Y-16316232D01*
X46007235Y-16367668D01*
X45997581Y-16465685D01*
X40625000Y-16465685D01*
X40625000Y-15089348D01*
X40985000Y-15089348D01*
X40985000Y-15330652D01*
X41032076Y-15567319D01*
X41124419Y-15790255D01*
X41258481Y-15990892D01*
X41429108Y-16161519D01*
X41629745Y-16295581D01*
X41852681Y-16387924D01*
X42089348Y-16435000D01*
X42330652Y-16435000D01*
X42567319Y-16387924D01*
X42790255Y-16295581D01*
X42990892Y-16161519D01*
X43161519Y-15990892D01*
X43295581Y-15790255D01*
X43387924Y-15567319D01*
X43435000Y-15330652D01*
X43435000Y-15089348D01*
X43525000Y-15089348D01*
X43525000Y-15330652D01*
X43572076Y-15567319D01*
X43664419Y-15790255D01*
X43798481Y-15990892D01*
X43969108Y-16161519D01*
X44169745Y-16295581D01*
X44392681Y-16387924D01*
X44629348Y-16435000D01*
X44870652Y-16435000D01*
X45107319Y-16387924D01*
X45330255Y-16295581D01*
X45530892Y-16161519D01*
X45701519Y-15990892D01*
X45835581Y-15790255D01*
X45927924Y-15567319D01*
X45975000Y-15330652D01*
X45975000Y-15089348D01*
X45927924Y-14852681D01*
X45835581Y-14629745D01*
X45701519Y-14429108D01*
X45530892Y-14258481D01*
X45330255Y-14124419D01*
X45107319Y-14032076D01*
X44870652Y-13985000D01*
X44629348Y-13985000D01*
X44392681Y-14032076D01*
X44169745Y-14124419D01*
X43969108Y-14258481D01*
X43798481Y-14429108D01*
X43664419Y-14629745D01*
X43572076Y-14852681D01*
X43525000Y-15089348D01*
X43435000Y-15089348D01*
X43387924Y-14852681D01*
X43295581Y-14629745D01*
X43161519Y-14429108D01*
X42990892Y-14258481D01*
X42790255Y-14124419D01*
X42567319Y-14032076D01*
X42330652Y-13985000D01*
X42089348Y-13985000D01*
X41852681Y-14032076D01*
X41629745Y-14124419D01*
X41429108Y-14258481D01*
X41258481Y-14429108D01*
X41124419Y-14629745D01*
X41032076Y-14852681D01*
X40985000Y-15089348D01*
X40625000Y-15089348D01*
X40625000Y-12549348D01*
X40985000Y-12549348D01*
X40985000Y-12790652D01*
X41032076Y-13027319D01*
X41124419Y-13250255D01*
X41258481Y-13450892D01*
X41429108Y-13621519D01*
X41629745Y-13755581D01*
X41852681Y-13847924D01*
X42089348Y-13895000D01*
X42330652Y-13895000D01*
X42567319Y-13847924D01*
X42790255Y-13755581D01*
X42990892Y-13621519D01*
X43161519Y-13450892D01*
X43295581Y-13250255D01*
X43387924Y-13027319D01*
X43435000Y-12790652D01*
X43435000Y-12549348D01*
X43525000Y-12549348D01*
X43525000Y-12790652D01*
X43572076Y-13027319D01*
X43664419Y-13250255D01*
X43798481Y-13450892D01*
X43969108Y-13621519D01*
X44169745Y-13755581D01*
X44392681Y-13847924D01*
X44629348Y-13895000D01*
X44870652Y-13895000D01*
X45107319Y-13847924D01*
X45330255Y-13755581D01*
X45530892Y-13621519D01*
X45701519Y-13450892D01*
X45835581Y-13250255D01*
X45927924Y-13027319D01*
X45975000Y-12790652D01*
X45975000Y-12549348D01*
X47485000Y-12549348D01*
X47485000Y-12790652D01*
X47532076Y-13027319D01*
X47624419Y-13250255D01*
X47758481Y-13450892D01*
X47929108Y-13621519D01*
X48129745Y-13755581D01*
X48352681Y-13847924D01*
X48589348Y-13895000D01*
X48830652Y-13895000D01*
X49067319Y-13847924D01*
X49290255Y-13755581D01*
X49490892Y-13621519D01*
X49661519Y-13450892D01*
X49795581Y-13250255D01*
X49887924Y-13027319D01*
X49935000Y-12790652D01*
X49935000Y-12549348D01*
X50025000Y-12549348D01*
X50025000Y-12790652D01*
X50072076Y-13027319D01*
X50164419Y-13250255D01*
X50298481Y-13450892D01*
X50469108Y-13621519D01*
X50669745Y-13755581D01*
X50892681Y-13847924D01*
X51129348Y-13895000D01*
X51370652Y-13895000D01*
X51607319Y-13847924D01*
X51830255Y-13755581D01*
X52030892Y-13621519D01*
X52201519Y-13450892D01*
X52276945Y-13338009D01*
X77511400Y-13338009D01*
X77511400Y-13581991D01*
X77558999Y-13821286D01*
X77652367Y-14046697D01*
X77787917Y-14249561D01*
X77960439Y-14422083D01*
X78163303Y-14557633D01*
X78388714Y-14651001D01*
X78628009Y-14698600D01*
X78871991Y-14698600D01*
X79111286Y-14651001D01*
X79336697Y-14557633D01*
X79539561Y-14422083D01*
X79712083Y-14249561D01*
X79847633Y-14046697D01*
X79941001Y-13821286D01*
X79988600Y-13581991D01*
X79988600Y-13338009D01*
X80051400Y-13338009D01*
X80051400Y-13581991D01*
X80098999Y-13821286D01*
X80192367Y-14046697D01*
X80327917Y-14249561D01*
X80500439Y-14422083D01*
X80703303Y-14557633D01*
X80928714Y-14651001D01*
X81168009Y-14698600D01*
X81411991Y-14698600D01*
X81651286Y-14651001D01*
X81876697Y-14557633D01*
X82079561Y-14422083D01*
X82252083Y-14249561D01*
X82387633Y-14046697D01*
X82481001Y-13821286D01*
X82528600Y-13581991D01*
X82528600Y-13338009D01*
X82591400Y-13338009D01*
X82591400Y-13581991D01*
X82638999Y-13821286D01*
X82732367Y-14046697D01*
X82867917Y-14249561D01*
X83040439Y-14422083D01*
X83243303Y-14557633D01*
X83468714Y-14651001D01*
X83708009Y-14698600D01*
X83951991Y-14698600D01*
X84191286Y-14651001D01*
X84416697Y-14557633D01*
X84619561Y-14422083D01*
X84792083Y-14249561D01*
X84927633Y-14046697D01*
X85021001Y-13821286D01*
X85068600Y-13581991D01*
X85068600Y-13338009D01*
X85131400Y-13338009D01*
X85131400Y-13581991D01*
X85178999Y-13821286D01*
X85272367Y-14046697D01*
X85407917Y-14249561D01*
X85580439Y-14422083D01*
X85783303Y-14557633D01*
X86008714Y-14651001D01*
X86248009Y-14698600D01*
X86491991Y-14698600D01*
X86731286Y-14651001D01*
X86956697Y-14557633D01*
X87159561Y-14422083D01*
X87332083Y-14249561D01*
X87467633Y-14046697D01*
X87561001Y-13821286D01*
X87608600Y-13581991D01*
X87608600Y-13338009D01*
X87671400Y-13338009D01*
X87671400Y-13581991D01*
X87718999Y-13821286D01*
X87812367Y-14046697D01*
X87947917Y-14249561D01*
X88120439Y-14422083D01*
X88323303Y-14557633D01*
X88548714Y-14651001D01*
X88788009Y-14698600D01*
X89031991Y-14698600D01*
X89271286Y-14651001D01*
X89496697Y-14557633D01*
X89699561Y-14422083D01*
X89872083Y-14249561D01*
X90007633Y-14046697D01*
X90101001Y-13821286D01*
X90148600Y-13581991D01*
X90148600Y-13338009D01*
X90101001Y-13098714D01*
X90007633Y-12873303D01*
X89872083Y-12670439D01*
X89699561Y-12497917D01*
X89496697Y-12362367D01*
X89271286Y-12268999D01*
X89031991Y-12221400D01*
X88788009Y-12221400D01*
X88548714Y-12268999D01*
X88323303Y-12362367D01*
X88120439Y-12497917D01*
X87947917Y-12670439D01*
X87812367Y-12873303D01*
X87718999Y-13098714D01*
X87671400Y-13338009D01*
X87608600Y-13338009D01*
X87561001Y-13098714D01*
X87467633Y-12873303D01*
X87332083Y-12670439D01*
X87159561Y-12497917D01*
X86956697Y-12362367D01*
X86731286Y-12268999D01*
X86491991Y-12221400D01*
X86248009Y-12221400D01*
X86008714Y-12268999D01*
X85783303Y-12362367D01*
X85580439Y-12497917D01*
X85407917Y-12670439D01*
X85272367Y-12873303D01*
X85178999Y-13098714D01*
X85131400Y-13338009D01*
X85068600Y-13338009D01*
X85021001Y-13098714D01*
X84927633Y-12873303D01*
X84792083Y-12670439D01*
X84619561Y-12497917D01*
X84416697Y-12362367D01*
X84191286Y-12268999D01*
X83951991Y-12221400D01*
X83708009Y-12221400D01*
X83468714Y-12268999D01*
X83243303Y-12362367D01*
X83040439Y-12497917D01*
X82867917Y-12670439D01*
X82732367Y-12873303D01*
X82638999Y-13098714D01*
X82591400Y-13338009D01*
X82528600Y-13338009D01*
X82481001Y-13098714D01*
X82387633Y-12873303D01*
X82252083Y-12670439D01*
X82079561Y-12497917D01*
X81876697Y-12362367D01*
X81651286Y-12268999D01*
X81411991Y-12221400D01*
X81168009Y-12221400D01*
X80928714Y-12268999D01*
X80703303Y-12362367D01*
X80500439Y-12497917D01*
X80327917Y-12670439D01*
X80192367Y-12873303D01*
X80098999Y-13098714D01*
X80051400Y-13338009D01*
X79988600Y-13338009D01*
X79941001Y-13098714D01*
X79847633Y-12873303D01*
X79712083Y-12670439D01*
X79539561Y-12497917D01*
X79336697Y-12362367D01*
X79111286Y-12268999D01*
X78871991Y-12221400D01*
X78628009Y-12221400D01*
X78388714Y-12268999D01*
X78163303Y-12362367D01*
X77960439Y-12497917D01*
X77787917Y-12670439D01*
X77652367Y-12873303D01*
X77558999Y-13098714D01*
X77511400Y-13338009D01*
X52276945Y-13338009D01*
X52335581Y-13250255D01*
X52427924Y-13027319D01*
X52475000Y-12790652D01*
X52475000Y-12549348D01*
X52427924Y-12312681D01*
X52335581Y-12089745D01*
X52201519Y-11889108D01*
X52030892Y-11718481D01*
X51830255Y-11584419D01*
X51607319Y-11492076D01*
X51370652Y-11445000D01*
X51129348Y-11445000D01*
X50892681Y-11492076D01*
X50669745Y-11584419D01*
X50469108Y-11718481D01*
X50298481Y-11889108D01*
X50164419Y-12089745D01*
X50072076Y-12312681D01*
X50025000Y-12549348D01*
X49935000Y-12549348D01*
X49887924Y-12312681D01*
X49795581Y-12089745D01*
X49661519Y-11889108D01*
X49490892Y-11718481D01*
X49290255Y-11584419D01*
X49067319Y-11492076D01*
X48830652Y-11445000D01*
X48589348Y-11445000D01*
X48352681Y-11492076D01*
X48129745Y-11584419D01*
X47929108Y-11718481D01*
X47758481Y-11889108D01*
X47624419Y-12089745D01*
X47532076Y-12312681D01*
X47485000Y-12549348D01*
X45975000Y-12549348D01*
X45927924Y-12312681D01*
X45835581Y-12089745D01*
X45701519Y-11889108D01*
X45530892Y-11718481D01*
X45330255Y-11584419D01*
X45107319Y-11492076D01*
X44870652Y-11445000D01*
X44629348Y-11445000D01*
X44392681Y-11492076D01*
X44169745Y-11584419D01*
X43969108Y-11718481D01*
X43798481Y-11889108D01*
X43664419Y-12089745D01*
X43572076Y-12312681D01*
X43525000Y-12549348D01*
X43435000Y-12549348D01*
X43387924Y-12312681D01*
X43295581Y-12089745D01*
X43161519Y-11889108D01*
X42990892Y-11718481D01*
X42790255Y-11584419D01*
X42567319Y-11492076D01*
X42330652Y-11445000D01*
X42089348Y-11445000D01*
X41852681Y-11492076D01*
X41629745Y-11584419D01*
X41429108Y-11718481D01*
X41258481Y-11889108D01*
X41124419Y-12089745D01*
X41032076Y-12312681D01*
X40985000Y-12549348D01*
X40625000Y-12549348D01*
X40625000Y-8823669D01*
X57025000Y-8823669D01*
X57025000Y-8976331D01*
X57054783Y-9126059D01*
X57113204Y-9267100D01*
X57198018Y-9394034D01*
X57305966Y-9501982D01*
X57432900Y-9586796D01*
X57573941Y-9645217D01*
X57723669Y-9675000D01*
X57876331Y-9675000D01*
X57961349Y-9658089D01*
X57954783Y-9673941D01*
X57925000Y-9823669D01*
X57925000Y-9976331D01*
X57954783Y-10126059D01*
X58013204Y-10267100D01*
X58098018Y-10394034D01*
X58205966Y-10501982D01*
X58332900Y-10586796D01*
X58473941Y-10645217D01*
X58623669Y-10675000D01*
X58776331Y-10675000D01*
X58926059Y-10645217D01*
X59067100Y-10586796D01*
X59194034Y-10501982D01*
X59296016Y-10400000D01*
X59875440Y-10400000D01*
X59900000Y-10402419D01*
X59924560Y-10400000D01*
X59998017Y-10392765D01*
X60092267Y-10364175D01*
X60179129Y-10317746D01*
X60255264Y-10255264D01*
X60270929Y-10236176D01*
X61232106Y-9275000D01*
X61376331Y-9275000D01*
X61526059Y-9245217D01*
X61667100Y-9186796D01*
X61794034Y-9101982D01*
X61901982Y-8994034D01*
X61986796Y-8867100D01*
X62045217Y-8726059D01*
X62075000Y-8576331D01*
X62075000Y-8423669D01*
X62045217Y-8273941D01*
X61986796Y-8132900D01*
X61901982Y-8005966D01*
X61796016Y-7900000D01*
X61901982Y-7794034D01*
X61986796Y-7667100D01*
X62045217Y-7526059D01*
X62075000Y-7376331D01*
X62075000Y-7223669D01*
X62045217Y-7073941D01*
X61986796Y-6932900D01*
X61901982Y-6805966D01*
X61794034Y-6698018D01*
X61667100Y-6613204D01*
X61526059Y-6554783D01*
X61376331Y-6525000D01*
X61223669Y-6525000D01*
X61073941Y-6554783D01*
X60932900Y-6613204D01*
X60805966Y-6698018D01*
X60698018Y-6805966D01*
X60613204Y-6932900D01*
X60554783Y-7073941D01*
X60525000Y-7223669D01*
X60525000Y-7367894D01*
X59492895Y-8400000D01*
X58396016Y-8400000D01*
X58294034Y-8298018D01*
X58167100Y-8213204D01*
X58026059Y-8154783D01*
X57876331Y-8125000D01*
X57723669Y-8125000D01*
X57573941Y-8154783D01*
X57432900Y-8213204D01*
X57305966Y-8298018D01*
X57198018Y-8405966D01*
X57113204Y-8532900D01*
X57054783Y-8673941D01*
X57025000Y-8823669D01*
X40625000Y-8823669D01*
X40625000Y-5136400D01*
X44509586Y-5136400D01*
X44509586Y-6863600D01*
X44516826Y-6937113D01*
X44538269Y-7007800D01*
X44573091Y-7072947D01*
X44619952Y-7130048D01*
X44677053Y-7176909D01*
X44742200Y-7211731D01*
X44812887Y-7233174D01*
X44886400Y-7240414D01*
X46613600Y-7240414D01*
X46687113Y-7233174D01*
X46757800Y-7211731D01*
X46822947Y-7176909D01*
X46880048Y-7130048D01*
X46926909Y-7072947D01*
X46961731Y-7007800D01*
X46983174Y-6937113D01*
X46990414Y-6863600D01*
X46990414Y-5878009D01*
X47051400Y-5878009D01*
X47051400Y-6121991D01*
X47098999Y-6361286D01*
X47192367Y-6586697D01*
X47327917Y-6789561D01*
X47500439Y-6962083D01*
X47703303Y-7097633D01*
X47928714Y-7191001D01*
X48168009Y-7238600D01*
X48411991Y-7238600D01*
X48651286Y-7191001D01*
X48876697Y-7097633D01*
X49079561Y-6962083D01*
X49252083Y-6789561D01*
X49387633Y-6586697D01*
X49481001Y-6361286D01*
X49528600Y-6121991D01*
X49528600Y-5878009D01*
X49591400Y-5878009D01*
X49591400Y-6121991D01*
X49638999Y-6361286D01*
X49732367Y-6586697D01*
X49867917Y-6789561D01*
X50040439Y-6962083D01*
X50243303Y-7097633D01*
X50468714Y-7191001D01*
X50708009Y-7238600D01*
X50951991Y-7238600D01*
X51191286Y-7191001D01*
X51416697Y-7097633D01*
X51619561Y-6962083D01*
X51792083Y-6789561D01*
X51927633Y-6586697D01*
X52021001Y-6361286D01*
X52068600Y-6121991D01*
X52068600Y-5878009D01*
X52131400Y-5878009D01*
X52131400Y-6121991D01*
X52178999Y-6361286D01*
X52272367Y-6586697D01*
X52407917Y-6789561D01*
X52580439Y-6962083D01*
X52783303Y-7097633D01*
X53008714Y-7191001D01*
X53248009Y-7238600D01*
X53491991Y-7238600D01*
X53731286Y-7191001D01*
X53956697Y-7097633D01*
X54159561Y-6962083D01*
X54332083Y-6789561D01*
X54467633Y-6586697D01*
X54561001Y-6361286D01*
X54608600Y-6121991D01*
X54608600Y-5878009D01*
X54671400Y-5878009D01*
X54671400Y-6121991D01*
X54718999Y-6361286D01*
X54812367Y-6586697D01*
X54947917Y-6789561D01*
X55120439Y-6962083D01*
X55323303Y-7097633D01*
X55548714Y-7191001D01*
X55788009Y-7238600D01*
X56031991Y-7238600D01*
X56271286Y-7191001D01*
X56496697Y-7097633D01*
X56699561Y-6962083D01*
X56872083Y-6789561D01*
X57007633Y-6586697D01*
X57101001Y-6361286D01*
X57148600Y-6121991D01*
X57148600Y-5878009D01*
X57101001Y-5638714D01*
X57007633Y-5413303D01*
X56872083Y-5210439D01*
X56798044Y-5136400D01*
X77759586Y-5136400D01*
X77759586Y-6863600D01*
X77766826Y-6937113D01*
X77788269Y-7007800D01*
X77823091Y-7072947D01*
X77869952Y-7130048D01*
X77927053Y-7176909D01*
X77992200Y-7211731D01*
X78062887Y-7233174D01*
X78136400Y-7240414D01*
X79863600Y-7240414D01*
X79937113Y-7233174D01*
X80007800Y-7211731D01*
X80072947Y-7176909D01*
X80130048Y-7130048D01*
X80176909Y-7072947D01*
X80211731Y-7007800D01*
X80233174Y-6937113D01*
X80240414Y-6863600D01*
X80240414Y-5878009D01*
X80301400Y-5878009D01*
X80301400Y-6121991D01*
X80348999Y-6361286D01*
X80442367Y-6586697D01*
X80577917Y-6789561D01*
X80750439Y-6962083D01*
X80953303Y-7097633D01*
X81178714Y-7191001D01*
X81418009Y-7238600D01*
X81661991Y-7238600D01*
X81901286Y-7191001D01*
X82126697Y-7097633D01*
X82329561Y-6962083D01*
X82502083Y-6789561D01*
X82637633Y-6586697D01*
X82731001Y-6361286D01*
X82739962Y-6316232D01*
X82882444Y-6316232D01*
X82967149Y-6543787D01*
X83094620Y-6750445D01*
X83259958Y-6928264D01*
X83456810Y-7070410D01*
X83677611Y-7171421D01*
X83763769Y-7197550D01*
X83955000Y-7138006D01*
X83955000Y-6125000D01*
X84205000Y-6125000D01*
X84205000Y-7138006D01*
X84396231Y-7197550D01*
X84482389Y-7171421D01*
X84703190Y-7070410D01*
X84900042Y-6928264D01*
X85065380Y-6750445D01*
X85192851Y-6543787D01*
X85277556Y-6316232D01*
X85218532Y-6125000D01*
X84205000Y-6125000D01*
X83955000Y-6125000D01*
X82941468Y-6125000D01*
X82882444Y-6316232D01*
X82739962Y-6316232D01*
X82778600Y-6121991D01*
X82778600Y-5878009D01*
X85381400Y-5878009D01*
X85381400Y-6121991D01*
X85428999Y-6361286D01*
X85522367Y-6586697D01*
X85657917Y-6789561D01*
X85830439Y-6962083D01*
X86033303Y-7097633D01*
X86258714Y-7191001D01*
X86498009Y-7238600D01*
X86741991Y-7238600D01*
X86981286Y-7191001D01*
X87206697Y-7097633D01*
X87409561Y-6962083D01*
X87582083Y-6789561D01*
X87717633Y-6586697D01*
X87811001Y-6361286D01*
X87858600Y-6121991D01*
X87858600Y-5878009D01*
X87921400Y-5878009D01*
X87921400Y-6121991D01*
X87968999Y-6361286D01*
X88062367Y-6586697D01*
X88197917Y-6789561D01*
X88370439Y-6962083D01*
X88573303Y-7097633D01*
X88798714Y-7191001D01*
X89038009Y-7238600D01*
X89281991Y-7238600D01*
X89521286Y-7191001D01*
X89746697Y-7097633D01*
X89949561Y-6962083D01*
X90122083Y-6789561D01*
X90257633Y-6586697D01*
X90351001Y-6361286D01*
X90398600Y-6121991D01*
X90398600Y-5878009D01*
X90351001Y-5638714D01*
X90257633Y-5413303D01*
X90122083Y-5210439D01*
X89949561Y-5037917D01*
X89746697Y-4902367D01*
X89521286Y-4808999D01*
X89281991Y-4761400D01*
X89038009Y-4761400D01*
X88798714Y-4808999D01*
X88573303Y-4902367D01*
X88370439Y-5037917D01*
X88197917Y-5210439D01*
X88062367Y-5413303D01*
X87968999Y-5638714D01*
X87921400Y-5878009D01*
X87858600Y-5878009D01*
X87811001Y-5638714D01*
X87717633Y-5413303D01*
X87582083Y-5210439D01*
X87409561Y-5037917D01*
X87206697Y-4902367D01*
X86981286Y-4808999D01*
X86741991Y-4761400D01*
X86498009Y-4761400D01*
X86258714Y-4808999D01*
X86033303Y-4902367D01*
X85830439Y-5037917D01*
X85657917Y-5210439D01*
X85522367Y-5413303D01*
X85428999Y-5638714D01*
X85381400Y-5878009D01*
X82778600Y-5878009D01*
X82739963Y-5683768D01*
X82882444Y-5683768D01*
X82941468Y-5875000D01*
X83955000Y-5875000D01*
X83955000Y-4861994D01*
X84205000Y-4861994D01*
X84205000Y-5875000D01*
X85218532Y-5875000D01*
X85277556Y-5683768D01*
X85192851Y-5456213D01*
X85065380Y-5249555D01*
X84900042Y-5071736D01*
X84703190Y-4929590D01*
X84482389Y-4828579D01*
X84396231Y-4802450D01*
X84205000Y-4861994D01*
X83955000Y-4861994D01*
X83763769Y-4802450D01*
X83677611Y-4828579D01*
X83456810Y-4929590D01*
X83259958Y-5071736D01*
X83094620Y-5249555D01*
X82967149Y-5456213D01*
X82882444Y-5683768D01*
X82739963Y-5683768D01*
X82731001Y-5638714D01*
X82637633Y-5413303D01*
X82502083Y-5210439D01*
X82329561Y-5037917D01*
X82126697Y-4902367D01*
X81901286Y-4808999D01*
X81661991Y-4761400D01*
X81418009Y-4761400D01*
X81178714Y-4808999D01*
X80953303Y-4902367D01*
X80750439Y-5037917D01*
X80577917Y-5210439D01*
X80442367Y-5413303D01*
X80348999Y-5638714D01*
X80301400Y-5878009D01*
X80240414Y-5878009D01*
X80240414Y-5136400D01*
X80233174Y-5062887D01*
X80211731Y-4992200D01*
X80176909Y-4927053D01*
X80130048Y-4869952D01*
X80072947Y-4823091D01*
X80007800Y-4788269D01*
X79937113Y-4766826D01*
X79863600Y-4759586D01*
X78136400Y-4759586D01*
X78062887Y-4766826D01*
X77992200Y-4788269D01*
X77927053Y-4823091D01*
X77869952Y-4869952D01*
X77823091Y-4927053D01*
X77788269Y-4992200D01*
X77766826Y-5062887D01*
X77759586Y-5136400D01*
X56798044Y-5136400D01*
X56699561Y-5037917D01*
X56496697Y-4902367D01*
X56271286Y-4808999D01*
X56031991Y-4761400D01*
X55788009Y-4761400D01*
X55548714Y-4808999D01*
X55323303Y-4902367D01*
X55120439Y-5037917D01*
X54947917Y-5210439D01*
X54812367Y-5413303D01*
X54718999Y-5638714D01*
X54671400Y-5878009D01*
X54608600Y-5878009D01*
X54561001Y-5638714D01*
X54467633Y-5413303D01*
X54332083Y-5210439D01*
X54159561Y-5037917D01*
X53956697Y-4902367D01*
X53731286Y-4808999D01*
X53491991Y-4761400D01*
X53248009Y-4761400D01*
X53008714Y-4808999D01*
X52783303Y-4902367D01*
X52580439Y-5037917D01*
X52407917Y-5210439D01*
X52272367Y-5413303D01*
X52178999Y-5638714D01*
X52131400Y-5878009D01*
X52068600Y-5878009D01*
X52021001Y-5638714D01*
X51927633Y-5413303D01*
X51792083Y-5210439D01*
X51619561Y-5037917D01*
X51416697Y-4902367D01*
X51191286Y-4808999D01*
X50951991Y-4761400D01*
X50708009Y-4761400D01*
X50468714Y-4808999D01*
X50243303Y-4902367D01*
X50040439Y-5037917D01*
X49867917Y-5210439D01*
X49732367Y-5413303D01*
X49638999Y-5638714D01*
X49591400Y-5878009D01*
X49528600Y-5878009D01*
X49481001Y-5638714D01*
X49387633Y-5413303D01*
X49252083Y-5210439D01*
X49079561Y-5037917D01*
X48876697Y-4902367D01*
X48651286Y-4808999D01*
X48411991Y-4761400D01*
X48168009Y-4761400D01*
X47928714Y-4808999D01*
X47703303Y-4902367D01*
X47500439Y-5037917D01*
X47327917Y-5210439D01*
X47192367Y-5413303D01*
X47098999Y-5638714D01*
X47051400Y-5878009D01*
X46990414Y-5878009D01*
X46990414Y-5136400D01*
X46983174Y-5062887D01*
X46961731Y-4992200D01*
X46926909Y-4927053D01*
X46880048Y-4869952D01*
X46822947Y-4823091D01*
X46757800Y-4788269D01*
X46687113Y-4766826D01*
X46613600Y-4759586D01*
X44886400Y-4759586D01*
X44812887Y-4766826D01*
X44742200Y-4788269D01*
X44677053Y-4823091D01*
X44619952Y-4869952D01*
X44573091Y-4927053D01*
X44538269Y-4992200D01*
X44516826Y-5062887D01*
X44509586Y-5136400D01*
X40625000Y-5136400D01*
X40625000Y-3776232D01*
X44552444Y-3776232D01*
X44637149Y-4003787D01*
X44764620Y-4210445D01*
X44929958Y-4388264D01*
X45126810Y-4530410D01*
X45347611Y-4631421D01*
X45433769Y-4657550D01*
X45625000Y-4598006D01*
X45625000Y-3585000D01*
X45875000Y-3585000D01*
X45875000Y-4598006D01*
X46066231Y-4657550D01*
X46152389Y-4631421D01*
X46373190Y-4530410D01*
X46570042Y-4388264D01*
X46735380Y-4210445D01*
X46862851Y-4003787D01*
X46947556Y-3776232D01*
X47092444Y-3776232D01*
X47177149Y-4003787D01*
X47304620Y-4210445D01*
X47469958Y-4388264D01*
X47666810Y-4530410D01*
X47887611Y-4631421D01*
X47973769Y-4657550D01*
X48165000Y-4598006D01*
X48165000Y-3585000D01*
X48415000Y-3585000D01*
X48415000Y-4598006D01*
X48606231Y-4657550D01*
X48692389Y-4631421D01*
X48913190Y-4530410D01*
X49110042Y-4388264D01*
X49275380Y-4210445D01*
X49402851Y-4003787D01*
X49487556Y-3776232D01*
X49632444Y-3776232D01*
X49717149Y-4003787D01*
X49844620Y-4210445D01*
X50009958Y-4388264D01*
X50206810Y-4530410D01*
X50427611Y-4631421D01*
X50513769Y-4657550D01*
X50705000Y-4598006D01*
X50705000Y-3585000D01*
X50955000Y-3585000D01*
X50955000Y-4598006D01*
X51146231Y-4657550D01*
X51232389Y-4631421D01*
X51453190Y-4530410D01*
X51650042Y-4388264D01*
X51815380Y-4210445D01*
X51942851Y-4003787D01*
X52027556Y-3776232D01*
X52172444Y-3776232D01*
X52257149Y-4003787D01*
X52384620Y-4210445D01*
X52549958Y-4388264D01*
X52746810Y-4530410D01*
X52967611Y-4631421D01*
X53053769Y-4657550D01*
X53245000Y-4598006D01*
X53245000Y-3585000D01*
X53495000Y-3585000D01*
X53495000Y-4598006D01*
X53686231Y-4657550D01*
X53772389Y-4631421D01*
X53993190Y-4530410D01*
X54190042Y-4388264D01*
X54355380Y-4210445D01*
X54482851Y-4003787D01*
X54567556Y-3776232D01*
X54712444Y-3776232D01*
X54797149Y-4003787D01*
X54924620Y-4210445D01*
X55089958Y-4388264D01*
X55286810Y-4530410D01*
X55507611Y-4631421D01*
X55593769Y-4657550D01*
X55785000Y-4598006D01*
X55785000Y-3585000D01*
X56035000Y-3585000D01*
X56035000Y-4598006D01*
X56226231Y-4657550D01*
X56312389Y-4631421D01*
X56533190Y-4530410D01*
X56730042Y-4388264D01*
X56895380Y-4210445D01*
X57022851Y-4003787D01*
X57107556Y-3776232D01*
X57048532Y-3585000D01*
X56035000Y-3585000D01*
X55785000Y-3585000D01*
X54771468Y-3585000D01*
X54712444Y-3776232D01*
X54567556Y-3776232D01*
X54508532Y-3585000D01*
X53495000Y-3585000D01*
X53245000Y-3585000D01*
X52231468Y-3585000D01*
X52172444Y-3776232D01*
X52027556Y-3776232D01*
X51968532Y-3585000D01*
X50955000Y-3585000D01*
X50705000Y-3585000D01*
X49691468Y-3585000D01*
X49632444Y-3776232D01*
X49487556Y-3776232D01*
X49428532Y-3585000D01*
X48415000Y-3585000D01*
X48165000Y-3585000D01*
X47151468Y-3585000D01*
X47092444Y-3776232D01*
X46947556Y-3776232D01*
X46888532Y-3585000D01*
X45875000Y-3585000D01*
X45625000Y-3585000D01*
X44611468Y-3585000D01*
X44552444Y-3776232D01*
X40625000Y-3776232D01*
X40625000Y-3338009D01*
X77761400Y-3338009D01*
X77761400Y-3581991D01*
X77808999Y-3821286D01*
X77902367Y-4046697D01*
X78037917Y-4249561D01*
X78210439Y-4422083D01*
X78413303Y-4557633D01*
X78638714Y-4651001D01*
X78878009Y-4698600D01*
X79121991Y-4698600D01*
X79361286Y-4651001D01*
X79586697Y-4557633D01*
X79789561Y-4422083D01*
X79962083Y-4249561D01*
X80097633Y-4046697D01*
X80191001Y-3821286D01*
X80238600Y-3581991D01*
X80238600Y-3338009D01*
X80301400Y-3338009D01*
X80301400Y-3581991D01*
X80348999Y-3821286D01*
X80442367Y-4046697D01*
X80577917Y-4249561D01*
X80750439Y-4422083D01*
X80953303Y-4557633D01*
X81178714Y-4651001D01*
X81418009Y-4698600D01*
X81661991Y-4698600D01*
X81901286Y-4651001D01*
X82126697Y-4557633D01*
X82329561Y-4422083D01*
X82502083Y-4249561D01*
X82637633Y-4046697D01*
X82731001Y-3821286D01*
X82778600Y-3581991D01*
X82778600Y-3338009D01*
X82841400Y-3338009D01*
X82841400Y-3581991D01*
X82888999Y-3821286D01*
X82982367Y-4046697D01*
X83117917Y-4249561D01*
X83290439Y-4422083D01*
X83493303Y-4557633D01*
X83718714Y-4651001D01*
X83958009Y-4698600D01*
X84201991Y-4698600D01*
X84441286Y-4651001D01*
X84666697Y-4557633D01*
X84869561Y-4422083D01*
X85042083Y-4249561D01*
X85177633Y-4046697D01*
X85271001Y-3821286D01*
X85318600Y-3581991D01*
X85318600Y-3338009D01*
X85381400Y-3338009D01*
X85381400Y-3581991D01*
X85428999Y-3821286D01*
X85522367Y-4046697D01*
X85657917Y-4249561D01*
X85830439Y-4422083D01*
X86033303Y-4557633D01*
X86258714Y-4651001D01*
X86498009Y-4698600D01*
X86741991Y-4698600D01*
X86981286Y-4651001D01*
X87206697Y-4557633D01*
X87409561Y-4422083D01*
X87582083Y-4249561D01*
X87717633Y-4046697D01*
X87811001Y-3821286D01*
X87858600Y-3581991D01*
X87858600Y-3338009D01*
X87921400Y-3338009D01*
X87921400Y-3581991D01*
X87968999Y-3821286D01*
X88062367Y-4046697D01*
X88197917Y-4249561D01*
X88370439Y-4422083D01*
X88573303Y-4557633D01*
X88798714Y-4651001D01*
X89038009Y-4698600D01*
X89281991Y-4698600D01*
X89521286Y-4651001D01*
X89746697Y-4557633D01*
X89949561Y-4422083D01*
X90122083Y-4249561D01*
X90257633Y-4046697D01*
X90351001Y-3821286D01*
X90398600Y-3581991D01*
X90398600Y-3338009D01*
X90351001Y-3098714D01*
X90257633Y-2873303D01*
X90122083Y-2670439D01*
X89949561Y-2497917D01*
X89746697Y-2362367D01*
X89521286Y-2268999D01*
X89281991Y-2221400D01*
X89038009Y-2221400D01*
X88798714Y-2268999D01*
X88573303Y-2362367D01*
X88370439Y-2497917D01*
X88197917Y-2670439D01*
X88062367Y-2873303D01*
X87968999Y-3098714D01*
X87921400Y-3338009D01*
X87858600Y-3338009D01*
X87811001Y-3098714D01*
X87717633Y-2873303D01*
X87582083Y-2670439D01*
X87409561Y-2497917D01*
X87206697Y-2362367D01*
X86981286Y-2268999D01*
X86741991Y-2221400D01*
X86498009Y-2221400D01*
X86258714Y-2268999D01*
X86033303Y-2362367D01*
X85830439Y-2497917D01*
X85657917Y-2670439D01*
X85522367Y-2873303D01*
X85428999Y-3098714D01*
X85381400Y-3338009D01*
X85318600Y-3338009D01*
X85271001Y-3098714D01*
X85177633Y-2873303D01*
X85042083Y-2670439D01*
X84869561Y-2497917D01*
X84666697Y-2362367D01*
X84441286Y-2268999D01*
X84201991Y-2221400D01*
X83958009Y-2221400D01*
X83718714Y-2268999D01*
X83493303Y-2362367D01*
X83290439Y-2497917D01*
X83117917Y-2670439D01*
X82982367Y-2873303D01*
X82888999Y-3098714D01*
X82841400Y-3338009D01*
X82778600Y-3338009D01*
X82731001Y-3098714D01*
X82637633Y-2873303D01*
X82502083Y-2670439D01*
X82329561Y-2497917D01*
X82126697Y-2362367D01*
X81901286Y-2268999D01*
X81661991Y-2221400D01*
X81418009Y-2221400D01*
X81178714Y-2268999D01*
X80953303Y-2362367D01*
X80750439Y-2497917D01*
X80577917Y-2670439D01*
X80442367Y-2873303D01*
X80348999Y-3098714D01*
X80301400Y-3338009D01*
X80238600Y-3338009D01*
X80191001Y-3098714D01*
X80097633Y-2873303D01*
X79962083Y-2670439D01*
X79789561Y-2497917D01*
X79586697Y-2362367D01*
X79361286Y-2268999D01*
X79121991Y-2221400D01*
X78878009Y-2221400D01*
X78638714Y-2268999D01*
X78413303Y-2362367D01*
X78210439Y-2497917D01*
X78037917Y-2670439D01*
X77902367Y-2873303D01*
X77808999Y-3098714D01*
X77761400Y-3338009D01*
X40625000Y-3338009D01*
X40625000Y-3143768D01*
X44552444Y-3143768D01*
X44611468Y-3335000D01*
X45625000Y-3335000D01*
X45625000Y-2321994D01*
X45875000Y-2321994D01*
X45875000Y-3335000D01*
X46888532Y-3335000D01*
X46947556Y-3143768D01*
X47092444Y-3143768D01*
X47151468Y-3335000D01*
X48165000Y-3335000D01*
X48165000Y-2321994D01*
X48415000Y-2321994D01*
X48415000Y-3335000D01*
X49428532Y-3335000D01*
X49487556Y-3143768D01*
X49632444Y-3143768D01*
X49691468Y-3335000D01*
X50705000Y-3335000D01*
X50705000Y-2321994D01*
X50955000Y-2321994D01*
X50955000Y-3335000D01*
X51968532Y-3335000D01*
X52027556Y-3143768D01*
X52172444Y-3143768D01*
X52231468Y-3335000D01*
X53245000Y-3335000D01*
X53245000Y-2321994D01*
X53495000Y-2321994D01*
X53495000Y-3335000D01*
X54508532Y-3335000D01*
X54567556Y-3143768D01*
X54712444Y-3143768D01*
X54771468Y-3335000D01*
X55785000Y-3335000D01*
X55785000Y-2321994D01*
X56035000Y-2321994D01*
X56035000Y-3335000D01*
X57048532Y-3335000D01*
X57107556Y-3143768D01*
X57022851Y-2916213D01*
X56895380Y-2709555D01*
X56730042Y-2531736D01*
X56533190Y-2389590D01*
X56312389Y-2288579D01*
X56226231Y-2262450D01*
X56035000Y-2321994D01*
X55785000Y-2321994D01*
X55593769Y-2262450D01*
X55507611Y-2288579D01*
X55286810Y-2389590D01*
X55089958Y-2531736D01*
X54924620Y-2709555D01*
X54797149Y-2916213D01*
X54712444Y-3143768D01*
X54567556Y-3143768D01*
X54482851Y-2916213D01*
X54355380Y-2709555D01*
X54190042Y-2531736D01*
X53993190Y-2389590D01*
X53772389Y-2288579D01*
X53686231Y-2262450D01*
X53495000Y-2321994D01*
X53245000Y-2321994D01*
X53053769Y-2262450D01*
X52967611Y-2288579D01*
X52746810Y-2389590D01*
X52549958Y-2531736D01*
X52384620Y-2709555D01*
X52257149Y-2916213D01*
X52172444Y-3143768D01*
X52027556Y-3143768D01*
X51942851Y-2916213D01*
X51815380Y-2709555D01*
X51650042Y-2531736D01*
X51453190Y-2389590D01*
X51232389Y-2288579D01*
X51146231Y-2262450D01*
X50955000Y-2321994D01*
X50705000Y-2321994D01*
X50513769Y-2262450D01*
X50427611Y-2288579D01*
X50206810Y-2389590D01*
X50009958Y-2531736D01*
X49844620Y-2709555D01*
X49717149Y-2916213D01*
X49632444Y-3143768D01*
X49487556Y-3143768D01*
X49402851Y-2916213D01*
X49275380Y-2709555D01*
X49110042Y-2531736D01*
X48913190Y-2389590D01*
X48692389Y-2288579D01*
X48606231Y-2262450D01*
X48415000Y-2321994D01*
X48165000Y-2321994D01*
X47973769Y-2262450D01*
X47887611Y-2288579D01*
X47666810Y-2389590D01*
X47469958Y-2531736D01*
X47304620Y-2709555D01*
X47177149Y-2916213D01*
X47092444Y-3143768D01*
X46947556Y-3143768D01*
X46862851Y-2916213D01*
X46735380Y-2709555D01*
X46570042Y-2531736D01*
X46373190Y-2389590D01*
X46152389Y-2288579D01*
X46066231Y-2262450D01*
X45875000Y-2321994D01*
X45625000Y-2321994D01*
X45433769Y-2262450D01*
X45347611Y-2288579D01*
X45126810Y-2389590D01*
X44929958Y-2531736D01*
X44764620Y-2709555D01*
X44637149Y-2916213D01*
X44552444Y-3143768D01*
X40625000Y-3143768D01*
X40625000Y-400000D01*
X94375000Y-400000D01*
X94375000Y-39875000D01*
G04 #@! TA.AperFunction,Conductor*
D22*
G36*
X94375000Y-39875000D02*
G01*
X40625000Y-39875000D01*
X40625000Y-30375000D01*
X42217780Y-30375000D01*
X42320883Y-30379834D01*
X42588714Y-30339492D01*
X42843527Y-30247674D01*
X42957658Y-30186670D01*
X43067997Y-29994774D01*
X42625000Y-29551777D01*
X42625000Y-29198223D01*
X43244774Y-29817997D01*
X43436670Y-29707658D01*
X43551926Y-29462552D01*
X43617149Y-29199671D01*
X43629834Y-28929117D01*
X43589492Y-28661286D01*
X43497674Y-28406473D01*
X43436670Y-28292342D01*
X43244774Y-28182003D01*
X42625000Y-28801777D01*
X42625000Y-28448223D01*
X43067997Y-28005226D01*
X42957658Y-27813330D01*
X42712552Y-27698074D01*
X42449671Y-27632851D01*
X42179117Y-27620166D01*
X42147024Y-27625000D01*
X40625000Y-27625000D01*
X40625000Y-24400000D01*
X41023186Y-24400000D01*
X41023186Y-26100000D01*
X41030426Y-26173513D01*
X41051869Y-26244200D01*
X41086691Y-26309347D01*
X41133552Y-26366448D01*
X41190653Y-26413309D01*
X41255800Y-26448131D01*
X41326487Y-26469574D01*
X41400000Y-26476814D01*
X43100000Y-26476814D01*
X43173513Y-26469574D01*
X43244200Y-26448131D01*
X43309347Y-26413309D01*
X43366448Y-26366448D01*
X43413309Y-26309347D01*
X43448131Y-26244200D01*
X43469574Y-26173513D01*
X43476814Y-26100000D01*
X43476814Y-24400000D01*
X43469574Y-24326487D01*
X43448131Y-24255800D01*
X43413309Y-24190653D01*
X43366448Y-24133552D01*
X43309347Y-24086691D01*
X43244200Y-24051869D01*
X43173513Y-24030426D01*
X43100000Y-24023186D01*
X41400000Y-24023186D01*
X41326487Y-24030426D01*
X41255800Y-24051869D01*
X41190653Y-24086691D01*
X41133552Y-24133552D01*
X41086691Y-24190653D01*
X41051869Y-24255800D01*
X41030426Y-24326487D01*
X41023186Y-24400000D01*
X40625000Y-24400000D01*
X40625000Y-23024093D01*
X41065951Y-23024093D01*
X41090993Y-23106667D01*
X41190649Y-23325156D01*
X41331015Y-23520005D01*
X41506697Y-23683726D01*
X41710944Y-23810027D01*
X41935906Y-23894055D01*
X42125000Y-23834862D01*
X42125000Y-22835000D01*
X42375000Y-22835000D01*
X42375000Y-23834862D01*
X42564094Y-23894055D01*
X42789056Y-23810027D01*
X42993303Y-23683726D01*
X43168985Y-23520005D01*
X43309351Y-23325156D01*
X43409007Y-23106667D01*
X43434049Y-23024093D01*
X43374323Y-22835000D01*
X42375000Y-22835000D01*
X42125000Y-22835000D01*
X41125677Y-22835000D01*
X41065951Y-23024093D01*
X40625000Y-23024093D01*
X40625000Y-22395907D01*
X41065951Y-22395907D01*
X41125677Y-22585000D01*
X42125000Y-22585000D01*
X42125000Y-21585138D01*
X42375000Y-21585138D01*
X42375000Y-22585000D01*
X43374323Y-22585000D01*
X43434049Y-22395907D01*
X43409007Y-22313333D01*
X43309351Y-22094844D01*
X43168985Y-21899995D01*
X42993303Y-21736274D01*
X42789056Y-21609973D01*
X42564094Y-21525945D01*
X42375000Y-21585138D01*
X42125000Y-21585138D01*
X41935906Y-21525945D01*
X41710944Y-21609973D01*
X41506697Y-21736274D01*
X41331015Y-21899995D01*
X41190649Y-22094844D01*
X41090993Y-22313333D01*
X41065951Y-22395907D01*
X40625000Y-22395907D01*
X40625000Y-17629348D01*
X40985000Y-17629348D01*
X40985000Y-17870652D01*
X41032076Y-18107319D01*
X41124419Y-18330255D01*
X41258481Y-18530892D01*
X41429108Y-18701519D01*
X41629745Y-18835581D01*
X41852681Y-18927924D01*
X42089348Y-18975000D01*
X42330652Y-18975000D01*
X42567319Y-18927924D01*
X42790255Y-18835581D01*
X42990892Y-18701519D01*
X43161519Y-18530892D01*
X43295581Y-18330255D01*
X43387924Y-18107319D01*
X43435000Y-17870652D01*
X43435000Y-17629348D01*
X43387924Y-17392681D01*
X43295581Y-17169745D01*
X43161519Y-16969108D01*
X43092411Y-16900000D01*
X43523186Y-16900000D01*
X43523186Y-18600000D01*
X43530426Y-18673513D01*
X43551869Y-18744200D01*
X43586691Y-18809347D01*
X43633552Y-18866448D01*
X43690653Y-18913309D01*
X43755800Y-18948131D01*
X43826487Y-18969574D01*
X43900000Y-18976814D01*
X45600000Y-18976814D01*
X45673513Y-18969574D01*
X45744200Y-18948131D01*
X45809347Y-18913309D01*
X45866448Y-18866448D01*
X45913309Y-18809347D01*
X45948131Y-18744200D01*
X45969574Y-18673513D01*
X45976814Y-18600000D01*
X45976814Y-16900000D01*
X45969574Y-16826487D01*
X45948131Y-16755800D01*
X45913309Y-16690653D01*
X45866448Y-16633552D01*
X45809347Y-16586691D01*
X45744200Y-16551869D01*
X45673513Y-16530426D01*
X45600000Y-16523186D01*
X43900000Y-16523186D01*
X43826487Y-16530426D01*
X43755800Y-16551869D01*
X43690653Y-16586691D01*
X43633552Y-16633552D01*
X43586691Y-16690653D01*
X43551869Y-16755800D01*
X43530426Y-16826487D01*
X43523186Y-16900000D01*
X43092411Y-16900000D01*
X42990892Y-16798481D01*
X42790255Y-16664419D01*
X42567319Y-16572076D01*
X42330652Y-16525000D01*
X42089348Y-16525000D01*
X41852681Y-16572076D01*
X41629745Y-16664419D01*
X41429108Y-16798481D01*
X41258481Y-16969108D01*
X41124419Y-17169745D01*
X41032076Y-17392681D01*
X40985000Y-17629348D01*
X40625000Y-17629348D01*
X40625000Y-16465685D01*
X45997581Y-16465685D01*
X46000000Y-16490245D01*
X46000001Y-21375430D01*
X45997581Y-21400000D01*
X46007235Y-21498017D01*
X46029147Y-21570249D01*
X46035826Y-21592267D01*
X46082255Y-21679129D01*
X46144737Y-21755264D01*
X46163819Y-21770924D01*
X48600000Y-24207107D01*
X48600001Y-26703983D01*
X48598018Y-26705966D01*
X48513204Y-26832900D01*
X48454783Y-26973941D01*
X48425000Y-27123669D01*
X48425000Y-27276331D01*
X48454783Y-27426059D01*
X48513204Y-27567100D01*
X48598018Y-27694034D01*
X48705966Y-27801982D01*
X48832900Y-27886796D01*
X48973941Y-27945217D01*
X49123669Y-27975000D01*
X49276331Y-27975000D01*
X49426059Y-27945217D01*
X49567100Y-27886796D01*
X49694034Y-27801982D01*
X49801982Y-27694034D01*
X49886796Y-27567100D01*
X49945217Y-27426059D01*
X49975000Y-27276331D01*
X49975000Y-27123669D01*
X49945217Y-26973941D01*
X49886796Y-26832900D01*
X49801982Y-26705966D01*
X49694034Y-26598018D01*
X49600000Y-26535187D01*
X49600000Y-26325564D01*
X49633552Y-26366448D01*
X49690653Y-26413309D01*
X49755800Y-26448131D01*
X49826487Y-26469574D01*
X49900000Y-26476814D01*
X51600000Y-26476814D01*
X51673513Y-26469574D01*
X51744200Y-26448131D01*
X51809347Y-26413309D01*
X51866448Y-26366448D01*
X51913309Y-26309347D01*
X51948131Y-26244200D01*
X51969574Y-26173513D01*
X51976814Y-26100000D01*
X51976814Y-25129348D01*
X52065000Y-25129348D01*
X52065000Y-25370652D01*
X52112076Y-25607319D01*
X52204419Y-25830255D01*
X52338481Y-26030892D01*
X52509108Y-26201519D01*
X52709745Y-26335581D01*
X52932681Y-26427924D01*
X53169348Y-26475000D01*
X53410652Y-26475000D01*
X53647319Y-26427924D01*
X53870255Y-26335581D01*
X54070892Y-26201519D01*
X54241519Y-26030892D01*
X54375581Y-25830255D01*
X54467924Y-25607319D01*
X54515000Y-25370652D01*
X54515000Y-25129348D01*
X54605000Y-25129348D01*
X54605000Y-25370652D01*
X54652076Y-25607319D01*
X54744419Y-25830255D01*
X54878481Y-26030892D01*
X55049108Y-26201519D01*
X55249745Y-26335581D01*
X55472681Y-26427924D01*
X55709348Y-26475000D01*
X55950652Y-26475000D01*
X56187319Y-26427924D01*
X56410255Y-26335581D01*
X56610892Y-26201519D01*
X56781519Y-26030892D01*
X56915581Y-25830255D01*
X57007924Y-25607319D01*
X57055000Y-25370652D01*
X57055000Y-25129348D01*
X57145000Y-25129348D01*
X57145000Y-25370652D01*
X57192076Y-25607319D01*
X57284419Y-25830255D01*
X57418481Y-26030892D01*
X57589108Y-26201519D01*
X57789745Y-26335581D01*
X58012681Y-26427924D01*
X58249348Y-26475000D01*
X58490652Y-26475000D01*
X58727319Y-26427924D01*
X58950255Y-26335581D01*
X59150892Y-26201519D01*
X59321519Y-26030892D01*
X59455581Y-25830255D01*
X59547924Y-25607319D01*
X59595000Y-25370652D01*
X59595000Y-25129348D01*
X59685000Y-25129348D01*
X59685000Y-25370652D01*
X59732076Y-25607319D01*
X59824419Y-25830255D01*
X59958481Y-26030892D01*
X60129108Y-26201519D01*
X60329745Y-26335581D01*
X60552681Y-26427924D01*
X60789348Y-26475000D01*
X61030652Y-26475000D01*
X61267319Y-26427924D01*
X61490255Y-26335581D01*
X61690892Y-26201519D01*
X61861519Y-26030892D01*
X61995581Y-25830255D01*
X62087924Y-25607319D01*
X62135000Y-25370652D01*
X62135000Y-25129348D01*
X62087924Y-24892681D01*
X61995581Y-24669745D01*
X61861519Y-24469108D01*
X61690892Y-24298481D01*
X61490255Y-24164419D01*
X61267319Y-24072076D01*
X61030652Y-24025000D01*
X60789348Y-24025000D01*
X60552681Y-24072076D01*
X60329745Y-24164419D01*
X60129108Y-24298481D01*
X59958481Y-24469108D01*
X59824419Y-24669745D01*
X59732076Y-24892681D01*
X59685000Y-25129348D01*
X59595000Y-25129348D01*
X59547924Y-24892681D01*
X59455581Y-24669745D01*
X59321519Y-24469108D01*
X59150892Y-24298481D01*
X58950255Y-24164419D01*
X58727319Y-24072076D01*
X58490652Y-24025000D01*
X58249348Y-24025000D01*
X58012681Y-24072076D01*
X57789745Y-24164419D01*
X57589108Y-24298481D01*
X57418481Y-24469108D01*
X57284419Y-24669745D01*
X57192076Y-24892681D01*
X57145000Y-25129348D01*
X57055000Y-25129348D01*
X57007924Y-24892681D01*
X56915581Y-24669745D01*
X56781519Y-24469108D01*
X56610892Y-24298481D01*
X56410255Y-24164419D01*
X56187319Y-24072076D01*
X55950652Y-24025000D01*
X55709348Y-24025000D01*
X55472681Y-24072076D01*
X55249745Y-24164419D01*
X55049108Y-24298481D01*
X54878481Y-24469108D01*
X54744419Y-24669745D01*
X54652076Y-24892681D01*
X54605000Y-25129348D01*
X54515000Y-25129348D01*
X54467924Y-24892681D01*
X54375581Y-24669745D01*
X54241519Y-24469108D01*
X54070892Y-24298481D01*
X53870255Y-24164419D01*
X53647319Y-24072076D01*
X53410652Y-24025000D01*
X53169348Y-24025000D01*
X52932681Y-24072076D01*
X52709745Y-24164419D01*
X52509108Y-24298481D01*
X52338481Y-24469108D01*
X52204419Y-24669745D01*
X52112076Y-24892681D01*
X52065000Y-25129348D01*
X51976814Y-25129348D01*
X51976814Y-24400000D01*
X51969574Y-24326487D01*
X51948131Y-24255800D01*
X51913309Y-24190653D01*
X51866448Y-24133552D01*
X51809347Y-24086691D01*
X51744200Y-24051869D01*
X51673513Y-24030426D01*
X51600000Y-24023186D01*
X49900000Y-24023186D01*
X49826487Y-24030426D01*
X49755800Y-24051869D01*
X49690653Y-24086691D01*
X49633552Y-24133552D01*
X49600000Y-24174436D01*
X49600000Y-24024549D01*
X49602418Y-23999999D01*
X49600000Y-23975449D01*
X49600000Y-23975440D01*
X49592765Y-23901983D01*
X49564175Y-23807733D01*
X49517746Y-23720871D01*
X49455264Y-23644736D01*
X49436187Y-23629080D01*
X48831201Y-23024094D01*
X49565945Y-23024094D01*
X49649973Y-23249056D01*
X49776274Y-23453303D01*
X49939995Y-23628985D01*
X50134844Y-23769351D01*
X50353333Y-23869007D01*
X50435907Y-23894049D01*
X50625000Y-23834323D01*
X50625000Y-22835000D01*
X50875000Y-22835000D01*
X50875000Y-23834323D01*
X51064093Y-23894049D01*
X51146667Y-23869007D01*
X51365156Y-23769351D01*
X51560005Y-23628985D01*
X51723726Y-23453303D01*
X51850027Y-23249056D01*
X51934055Y-23024094D01*
X52105945Y-23024094D01*
X52189973Y-23249056D01*
X52316274Y-23453303D01*
X52479995Y-23628985D01*
X52674844Y-23769351D01*
X52893333Y-23869007D01*
X52975907Y-23894049D01*
X53165000Y-23834323D01*
X53165000Y-22835000D01*
X53415000Y-22835000D01*
X53415000Y-23834323D01*
X53604093Y-23894049D01*
X53686667Y-23869007D01*
X53905156Y-23769351D01*
X54100005Y-23628985D01*
X54263726Y-23453303D01*
X54390027Y-23249056D01*
X54474055Y-23024094D01*
X54645945Y-23024094D01*
X54729973Y-23249056D01*
X54856274Y-23453303D01*
X55019995Y-23628985D01*
X55214844Y-23769351D01*
X55433333Y-23869007D01*
X55515907Y-23894049D01*
X55705000Y-23834323D01*
X55705000Y-22835000D01*
X55955000Y-22835000D01*
X55955000Y-23834323D01*
X56144093Y-23894049D01*
X56226667Y-23869007D01*
X56445156Y-23769351D01*
X56640005Y-23628985D01*
X56803726Y-23453303D01*
X56930027Y-23249056D01*
X57014055Y-23024094D01*
X57185945Y-23024094D01*
X57269973Y-23249056D01*
X57396274Y-23453303D01*
X57559995Y-23628985D01*
X57754844Y-23769351D01*
X57973333Y-23869007D01*
X58055907Y-23894049D01*
X58245000Y-23834323D01*
X58245000Y-22835000D01*
X58495000Y-22835000D01*
X58495000Y-23834323D01*
X58684093Y-23894049D01*
X58766667Y-23869007D01*
X58985156Y-23769351D01*
X59180005Y-23628985D01*
X59343726Y-23453303D01*
X59470027Y-23249056D01*
X59554055Y-23024094D01*
X59725945Y-23024094D01*
X59809973Y-23249056D01*
X59936274Y-23453303D01*
X60099995Y-23628985D01*
X60294844Y-23769351D01*
X60513333Y-23869007D01*
X60595907Y-23894049D01*
X60785000Y-23834323D01*
X60785000Y-22835000D01*
X61035000Y-22835000D01*
X61035000Y-23834323D01*
X61224093Y-23894049D01*
X61306667Y-23869007D01*
X61525156Y-23769351D01*
X61720005Y-23628985D01*
X61883726Y-23453303D01*
X62010027Y-23249056D01*
X62094055Y-23024094D01*
X62034862Y-22835000D01*
X61035000Y-22835000D01*
X60785000Y-22835000D01*
X59785138Y-22835000D01*
X59725945Y-23024094D01*
X59554055Y-23024094D01*
X59494862Y-22835000D01*
X58495000Y-22835000D01*
X58245000Y-22835000D01*
X57245138Y-22835000D01*
X57185945Y-23024094D01*
X57014055Y-23024094D01*
X56954862Y-22835000D01*
X55955000Y-22835000D01*
X55705000Y-22835000D01*
X54705138Y-22835000D01*
X54645945Y-23024094D01*
X54474055Y-23024094D01*
X54414862Y-22835000D01*
X53415000Y-22835000D01*
X53165000Y-22835000D01*
X52165138Y-22835000D01*
X52105945Y-23024094D01*
X51934055Y-23024094D01*
X51874862Y-22835000D01*
X50875000Y-22835000D01*
X50625000Y-22835000D01*
X49625138Y-22835000D01*
X49565945Y-23024094D01*
X48831201Y-23024094D01*
X47381147Y-21574042D01*
X47526059Y-21545217D01*
X47667100Y-21486796D01*
X47794034Y-21401982D01*
X47901982Y-21294034D01*
X47986796Y-21167100D01*
X48045217Y-21026059D01*
X48075000Y-20876331D01*
X48075000Y-20859579D01*
X48098022Y-20894034D01*
X48205970Y-21001982D01*
X48332904Y-21086796D01*
X48473945Y-21145217D01*
X48623673Y-21175000D01*
X48776335Y-21175000D01*
X48926063Y-21145217D01*
X49067104Y-21086796D01*
X49194038Y-21001982D01*
X49225000Y-20971020D01*
X49225000Y-20976331D01*
X49254783Y-21126059D01*
X49313204Y-21267100D01*
X49398018Y-21394034D01*
X49505966Y-21501982D01*
X49632900Y-21586796D01*
X49773941Y-21645217D01*
X49923669Y-21675000D01*
X50076331Y-21675000D01*
X50110467Y-21668210D01*
X49939995Y-21791015D01*
X49776274Y-21966697D01*
X49649973Y-22170944D01*
X49565945Y-22395906D01*
X49625138Y-22585000D01*
X50625000Y-22585000D01*
X50625000Y-21585677D01*
X50451018Y-21530724D01*
X50494034Y-21501982D01*
X50601982Y-21394034D01*
X50675044Y-21284688D01*
X50698014Y-21319066D01*
X50805962Y-21427014D01*
X50932896Y-21511828D01*
X51009002Y-21543352D01*
X50875000Y-21585677D01*
X50875000Y-22585000D01*
X51874862Y-22585000D01*
X51934055Y-22395906D01*
X52105945Y-22395906D01*
X52165138Y-22585000D01*
X53165000Y-22585000D01*
X53165000Y-21585677D01*
X53415000Y-21585677D01*
X53415000Y-22585000D01*
X54414862Y-22585000D01*
X54474055Y-22395906D01*
X54645945Y-22395906D01*
X54705138Y-22585000D01*
X55705000Y-22585000D01*
X55705000Y-21585677D01*
X55955000Y-21585677D01*
X55955000Y-22585000D01*
X56954862Y-22585000D01*
X57014055Y-22395906D01*
X57185945Y-22395906D01*
X57245138Y-22585000D01*
X58245000Y-22585000D01*
X58245000Y-21585677D01*
X58495000Y-21585677D01*
X58495000Y-22585000D01*
X59494862Y-22585000D01*
X59554055Y-22395906D01*
X59725945Y-22395906D01*
X59785138Y-22585000D01*
X60785000Y-22585000D01*
X60785000Y-21585677D01*
X61035000Y-21585677D01*
X61035000Y-22585000D01*
X62034862Y-22585000D01*
X62094055Y-22395906D01*
X62010027Y-22170944D01*
X61883726Y-21966697D01*
X61720005Y-21791015D01*
X61525156Y-21650649D01*
X61306667Y-21550993D01*
X61224093Y-21525951D01*
X61035000Y-21585677D01*
X60785000Y-21585677D01*
X60595907Y-21525951D01*
X60513333Y-21550993D01*
X60294844Y-21650649D01*
X60099995Y-21791015D01*
X59936274Y-21966697D01*
X59809973Y-22170944D01*
X59725945Y-22395906D01*
X59554055Y-22395906D01*
X59470027Y-22170944D01*
X59343726Y-21966697D01*
X59180005Y-21791015D01*
X58985156Y-21650649D01*
X58766667Y-21550993D01*
X58684093Y-21525951D01*
X58495000Y-21585677D01*
X58245000Y-21585677D01*
X58055907Y-21525951D01*
X57973333Y-21550993D01*
X57754844Y-21650649D01*
X57559995Y-21791015D01*
X57396274Y-21966697D01*
X57269973Y-22170944D01*
X57185945Y-22395906D01*
X57014055Y-22395906D01*
X56930027Y-22170944D01*
X56803726Y-21966697D01*
X56640005Y-21791015D01*
X56445156Y-21650649D01*
X56226667Y-21550993D01*
X56144093Y-21525951D01*
X55955000Y-21585677D01*
X55705000Y-21585677D01*
X55515907Y-21525951D01*
X55433333Y-21550993D01*
X55214844Y-21650649D01*
X55019995Y-21791015D01*
X54856274Y-21966697D01*
X54729973Y-22170944D01*
X54645945Y-22395906D01*
X54474055Y-22395906D01*
X54390027Y-22170944D01*
X54263726Y-21966697D01*
X54100005Y-21791015D01*
X53905156Y-21650649D01*
X53686667Y-21550993D01*
X53604093Y-21525951D01*
X53415000Y-21585677D01*
X53165000Y-21585677D01*
X52975907Y-21525951D01*
X52893333Y-21550993D01*
X52674844Y-21650649D01*
X52479995Y-21791015D01*
X52316274Y-21966697D01*
X52189973Y-22170944D01*
X52105945Y-22395906D01*
X51934055Y-22395906D01*
X51850027Y-22170944D01*
X51723726Y-21966697D01*
X51560005Y-21791015D01*
X51365156Y-21650649D01*
X51254182Y-21600032D01*
X51376327Y-21600032D01*
X51526055Y-21570249D01*
X51667096Y-21511828D01*
X51794030Y-21427014D01*
X51901978Y-21319066D01*
X51986792Y-21192132D01*
X52045213Y-21051091D01*
X52074996Y-20901363D01*
X52074996Y-20748701D01*
X52045213Y-20598973D01*
X51986792Y-20457932D01*
X51901978Y-20330998D01*
X51794030Y-20223050D01*
X51750000Y-20193630D01*
X51750000Y-18976814D01*
X52100000Y-18976814D01*
X52173513Y-18969574D01*
X52244200Y-18948131D01*
X52309347Y-18913309D01*
X52366448Y-18866448D01*
X52413309Y-18809347D01*
X52448131Y-18744200D01*
X52469574Y-18673513D01*
X52476814Y-18600000D01*
X52476814Y-16900000D01*
X52469574Y-16826487D01*
X52448131Y-16755800D01*
X52413309Y-16690653D01*
X52366448Y-16633552D01*
X52309347Y-16586691D01*
X52244200Y-16551869D01*
X52173513Y-16530426D01*
X52100000Y-16523186D01*
X50643919Y-16523186D01*
X50812425Y-16354681D01*
X50892681Y-16387924D01*
X51129348Y-16435000D01*
X51370652Y-16435000D01*
X51607319Y-16387924D01*
X51830255Y-16295581D01*
X52030892Y-16161519D01*
X52201519Y-15990892D01*
X52335581Y-15790255D01*
X52427924Y-15567319D01*
X52475000Y-15330652D01*
X52475000Y-15136400D01*
X77509586Y-15136400D01*
X77509586Y-16863600D01*
X77516826Y-16937113D01*
X77538269Y-17007800D01*
X77573091Y-17072947D01*
X77619952Y-17130048D01*
X77677053Y-17176909D01*
X77742200Y-17211731D01*
X77812887Y-17233174D01*
X77886400Y-17240414D01*
X79613600Y-17240414D01*
X79687113Y-17233174D01*
X79757800Y-17211731D01*
X79822947Y-17176909D01*
X79880048Y-17130048D01*
X79926909Y-17072947D01*
X79961731Y-17007800D01*
X79983174Y-16937113D01*
X79990414Y-16863600D01*
X79990414Y-15878009D01*
X80051400Y-15878009D01*
X80051400Y-16121991D01*
X80098999Y-16361286D01*
X80192367Y-16586697D01*
X80327917Y-16789561D01*
X80500439Y-16962083D01*
X80703303Y-17097633D01*
X80928714Y-17191001D01*
X81168009Y-17238600D01*
X81411991Y-17238600D01*
X81651286Y-17191001D01*
X81876697Y-17097633D01*
X82079561Y-16962083D01*
X82252083Y-16789561D01*
X82387633Y-16586697D01*
X82481001Y-16361286D01*
X82489962Y-16316232D01*
X82632444Y-16316232D01*
X82717149Y-16543787D01*
X82844620Y-16750445D01*
X83009958Y-16928264D01*
X83206810Y-17070410D01*
X83427611Y-17171421D01*
X83513769Y-17197550D01*
X83705000Y-17138006D01*
X83705000Y-16125000D01*
X83955000Y-16125000D01*
X83955000Y-17138006D01*
X84146231Y-17197550D01*
X84232389Y-17171421D01*
X84453190Y-17070410D01*
X84650042Y-16928264D01*
X84815380Y-16750445D01*
X84942851Y-16543787D01*
X85027556Y-16316232D01*
X84968532Y-16125000D01*
X83955000Y-16125000D01*
X83705000Y-16125000D01*
X82691468Y-16125000D01*
X82632444Y-16316232D01*
X82489962Y-16316232D01*
X82528600Y-16121991D01*
X82528600Y-15878009D01*
X85131400Y-15878009D01*
X85131400Y-16121991D01*
X85178999Y-16361286D01*
X85272367Y-16586697D01*
X85407917Y-16789561D01*
X85580439Y-16962083D01*
X85783303Y-17097633D01*
X86008714Y-17191001D01*
X86248009Y-17238600D01*
X86491991Y-17238600D01*
X86731286Y-17191001D01*
X86956697Y-17097633D01*
X87159561Y-16962083D01*
X87332083Y-16789561D01*
X87467633Y-16586697D01*
X87561001Y-16361286D01*
X87608600Y-16121991D01*
X87608600Y-15878009D01*
X87671400Y-15878009D01*
X87671400Y-16121991D01*
X87718999Y-16361286D01*
X87812367Y-16586697D01*
X87947917Y-16789561D01*
X88120439Y-16962083D01*
X88323303Y-17097633D01*
X88548714Y-17191001D01*
X88788009Y-17238600D01*
X89031991Y-17238600D01*
X89271286Y-17191001D01*
X89496697Y-17097633D01*
X89699561Y-16962083D01*
X89872083Y-16789561D01*
X90007633Y-16586697D01*
X90101001Y-16361286D01*
X90148600Y-16121991D01*
X90148600Y-15878009D01*
X90101001Y-15638714D01*
X90007633Y-15413303D01*
X89872083Y-15210439D01*
X89699561Y-15037917D01*
X89496697Y-14902367D01*
X89271286Y-14808999D01*
X89031991Y-14761400D01*
X88788009Y-14761400D01*
X88548714Y-14808999D01*
X88323303Y-14902367D01*
X88120439Y-15037917D01*
X87947917Y-15210439D01*
X87812367Y-15413303D01*
X87718999Y-15638714D01*
X87671400Y-15878009D01*
X87608600Y-15878009D01*
X87561001Y-15638714D01*
X87467633Y-15413303D01*
X87332083Y-15210439D01*
X87159561Y-15037917D01*
X86956697Y-14902367D01*
X86731286Y-14808999D01*
X86491991Y-14761400D01*
X86248009Y-14761400D01*
X86008714Y-14808999D01*
X85783303Y-14902367D01*
X85580439Y-15037917D01*
X85407917Y-15210439D01*
X85272367Y-15413303D01*
X85178999Y-15638714D01*
X85131400Y-15878009D01*
X82528600Y-15878009D01*
X82489963Y-15683768D01*
X82632444Y-15683768D01*
X82691468Y-15875000D01*
X83705000Y-15875000D01*
X83705000Y-14861994D01*
X83955000Y-14861994D01*
X83955000Y-15875000D01*
X84968532Y-15875000D01*
X85027556Y-15683768D01*
X84942851Y-15456213D01*
X84815380Y-15249555D01*
X84650042Y-15071736D01*
X84453190Y-14929590D01*
X84232389Y-14828579D01*
X84146231Y-14802450D01*
X83955000Y-14861994D01*
X83705000Y-14861994D01*
X83513769Y-14802450D01*
X83427611Y-14828579D01*
X83206810Y-14929590D01*
X83009958Y-15071736D01*
X82844620Y-15249555D01*
X82717149Y-15456213D01*
X82632444Y-15683768D01*
X82489963Y-15683768D01*
X82481001Y-15638714D01*
X82387633Y-15413303D01*
X82252083Y-15210439D01*
X82079561Y-15037917D01*
X81876697Y-14902367D01*
X81651286Y-14808999D01*
X81411991Y-14761400D01*
X81168009Y-14761400D01*
X80928714Y-14808999D01*
X80703303Y-14902367D01*
X80500439Y-15037917D01*
X80327917Y-15210439D01*
X80192367Y-15413303D01*
X80098999Y-15638714D01*
X80051400Y-15878009D01*
X79990414Y-15878009D01*
X79990414Y-15136400D01*
X79983174Y-15062887D01*
X79961731Y-14992200D01*
X79926909Y-14927053D01*
X79880048Y-14869952D01*
X79822947Y-14823091D01*
X79757800Y-14788269D01*
X79687113Y-14766826D01*
X79613600Y-14759586D01*
X77886400Y-14759586D01*
X77812887Y-14766826D01*
X77742200Y-14788269D01*
X77677053Y-14823091D01*
X77619952Y-14869952D01*
X77573091Y-14927053D01*
X77538269Y-14992200D01*
X77516826Y-15062887D01*
X77509586Y-15136400D01*
X52475000Y-15136400D01*
X52475000Y-15089348D01*
X52427924Y-14852681D01*
X52335581Y-14629745D01*
X52201519Y-14429108D01*
X52030892Y-14258481D01*
X51830255Y-14124419D01*
X51607319Y-14032076D01*
X51370652Y-13985000D01*
X51129348Y-13985000D01*
X50892681Y-14032076D01*
X50669745Y-14124419D01*
X50469108Y-14258481D01*
X50298481Y-14429108D01*
X50164419Y-14629745D01*
X50072076Y-14852681D01*
X50025000Y-15089348D01*
X50025000Y-15330652D01*
X50072076Y-15567319D01*
X50105319Y-15647575D01*
X49663819Y-16089076D01*
X49644737Y-16104736D01*
X49582255Y-16180871D01*
X49537981Y-16263702D01*
X49535826Y-16267733D01*
X49507235Y-16361983D01*
X49497581Y-16460000D01*
X49500001Y-16484570D01*
X49500001Y-16807590D01*
X49490892Y-16798481D01*
X49290255Y-16664419D01*
X49067319Y-16572076D01*
X48830652Y-16525000D01*
X48589348Y-16525000D01*
X48352681Y-16572076D01*
X48129745Y-16664419D01*
X47929108Y-16798481D01*
X47800000Y-16927589D01*
X47800000Y-16827105D01*
X48272425Y-16354681D01*
X48352681Y-16387924D01*
X48589348Y-16435000D01*
X48830652Y-16435000D01*
X49067319Y-16387924D01*
X49290255Y-16295581D01*
X49490892Y-16161519D01*
X49661519Y-15990892D01*
X49795581Y-15790255D01*
X49887924Y-15567319D01*
X49935000Y-15330652D01*
X49935000Y-15089348D01*
X49887924Y-14852681D01*
X49795581Y-14629745D01*
X49661519Y-14429108D01*
X49490892Y-14258481D01*
X49290255Y-14124419D01*
X49067319Y-14032076D01*
X48830652Y-13985000D01*
X48589348Y-13985000D01*
X48352681Y-14032076D01*
X48129745Y-14124419D01*
X47929108Y-14258481D01*
X47758481Y-14429108D01*
X47624419Y-14629745D01*
X47532076Y-14852681D01*
X47485000Y-15089348D01*
X47485000Y-15230212D01*
X47401982Y-15105966D01*
X47294034Y-14998018D01*
X47167100Y-14913204D01*
X47026059Y-14854783D01*
X46876331Y-14825000D01*
X46723669Y-14825000D01*
X46573941Y-14854783D01*
X46432900Y-14913204D01*
X46305966Y-14998018D01*
X46198018Y-15105966D01*
X46113204Y-15232900D01*
X46054783Y-15373941D01*
X46025000Y-15523669D01*
X46025000Y-15676331D01*
X46054783Y-15826059D01*
X46113204Y-15967100D01*
X46184611Y-16073969D01*
X46163824Y-16094756D01*
X46144736Y-16110421D01*
X46082254Y-16186556D01*
X46035825Y-16273419D01*
X46022838Y-16316232D01*
X46007235Y-16367668D01*
X45997581Y-16465685D01*
X40625000Y-16465685D01*
X40625000Y-15089348D01*
X40985000Y-15089348D01*
X40985000Y-15330652D01*
X41032076Y-15567319D01*
X41124419Y-15790255D01*
X41258481Y-15990892D01*
X41429108Y-16161519D01*
X41629745Y-16295581D01*
X41852681Y-16387924D01*
X42089348Y-16435000D01*
X42330652Y-16435000D01*
X42567319Y-16387924D01*
X42790255Y-16295581D01*
X42990892Y-16161519D01*
X43161519Y-15990892D01*
X43295581Y-15790255D01*
X43387924Y-15567319D01*
X43435000Y-15330652D01*
X43435000Y-15089348D01*
X43525000Y-15089348D01*
X43525000Y-15330652D01*
X43572076Y-15567319D01*
X43664419Y-15790255D01*
X43798481Y-15990892D01*
X43969108Y-16161519D01*
X44169745Y-16295581D01*
X44392681Y-16387924D01*
X44629348Y-16435000D01*
X44870652Y-16435000D01*
X45107319Y-16387924D01*
X45330255Y-16295581D01*
X45530892Y-16161519D01*
X45701519Y-15990892D01*
X45835581Y-15790255D01*
X45927924Y-15567319D01*
X45975000Y-15330652D01*
X45975000Y-15089348D01*
X45927924Y-14852681D01*
X45835581Y-14629745D01*
X45701519Y-14429108D01*
X45530892Y-14258481D01*
X45330255Y-14124419D01*
X45107319Y-14032076D01*
X44870652Y-13985000D01*
X44629348Y-13985000D01*
X44392681Y-14032076D01*
X44169745Y-14124419D01*
X43969108Y-14258481D01*
X43798481Y-14429108D01*
X43664419Y-14629745D01*
X43572076Y-14852681D01*
X43525000Y-15089348D01*
X43435000Y-15089348D01*
X43387924Y-14852681D01*
X43295581Y-14629745D01*
X43161519Y-14429108D01*
X42990892Y-14258481D01*
X42790255Y-14124419D01*
X42567319Y-14032076D01*
X42330652Y-13985000D01*
X42089348Y-13985000D01*
X41852681Y-14032076D01*
X41629745Y-14124419D01*
X41429108Y-14258481D01*
X41258481Y-14429108D01*
X41124419Y-14629745D01*
X41032076Y-14852681D01*
X40985000Y-15089348D01*
X40625000Y-15089348D01*
X40625000Y-12549348D01*
X40985000Y-12549348D01*
X40985000Y-12790652D01*
X41032076Y-13027319D01*
X41124419Y-13250255D01*
X41258481Y-13450892D01*
X41429108Y-13621519D01*
X41629745Y-13755581D01*
X41852681Y-13847924D01*
X42089348Y-13895000D01*
X42330652Y-13895000D01*
X42567319Y-13847924D01*
X42790255Y-13755581D01*
X42990892Y-13621519D01*
X43161519Y-13450892D01*
X43295581Y-13250255D01*
X43387924Y-13027319D01*
X43435000Y-12790652D01*
X43435000Y-12549348D01*
X43525000Y-12549348D01*
X43525000Y-12790652D01*
X43572076Y-13027319D01*
X43664419Y-13250255D01*
X43798481Y-13450892D01*
X43969108Y-13621519D01*
X44169745Y-13755581D01*
X44392681Y-13847924D01*
X44629348Y-13895000D01*
X44870652Y-13895000D01*
X45107319Y-13847924D01*
X45330255Y-13755581D01*
X45530892Y-13621519D01*
X45701519Y-13450892D01*
X45835581Y-13250255D01*
X45927924Y-13027319D01*
X45975000Y-12790652D01*
X45975000Y-12549348D01*
X47485000Y-12549348D01*
X47485000Y-12790652D01*
X47532076Y-13027319D01*
X47624419Y-13250255D01*
X47758481Y-13450892D01*
X47929108Y-13621519D01*
X48129745Y-13755581D01*
X48352681Y-13847924D01*
X48589348Y-13895000D01*
X48830652Y-13895000D01*
X49067319Y-13847924D01*
X49290255Y-13755581D01*
X49490892Y-13621519D01*
X49661519Y-13450892D01*
X49795581Y-13250255D01*
X49887924Y-13027319D01*
X49935000Y-12790652D01*
X49935000Y-12549348D01*
X50025000Y-12549348D01*
X50025000Y-12790652D01*
X50072076Y-13027319D01*
X50164419Y-13250255D01*
X50298481Y-13450892D01*
X50469108Y-13621519D01*
X50669745Y-13755581D01*
X50892681Y-13847924D01*
X51129348Y-13895000D01*
X51370652Y-13895000D01*
X51607319Y-13847924D01*
X51830255Y-13755581D01*
X52030892Y-13621519D01*
X52201519Y-13450892D01*
X52276945Y-13338009D01*
X77511400Y-13338009D01*
X77511400Y-13581991D01*
X77558999Y-13821286D01*
X77652367Y-14046697D01*
X77787917Y-14249561D01*
X77960439Y-14422083D01*
X78163303Y-14557633D01*
X78388714Y-14651001D01*
X78628009Y-14698600D01*
X78871991Y-14698600D01*
X79111286Y-14651001D01*
X79336697Y-14557633D01*
X79539561Y-14422083D01*
X79712083Y-14249561D01*
X79847633Y-14046697D01*
X79941001Y-13821286D01*
X79988600Y-13581991D01*
X79988600Y-13338009D01*
X80051400Y-13338009D01*
X80051400Y-13581991D01*
X80098999Y-13821286D01*
X80192367Y-14046697D01*
X80327917Y-14249561D01*
X80500439Y-14422083D01*
X80703303Y-14557633D01*
X80928714Y-14651001D01*
X81168009Y-14698600D01*
X81411991Y-14698600D01*
X81651286Y-14651001D01*
X81876697Y-14557633D01*
X82079561Y-14422083D01*
X82252083Y-14249561D01*
X82387633Y-14046697D01*
X82481001Y-13821286D01*
X82528600Y-13581991D01*
X82528600Y-13338009D01*
X82591400Y-13338009D01*
X82591400Y-13581991D01*
X82638999Y-13821286D01*
X82732367Y-14046697D01*
X82867917Y-14249561D01*
X83040439Y-14422083D01*
X83243303Y-14557633D01*
X83468714Y-14651001D01*
X83708009Y-14698600D01*
X83951991Y-14698600D01*
X84191286Y-14651001D01*
X84416697Y-14557633D01*
X84619561Y-14422083D01*
X84792083Y-14249561D01*
X84927633Y-14046697D01*
X85021001Y-13821286D01*
X85068600Y-13581991D01*
X85068600Y-13338009D01*
X85131400Y-13338009D01*
X85131400Y-13581991D01*
X85178999Y-13821286D01*
X85272367Y-14046697D01*
X85407917Y-14249561D01*
X85580439Y-14422083D01*
X85783303Y-14557633D01*
X86008714Y-14651001D01*
X86248009Y-14698600D01*
X86491991Y-14698600D01*
X86731286Y-14651001D01*
X86956697Y-14557633D01*
X87159561Y-14422083D01*
X87332083Y-14249561D01*
X87467633Y-14046697D01*
X87561001Y-13821286D01*
X87608600Y-13581991D01*
X87608600Y-13338009D01*
X87671400Y-13338009D01*
X87671400Y-13581991D01*
X87718999Y-13821286D01*
X87812367Y-14046697D01*
X87947917Y-14249561D01*
X88120439Y-14422083D01*
X88323303Y-14557633D01*
X88548714Y-14651001D01*
X88788009Y-14698600D01*
X89031991Y-14698600D01*
X89271286Y-14651001D01*
X89496697Y-14557633D01*
X89699561Y-14422083D01*
X89872083Y-14249561D01*
X90007633Y-14046697D01*
X90101001Y-13821286D01*
X90148600Y-13581991D01*
X90148600Y-13338009D01*
X90101001Y-13098714D01*
X90007633Y-12873303D01*
X89872083Y-12670439D01*
X89699561Y-12497917D01*
X89496697Y-12362367D01*
X89271286Y-12268999D01*
X89031991Y-12221400D01*
X88788009Y-12221400D01*
X88548714Y-12268999D01*
X88323303Y-12362367D01*
X88120439Y-12497917D01*
X87947917Y-12670439D01*
X87812367Y-12873303D01*
X87718999Y-13098714D01*
X87671400Y-13338009D01*
X87608600Y-13338009D01*
X87561001Y-13098714D01*
X87467633Y-12873303D01*
X87332083Y-12670439D01*
X87159561Y-12497917D01*
X86956697Y-12362367D01*
X86731286Y-12268999D01*
X86491991Y-12221400D01*
X86248009Y-12221400D01*
X86008714Y-12268999D01*
X85783303Y-12362367D01*
X85580439Y-12497917D01*
X85407917Y-12670439D01*
X85272367Y-12873303D01*
X85178999Y-13098714D01*
X85131400Y-13338009D01*
X85068600Y-13338009D01*
X85021001Y-13098714D01*
X84927633Y-12873303D01*
X84792083Y-12670439D01*
X84619561Y-12497917D01*
X84416697Y-12362367D01*
X84191286Y-12268999D01*
X83951991Y-12221400D01*
X83708009Y-12221400D01*
X83468714Y-12268999D01*
X83243303Y-12362367D01*
X83040439Y-12497917D01*
X82867917Y-12670439D01*
X82732367Y-12873303D01*
X82638999Y-13098714D01*
X82591400Y-13338009D01*
X82528600Y-13338009D01*
X82481001Y-13098714D01*
X82387633Y-12873303D01*
X82252083Y-12670439D01*
X82079561Y-12497917D01*
X81876697Y-12362367D01*
X81651286Y-12268999D01*
X81411991Y-12221400D01*
X81168009Y-12221400D01*
X80928714Y-12268999D01*
X80703303Y-12362367D01*
X80500439Y-12497917D01*
X80327917Y-12670439D01*
X80192367Y-12873303D01*
X80098999Y-13098714D01*
X80051400Y-13338009D01*
X79988600Y-13338009D01*
X79941001Y-13098714D01*
X79847633Y-12873303D01*
X79712083Y-12670439D01*
X79539561Y-12497917D01*
X79336697Y-12362367D01*
X79111286Y-12268999D01*
X78871991Y-12221400D01*
X78628009Y-12221400D01*
X78388714Y-12268999D01*
X78163303Y-12362367D01*
X77960439Y-12497917D01*
X77787917Y-12670439D01*
X77652367Y-12873303D01*
X77558999Y-13098714D01*
X77511400Y-13338009D01*
X52276945Y-13338009D01*
X52335581Y-13250255D01*
X52427924Y-13027319D01*
X52475000Y-12790652D01*
X52475000Y-12549348D01*
X52427924Y-12312681D01*
X52335581Y-12089745D01*
X52201519Y-11889108D01*
X52030892Y-11718481D01*
X51830255Y-11584419D01*
X51607319Y-11492076D01*
X51370652Y-11445000D01*
X51129348Y-11445000D01*
X50892681Y-11492076D01*
X50669745Y-11584419D01*
X50469108Y-11718481D01*
X50298481Y-11889108D01*
X50164419Y-12089745D01*
X50072076Y-12312681D01*
X50025000Y-12549348D01*
X49935000Y-12549348D01*
X49887924Y-12312681D01*
X49795581Y-12089745D01*
X49661519Y-11889108D01*
X49490892Y-11718481D01*
X49290255Y-11584419D01*
X49067319Y-11492076D01*
X48830652Y-11445000D01*
X48589348Y-11445000D01*
X48352681Y-11492076D01*
X48129745Y-11584419D01*
X47929108Y-11718481D01*
X47758481Y-11889108D01*
X47624419Y-12089745D01*
X47532076Y-12312681D01*
X47485000Y-12549348D01*
X45975000Y-12549348D01*
X45927924Y-12312681D01*
X45835581Y-12089745D01*
X45701519Y-11889108D01*
X45530892Y-11718481D01*
X45330255Y-11584419D01*
X45107319Y-11492076D01*
X44870652Y-11445000D01*
X44629348Y-11445000D01*
X44392681Y-11492076D01*
X44169745Y-11584419D01*
X43969108Y-11718481D01*
X43798481Y-11889108D01*
X43664419Y-12089745D01*
X43572076Y-12312681D01*
X43525000Y-12549348D01*
X43435000Y-12549348D01*
X43387924Y-12312681D01*
X43295581Y-12089745D01*
X43161519Y-11889108D01*
X42990892Y-11718481D01*
X42790255Y-11584419D01*
X42567319Y-11492076D01*
X42330652Y-11445000D01*
X42089348Y-11445000D01*
X41852681Y-11492076D01*
X41629745Y-11584419D01*
X41429108Y-11718481D01*
X41258481Y-11889108D01*
X41124419Y-12089745D01*
X41032076Y-12312681D01*
X40985000Y-12549348D01*
X40625000Y-12549348D01*
X40625000Y-8823669D01*
X57025000Y-8823669D01*
X57025000Y-8976331D01*
X57054783Y-9126059D01*
X57113204Y-9267100D01*
X57198018Y-9394034D01*
X57305966Y-9501982D01*
X57432900Y-9586796D01*
X57573941Y-9645217D01*
X57723669Y-9675000D01*
X57876331Y-9675000D01*
X57961349Y-9658089D01*
X57954783Y-9673941D01*
X57925000Y-9823669D01*
X57925000Y-9976331D01*
X57954783Y-10126059D01*
X58013204Y-10267100D01*
X58098018Y-10394034D01*
X58205966Y-10501982D01*
X58332900Y-10586796D01*
X58473941Y-10645217D01*
X58623669Y-10675000D01*
X58776331Y-10675000D01*
X58926059Y-10645217D01*
X59067100Y-10586796D01*
X59194034Y-10501982D01*
X59296016Y-10400000D01*
X59875440Y-10400000D01*
X59900000Y-10402419D01*
X59924560Y-10400000D01*
X59998017Y-10392765D01*
X60092267Y-10364175D01*
X60179129Y-10317746D01*
X60255264Y-10255264D01*
X60270929Y-10236176D01*
X61232106Y-9275000D01*
X61376331Y-9275000D01*
X61526059Y-9245217D01*
X61667100Y-9186796D01*
X61794034Y-9101982D01*
X61901982Y-8994034D01*
X61986796Y-8867100D01*
X62045217Y-8726059D01*
X62075000Y-8576331D01*
X62075000Y-8423669D01*
X62045217Y-8273941D01*
X61986796Y-8132900D01*
X61901982Y-8005966D01*
X61796016Y-7900000D01*
X61901982Y-7794034D01*
X61986796Y-7667100D01*
X62045217Y-7526059D01*
X62075000Y-7376331D01*
X62075000Y-7223669D01*
X62045217Y-7073941D01*
X61986796Y-6932900D01*
X61901982Y-6805966D01*
X61794034Y-6698018D01*
X61667100Y-6613204D01*
X61526059Y-6554783D01*
X61376331Y-6525000D01*
X61223669Y-6525000D01*
X61073941Y-6554783D01*
X60932900Y-6613204D01*
X60805966Y-6698018D01*
X60698018Y-6805966D01*
X60613204Y-6932900D01*
X60554783Y-7073941D01*
X60525000Y-7223669D01*
X60525000Y-7367894D01*
X59492895Y-8400000D01*
X58396016Y-8400000D01*
X58294034Y-8298018D01*
X58167100Y-8213204D01*
X58026059Y-8154783D01*
X57876331Y-8125000D01*
X57723669Y-8125000D01*
X57573941Y-8154783D01*
X57432900Y-8213204D01*
X57305966Y-8298018D01*
X57198018Y-8405966D01*
X57113204Y-8532900D01*
X57054783Y-8673941D01*
X57025000Y-8823669D01*
X40625000Y-8823669D01*
X40625000Y-5136400D01*
X44509586Y-5136400D01*
X44509586Y-6863600D01*
X44516826Y-6937113D01*
X44538269Y-7007800D01*
X44573091Y-7072947D01*
X44619952Y-7130048D01*
X44677053Y-7176909D01*
X44742200Y-7211731D01*
X44812887Y-7233174D01*
X44886400Y-7240414D01*
X46613600Y-7240414D01*
X46687113Y-7233174D01*
X46757800Y-7211731D01*
X46822947Y-7176909D01*
X46880048Y-7130048D01*
X46926909Y-7072947D01*
X46961731Y-7007800D01*
X46983174Y-6937113D01*
X46990414Y-6863600D01*
X46990414Y-5878009D01*
X47051400Y-5878009D01*
X47051400Y-6121991D01*
X47098999Y-6361286D01*
X47192367Y-6586697D01*
X47327917Y-6789561D01*
X47500439Y-6962083D01*
X47703303Y-7097633D01*
X47928714Y-7191001D01*
X48168009Y-7238600D01*
X48411991Y-7238600D01*
X48651286Y-7191001D01*
X48876697Y-7097633D01*
X49079561Y-6962083D01*
X49252083Y-6789561D01*
X49387633Y-6586697D01*
X49481001Y-6361286D01*
X49528600Y-6121991D01*
X49528600Y-5878009D01*
X49591400Y-5878009D01*
X49591400Y-6121991D01*
X49638999Y-6361286D01*
X49732367Y-6586697D01*
X49867917Y-6789561D01*
X50040439Y-6962083D01*
X50243303Y-7097633D01*
X50468714Y-7191001D01*
X50708009Y-7238600D01*
X50951991Y-7238600D01*
X51191286Y-7191001D01*
X51416697Y-7097633D01*
X51619561Y-6962083D01*
X51792083Y-6789561D01*
X51927633Y-6586697D01*
X52021001Y-6361286D01*
X52068600Y-6121991D01*
X52068600Y-5878009D01*
X52131400Y-5878009D01*
X52131400Y-6121991D01*
X52178999Y-6361286D01*
X52272367Y-6586697D01*
X52407917Y-6789561D01*
X52580439Y-6962083D01*
X52783303Y-7097633D01*
X53008714Y-7191001D01*
X53248009Y-7238600D01*
X53491991Y-7238600D01*
X53731286Y-7191001D01*
X53956697Y-7097633D01*
X54159561Y-6962083D01*
X54332083Y-6789561D01*
X54467633Y-6586697D01*
X54561001Y-6361286D01*
X54608600Y-6121991D01*
X54608600Y-5878009D01*
X54671400Y-5878009D01*
X54671400Y-6121991D01*
X54718999Y-6361286D01*
X54812367Y-6586697D01*
X54947917Y-6789561D01*
X55120439Y-6962083D01*
X55323303Y-7097633D01*
X55548714Y-7191001D01*
X55788009Y-7238600D01*
X56031991Y-7238600D01*
X56271286Y-7191001D01*
X56496697Y-7097633D01*
X56699561Y-6962083D01*
X56872083Y-6789561D01*
X57007633Y-6586697D01*
X57101001Y-6361286D01*
X57148600Y-6121991D01*
X57148600Y-5878009D01*
X57101001Y-5638714D01*
X57007633Y-5413303D01*
X56872083Y-5210439D01*
X56798044Y-5136400D01*
X77759586Y-5136400D01*
X77759586Y-6863600D01*
X77766826Y-6937113D01*
X77788269Y-7007800D01*
X77823091Y-7072947D01*
X77869952Y-7130048D01*
X77927053Y-7176909D01*
X77992200Y-7211731D01*
X78062887Y-7233174D01*
X78136400Y-7240414D01*
X79863600Y-7240414D01*
X79937113Y-7233174D01*
X80007800Y-7211731D01*
X80072947Y-7176909D01*
X80130048Y-7130048D01*
X80176909Y-7072947D01*
X80211731Y-7007800D01*
X80233174Y-6937113D01*
X80240414Y-6863600D01*
X80240414Y-5878009D01*
X80301400Y-5878009D01*
X80301400Y-6121991D01*
X80348999Y-6361286D01*
X80442367Y-6586697D01*
X80577917Y-6789561D01*
X80750439Y-6962083D01*
X80953303Y-7097633D01*
X81178714Y-7191001D01*
X81418009Y-7238600D01*
X81661991Y-7238600D01*
X81901286Y-7191001D01*
X82126697Y-7097633D01*
X82329561Y-6962083D01*
X82502083Y-6789561D01*
X82637633Y-6586697D01*
X82731001Y-6361286D01*
X82739962Y-6316232D01*
X82882444Y-6316232D01*
X82967149Y-6543787D01*
X83094620Y-6750445D01*
X83259958Y-6928264D01*
X83456810Y-7070410D01*
X83677611Y-7171421D01*
X83763769Y-7197550D01*
X83955000Y-7138006D01*
X83955000Y-6125000D01*
X84205000Y-6125000D01*
X84205000Y-7138006D01*
X84396231Y-7197550D01*
X84482389Y-7171421D01*
X84703190Y-7070410D01*
X84900042Y-6928264D01*
X85065380Y-6750445D01*
X85192851Y-6543787D01*
X85277556Y-6316232D01*
X85218532Y-6125000D01*
X84205000Y-6125000D01*
X83955000Y-6125000D01*
X82941468Y-6125000D01*
X82882444Y-6316232D01*
X82739962Y-6316232D01*
X82778600Y-6121991D01*
X82778600Y-5878009D01*
X85381400Y-5878009D01*
X85381400Y-6121991D01*
X85428999Y-6361286D01*
X85522367Y-6586697D01*
X85657917Y-6789561D01*
X85830439Y-6962083D01*
X86033303Y-7097633D01*
X86258714Y-7191001D01*
X86498009Y-7238600D01*
X86741991Y-7238600D01*
X86981286Y-7191001D01*
X87206697Y-7097633D01*
X87409561Y-6962083D01*
X87582083Y-6789561D01*
X87717633Y-6586697D01*
X87811001Y-6361286D01*
X87858600Y-6121991D01*
X87858600Y-5878009D01*
X87921400Y-5878009D01*
X87921400Y-6121991D01*
X87968999Y-6361286D01*
X88062367Y-6586697D01*
X88197917Y-6789561D01*
X88370439Y-6962083D01*
X88573303Y-7097633D01*
X88798714Y-7191001D01*
X89038009Y-7238600D01*
X89281991Y-7238600D01*
X89521286Y-7191001D01*
X89746697Y-7097633D01*
X89949561Y-6962083D01*
X90122083Y-6789561D01*
X90257633Y-6586697D01*
X90351001Y-6361286D01*
X90398600Y-6121991D01*
X90398600Y-5878009D01*
X90351001Y-5638714D01*
X90257633Y-5413303D01*
X90122083Y-5210439D01*
X89949561Y-5037917D01*
X89746697Y-4902367D01*
X89521286Y-4808999D01*
X89281991Y-4761400D01*
X89038009Y-4761400D01*
X88798714Y-4808999D01*
X88573303Y-4902367D01*
X88370439Y-5037917D01*
X88197917Y-5210439D01*
X88062367Y-5413303D01*
X87968999Y-5638714D01*
X87921400Y-5878009D01*
X87858600Y-5878009D01*
X87811001Y-5638714D01*
X87717633Y-5413303D01*
X87582083Y-5210439D01*
X87409561Y-5037917D01*
X87206697Y-4902367D01*
X86981286Y-4808999D01*
X86741991Y-4761400D01*
X86498009Y-4761400D01*
X86258714Y-4808999D01*
X86033303Y-4902367D01*
X85830439Y-5037917D01*
X85657917Y-5210439D01*
X85522367Y-5413303D01*
X85428999Y-5638714D01*
X85381400Y-5878009D01*
X82778600Y-5878009D01*
X82739963Y-5683768D01*
X82882444Y-5683768D01*
X82941468Y-5875000D01*
X83955000Y-5875000D01*
X83955000Y-4861994D01*
X84205000Y-4861994D01*
X84205000Y-5875000D01*
X85218532Y-5875000D01*
X85277556Y-5683768D01*
X85192851Y-5456213D01*
X85065380Y-5249555D01*
X84900042Y-5071736D01*
X84703190Y-4929590D01*
X84482389Y-4828579D01*
X84396231Y-4802450D01*
X84205000Y-4861994D01*
X83955000Y-4861994D01*
X83763769Y-4802450D01*
X83677611Y-4828579D01*
X83456810Y-4929590D01*
X83259958Y-5071736D01*
X83094620Y-5249555D01*
X82967149Y-5456213D01*
X82882444Y-5683768D01*
X82739963Y-5683768D01*
X82731001Y-5638714D01*
X82637633Y-5413303D01*
X82502083Y-5210439D01*
X82329561Y-5037917D01*
X82126697Y-4902367D01*
X81901286Y-4808999D01*
X81661991Y-4761400D01*
X81418009Y-4761400D01*
X81178714Y-4808999D01*
X80953303Y-4902367D01*
X80750439Y-5037917D01*
X80577917Y-5210439D01*
X80442367Y-5413303D01*
X80348999Y-5638714D01*
X80301400Y-5878009D01*
X80240414Y-5878009D01*
X80240414Y-5136400D01*
X80233174Y-5062887D01*
X80211731Y-4992200D01*
X80176909Y-4927053D01*
X80130048Y-4869952D01*
X80072947Y-4823091D01*
X80007800Y-4788269D01*
X79937113Y-4766826D01*
X79863600Y-4759586D01*
X78136400Y-4759586D01*
X78062887Y-4766826D01*
X77992200Y-4788269D01*
X77927053Y-4823091D01*
X77869952Y-4869952D01*
X77823091Y-4927053D01*
X77788269Y-4992200D01*
X77766826Y-5062887D01*
X77759586Y-5136400D01*
X56798044Y-5136400D01*
X56699561Y-5037917D01*
X56496697Y-4902367D01*
X56271286Y-4808999D01*
X56031991Y-4761400D01*
X55788009Y-4761400D01*
X55548714Y-4808999D01*
X55323303Y-4902367D01*
X55120439Y-5037917D01*
X54947917Y-5210439D01*
X54812367Y-5413303D01*
X54718999Y-5638714D01*
X54671400Y-5878009D01*
X54608600Y-5878009D01*
X54561001Y-5638714D01*
X54467633Y-5413303D01*
X54332083Y-5210439D01*
X54159561Y-5037917D01*
X53956697Y-4902367D01*
X53731286Y-4808999D01*
X53491991Y-4761400D01*
X53248009Y-4761400D01*
X53008714Y-4808999D01*
X52783303Y-4902367D01*
X52580439Y-5037917D01*
X52407917Y-5210439D01*
X52272367Y-5413303D01*
X52178999Y-5638714D01*
X52131400Y-5878009D01*
X52068600Y-5878009D01*
X52021001Y-5638714D01*
X51927633Y-5413303D01*
X51792083Y-5210439D01*
X51619561Y-5037917D01*
X51416697Y-4902367D01*
X51191286Y-4808999D01*
X50951991Y-4761400D01*
X50708009Y-4761400D01*
X50468714Y-4808999D01*
X50243303Y-4902367D01*
X50040439Y-5037917D01*
X49867917Y-5210439D01*
X49732367Y-5413303D01*
X49638999Y-5638714D01*
X49591400Y-5878009D01*
X49528600Y-5878009D01*
X49481001Y-5638714D01*
X49387633Y-5413303D01*
X49252083Y-5210439D01*
X49079561Y-5037917D01*
X48876697Y-4902367D01*
X48651286Y-4808999D01*
X48411991Y-4761400D01*
X48168009Y-4761400D01*
X47928714Y-4808999D01*
X47703303Y-4902367D01*
X47500439Y-5037917D01*
X47327917Y-5210439D01*
X47192367Y-5413303D01*
X47098999Y-5638714D01*
X47051400Y-5878009D01*
X46990414Y-5878009D01*
X46990414Y-5136400D01*
X46983174Y-5062887D01*
X46961731Y-4992200D01*
X46926909Y-4927053D01*
X46880048Y-4869952D01*
X46822947Y-4823091D01*
X46757800Y-4788269D01*
X46687113Y-4766826D01*
X46613600Y-4759586D01*
X44886400Y-4759586D01*
X44812887Y-4766826D01*
X44742200Y-4788269D01*
X44677053Y-4823091D01*
X44619952Y-4869952D01*
X44573091Y-4927053D01*
X44538269Y-4992200D01*
X44516826Y-5062887D01*
X44509586Y-5136400D01*
X40625000Y-5136400D01*
X40625000Y-3776232D01*
X44552444Y-3776232D01*
X44637149Y-4003787D01*
X44764620Y-4210445D01*
X44929958Y-4388264D01*
X45126810Y-4530410D01*
X45347611Y-4631421D01*
X45433769Y-4657550D01*
X45625000Y-4598006D01*
X45625000Y-3585000D01*
X45875000Y-3585000D01*
X45875000Y-4598006D01*
X46066231Y-4657550D01*
X46152389Y-4631421D01*
X46373190Y-4530410D01*
X46570042Y-4388264D01*
X46735380Y-4210445D01*
X46862851Y-4003787D01*
X46947556Y-3776232D01*
X47092444Y-3776232D01*
X47177149Y-4003787D01*
X47304620Y-4210445D01*
X47469958Y-4388264D01*
X47666810Y-4530410D01*
X47887611Y-4631421D01*
X47973769Y-4657550D01*
X48165000Y-4598006D01*
X48165000Y-3585000D01*
X48415000Y-3585000D01*
X48415000Y-4598006D01*
X48606231Y-4657550D01*
X48692389Y-4631421D01*
X48913190Y-4530410D01*
X49110042Y-4388264D01*
X49275380Y-4210445D01*
X49402851Y-4003787D01*
X49487556Y-3776232D01*
X49632444Y-3776232D01*
X49717149Y-4003787D01*
X49844620Y-4210445D01*
X50009958Y-4388264D01*
X50206810Y-4530410D01*
X50427611Y-4631421D01*
X50513769Y-4657550D01*
X50705000Y-4598006D01*
X50705000Y-3585000D01*
X50955000Y-3585000D01*
X50955000Y-4598006D01*
X51146231Y-4657550D01*
X51232389Y-4631421D01*
X51453190Y-4530410D01*
X51650042Y-4388264D01*
X51815380Y-4210445D01*
X51942851Y-4003787D01*
X52027556Y-3776232D01*
X52172444Y-3776232D01*
X52257149Y-4003787D01*
X52384620Y-4210445D01*
X52549958Y-4388264D01*
X52746810Y-4530410D01*
X52967611Y-4631421D01*
X53053769Y-4657550D01*
X53245000Y-4598006D01*
X53245000Y-3585000D01*
X53495000Y-3585000D01*
X53495000Y-4598006D01*
X53686231Y-4657550D01*
X53772389Y-4631421D01*
X53993190Y-4530410D01*
X54190042Y-4388264D01*
X54355380Y-4210445D01*
X54482851Y-4003787D01*
X54567556Y-3776232D01*
X54712444Y-3776232D01*
X54797149Y-4003787D01*
X54924620Y-4210445D01*
X55089958Y-4388264D01*
X55286810Y-4530410D01*
X55507611Y-4631421D01*
X55593769Y-4657550D01*
X55785000Y-4598006D01*
X55785000Y-3585000D01*
X56035000Y-3585000D01*
X56035000Y-4598006D01*
X56226231Y-4657550D01*
X56312389Y-4631421D01*
X56533190Y-4530410D01*
X56730042Y-4388264D01*
X56895380Y-4210445D01*
X57022851Y-4003787D01*
X57107556Y-3776232D01*
X57048532Y-3585000D01*
X56035000Y-3585000D01*
X55785000Y-3585000D01*
X54771468Y-3585000D01*
X54712444Y-3776232D01*
X54567556Y-3776232D01*
X54508532Y-3585000D01*
X53495000Y-3585000D01*
X53245000Y-3585000D01*
X52231468Y-3585000D01*
X52172444Y-3776232D01*
X52027556Y-3776232D01*
X51968532Y-3585000D01*
X50955000Y-3585000D01*
X50705000Y-3585000D01*
X49691468Y-3585000D01*
X49632444Y-3776232D01*
X49487556Y-3776232D01*
X49428532Y-3585000D01*
X48415000Y-3585000D01*
X48165000Y-3585000D01*
X47151468Y-3585000D01*
X47092444Y-3776232D01*
X46947556Y-3776232D01*
X46888532Y-3585000D01*
X45875000Y-3585000D01*
X45625000Y-3585000D01*
X44611468Y-3585000D01*
X44552444Y-3776232D01*
X40625000Y-3776232D01*
X40625000Y-3338009D01*
X77761400Y-3338009D01*
X77761400Y-3581991D01*
X77808999Y-3821286D01*
X77902367Y-4046697D01*
X78037917Y-4249561D01*
X78210439Y-4422083D01*
X78413303Y-4557633D01*
X78638714Y-4651001D01*
X78878009Y-4698600D01*
X79121991Y-4698600D01*
X79361286Y-4651001D01*
X79586697Y-4557633D01*
X79789561Y-4422083D01*
X79962083Y-4249561D01*
X80097633Y-4046697D01*
X80191001Y-3821286D01*
X80238600Y-3581991D01*
X80238600Y-3338009D01*
X80301400Y-3338009D01*
X80301400Y-3581991D01*
X80348999Y-3821286D01*
X80442367Y-4046697D01*
X80577917Y-4249561D01*
X80750439Y-4422083D01*
X80953303Y-4557633D01*
X81178714Y-4651001D01*
X81418009Y-4698600D01*
X81661991Y-4698600D01*
X81901286Y-4651001D01*
X82126697Y-4557633D01*
X82329561Y-4422083D01*
X82502083Y-4249561D01*
X82637633Y-4046697D01*
X82731001Y-3821286D01*
X82778600Y-3581991D01*
X82778600Y-3338009D01*
X82841400Y-3338009D01*
X82841400Y-3581991D01*
X82888999Y-3821286D01*
X82982367Y-4046697D01*
X83117917Y-4249561D01*
X83290439Y-4422083D01*
X83493303Y-4557633D01*
X83718714Y-4651001D01*
X83958009Y-4698600D01*
X84201991Y-4698600D01*
X84441286Y-4651001D01*
X84666697Y-4557633D01*
X84869561Y-4422083D01*
X85042083Y-4249561D01*
X85177633Y-4046697D01*
X85271001Y-3821286D01*
X85318600Y-3581991D01*
X85318600Y-3338009D01*
X85381400Y-3338009D01*
X85381400Y-3581991D01*
X85428999Y-3821286D01*
X85522367Y-4046697D01*
X85657917Y-4249561D01*
X85830439Y-4422083D01*
X86033303Y-4557633D01*
X86258714Y-4651001D01*
X86498009Y-4698600D01*
X86741991Y-4698600D01*
X86981286Y-4651001D01*
X87206697Y-4557633D01*
X87409561Y-4422083D01*
X87582083Y-4249561D01*
X87717633Y-4046697D01*
X87811001Y-3821286D01*
X87858600Y-3581991D01*
X87858600Y-3338009D01*
X87921400Y-3338009D01*
X87921400Y-3581991D01*
X87968999Y-3821286D01*
X88062367Y-4046697D01*
X88197917Y-4249561D01*
X88370439Y-4422083D01*
X88573303Y-4557633D01*
X88798714Y-4651001D01*
X89038009Y-4698600D01*
X89281991Y-4698600D01*
X89521286Y-4651001D01*
X89746697Y-4557633D01*
X89949561Y-4422083D01*
X90122083Y-4249561D01*
X90257633Y-4046697D01*
X90351001Y-3821286D01*
X90398600Y-3581991D01*
X90398600Y-3338009D01*
X90351001Y-3098714D01*
X90257633Y-2873303D01*
X90122083Y-2670439D01*
X89949561Y-2497917D01*
X89746697Y-2362367D01*
X89521286Y-2268999D01*
X89281991Y-2221400D01*
X89038009Y-2221400D01*
X88798714Y-2268999D01*
X88573303Y-2362367D01*
X88370439Y-2497917D01*
X88197917Y-2670439D01*
X88062367Y-2873303D01*
X87968999Y-3098714D01*
X87921400Y-3338009D01*
X87858600Y-3338009D01*
X87811001Y-3098714D01*
X87717633Y-2873303D01*
X87582083Y-2670439D01*
X87409561Y-2497917D01*
X87206697Y-2362367D01*
X86981286Y-2268999D01*
X86741991Y-2221400D01*
X86498009Y-2221400D01*
X86258714Y-2268999D01*
X86033303Y-2362367D01*
X85830439Y-2497917D01*
X85657917Y-2670439D01*
X85522367Y-2873303D01*
X85428999Y-3098714D01*
X85381400Y-3338009D01*
X85318600Y-3338009D01*
X85271001Y-3098714D01*
X85177633Y-2873303D01*
X85042083Y-2670439D01*
X84869561Y-2497917D01*
X84666697Y-2362367D01*
X84441286Y-2268999D01*
X84201991Y-2221400D01*
X83958009Y-2221400D01*
X83718714Y-2268999D01*
X83493303Y-2362367D01*
X83290439Y-2497917D01*
X83117917Y-2670439D01*
X82982367Y-2873303D01*
X82888999Y-3098714D01*
X82841400Y-3338009D01*
X82778600Y-3338009D01*
X82731001Y-3098714D01*
X82637633Y-2873303D01*
X82502083Y-2670439D01*
X82329561Y-2497917D01*
X82126697Y-2362367D01*
X81901286Y-2268999D01*
X81661991Y-2221400D01*
X81418009Y-2221400D01*
X81178714Y-2268999D01*
X80953303Y-2362367D01*
X80750439Y-2497917D01*
X80577917Y-2670439D01*
X80442367Y-2873303D01*
X80348999Y-3098714D01*
X80301400Y-3338009D01*
X80238600Y-3338009D01*
X80191001Y-3098714D01*
X80097633Y-2873303D01*
X79962083Y-2670439D01*
X79789561Y-2497917D01*
X79586697Y-2362367D01*
X79361286Y-2268999D01*
X79121991Y-2221400D01*
X78878009Y-2221400D01*
X78638714Y-2268999D01*
X78413303Y-2362367D01*
X78210439Y-2497917D01*
X78037917Y-2670439D01*
X77902367Y-2873303D01*
X77808999Y-3098714D01*
X77761400Y-3338009D01*
X40625000Y-3338009D01*
X40625000Y-3143768D01*
X44552444Y-3143768D01*
X44611468Y-3335000D01*
X45625000Y-3335000D01*
X45625000Y-2321994D01*
X45875000Y-2321994D01*
X45875000Y-3335000D01*
X46888532Y-3335000D01*
X46947556Y-3143768D01*
X47092444Y-3143768D01*
X47151468Y-3335000D01*
X48165000Y-3335000D01*
X48165000Y-2321994D01*
X48415000Y-2321994D01*
X48415000Y-3335000D01*
X49428532Y-3335000D01*
X49487556Y-3143768D01*
X49632444Y-3143768D01*
X49691468Y-3335000D01*
X50705000Y-3335000D01*
X50705000Y-2321994D01*
X50955000Y-2321994D01*
X50955000Y-3335000D01*
X51968532Y-3335000D01*
X52027556Y-3143768D01*
X52172444Y-3143768D01*
X52231468Y-3335000D01*
X53245000Y-3335000D01*
X53245000Y-2321994D01*
X53495000Y-2321994D01*
X53495000Y-3335000D01*
X54508532Y-3335000D01*
X54567556Y-3143768D01*
X54712444Y-3143768D01*
X54771468Y-3335000D01*
X55785000Y-3335000D01*
X55785000Y-2321994D01*
X56035000Y-2321994D01*
X56035000Y-3335000D01*
X57048532Y-3335000D01*
X57107556Y-3143768D01*
X57022851Y-2916213D01*
X56895380Y-2709555D01*
X56730042Y-2531736D01*
X56533190Y-2389590D01*
X56312389Y-2288579D01*
X56226231Y-2262450D01*
X56035000Y-2321994D01*
X55785000Y-2321994D01*
X55593769Y-2262450D01*
X55507611Y-2288579D01*
X55286810Y-2389590D01*
X55089958Y-2531736D01*
X54924620Y-2709555D01*
X54797149Y-2916213D01*
X54712444Y-3143768D01*
X54567556Y-3143768D01*
X54482851Y-2916213D01*
X54355380Y-2709555D01*
X54190042Y-2531736D01*
X53993190Y-2389590D01*
X53772389Y-2288579D01*
X53686231Y-2262450D01*
X53495000Y-2321994D01*
X53245000Y-2321994D01*
X53053769Y-2262450D01*
X52967611Y-2288579D01*
X52746810Y-2389590D01*
X52549958Y-2531736D01*
X52384620Y-2709555D01*
X52257149Y-2916213D01*
X52172444Y-3143768D01*
X52027556Y-3143768D01*
X51942851Y-2916213D01*
X51815380Y-2709555D01*
X51650042Y-2531736D01*
X51453190Y-2389590D01*
X51232389Y-2288579D01*
X51146231Y-2262450D01*
X50955000Y-2321994D01*
X50705000Y-2321994D01*
X50513769Y-2262450D01*
X50427611Y-2288579D01*
X50206810Y-2389590D01*
X50009958Y-2531736D01*
X49844620Y-2709555D01*
X49717149Y-2916213D01*
X49632444Y-3143768D01*
X49487556Y-3143768D01*
X49402851Y-2916213D01*
X49275380Y-2709555D01*
X49110042Y-2531736D01*
X48913190Y-2389590D01*
X48692389Y-2288579D01*
X48606231Y-2262450D01*
X48415000Y-2321994D01*
X48165000Y-2321994D01*
X47973769Y-2262450D01*
X47887611Y-2288579D01*
X47666810Y-2389590D01*
X47469958Y-2531736D01*
X47304620Y-2709555D01*
X47177149Y-2916213D01*
X47092444Y-3143768D01*
X46947556Y-3143768D01*
X46862851Y-2916213D01*
X46735380Y-2709555D01*
X46570042Y-2531736D01*
X46373190Y-2389590D01*
X46152389Y-2288579D01*
X46066231Y-2262450D01*
X45875000Y-2321994D01*
X45625000Y-2321994D01*
X45433769Y-2262450D01*
X45347611Y-2288579D01*
X45126810Y-2389590D01*
X44929958Y-2531736D01*
X44764620Y-2709555D01*
X44637149Y-2916213D01*
X44552444Y-3143768D01*
X40625000Y-3143768D01*
X40625000Y-400000D01*
X94375000Y-400000D01*
X94375000Y-39875000D01*
G37*
G04 #@! TD.AperFunction*
M02*
