G04 #@! TF.GenerationSoftware,KiCad,Pcbnew,5.1.8-5.1.8*
G04 #@! TF.CreationDate,2021-01-07T16:38:59+01:00*
G04 #@! TF.ProjectId,gpsdo-connector,67707364-6f2d-4636-9f6e-6e6563746f72,rev?*
G04 #@! TF.SameCoordinates,PX7ed6b40PY5742de0*
G04 #@! TF.FileFunction,Paste,Top*
G04 #@! TF.FilePolarity,Positive*
%FSLAX46Y46*%
G04 Gerber Fmt 4.6, Leading zero omitted, Abs format (unit mm)*
G04 Created by KiCad (PCBNEW 5.1.8-5.1.8) date 2021-01-07 16:38:59*
%MOMM*%
%LPD*%
G01*
G04 APERTURE LIST*
%ADD10R,2.500000X1.800000*%
%ADD11R,2.300000X2.500000*%
%ADD12R,2.400000X1.600000*%
%ADD13R,1.600000X2.400000*%
%ADD14R,0.300000X1.200000*%
%ADD15R,1.600000X1.600000*%
%ADD16R,1.100000X1.600000*%
%ADD17R,0.800000X0.900000*%
%ADD18R,0.930000X0.723000*%
%ADD19R,0.610000X1.910000*%
%ADD20R,4.700000X1.200000*%
G04 APERTURE END LIST*
G36*
G01*
X22850000Y-20256250D02*
X22850000Y-19343750D01*
G75*
G02*
X23093750Y-19100000I243750J0D01*
G01*
X23581250Y-19100000D01*
G75*
G02*
X23825000Y-19343750I0J-243750D01*
G01*
X23825000Y-20256250D01*
G75*
G02*
X23581250Y-20500000I-243750J0D01*
G01*
X23093750Y-20500000D01*
G75*
G02*
X22850000Y-20256250I0J243750D01*
G01*
G37*
G36*
G01*
X20975000Y-20256250D02*
X20975000Y-19343750D01*
G75*
G02*
X21218750Y-19100000I243750J0D01*
G01*
X21706250Y-19100000D01*
G75*
G02*
X21950000Y-19343750I0J-243750D01*
G01*
X21950000Y-20256250D01*
G75*
G02*
X21706250Y-20500000I-243750J0D01*
G01*
X21218750Y-20500000D01*
G75*
G02*
X20975000Y-20256250I0J243750D01*
G01*
G37*
D10*
X8250000Y-17750000D03*
X12250000Y-17750000D03*
G36*
G01*
X16325000Y-14625000D02*
X15075000Y-14625000D01*
G75*
G02*
X14825000Y-14375000I0J250000D01*
G01*
X14825000Y-13625000D01*
G75*
G02*
X15075000Y-13375000I250000J0D01*
G01*
X16325000Y-13375000D01*
G75*
G02*
X16575000Y-13625000I0J-250000D01*
G01*
X16575000Y-14375000D01*
G75*
G02*
X16325000Y-14625000I-250000J0D01*
G01*
G37*
G36*
G01*
X16325000Y-17425000D02*
X15075000Y-17425000D01*
G75*
G02*
X14825000Y-17175000I0J250000D01*
G01*
X14825000Y-16425000D01*
G75*
G02*
X15075000Y-16175000I250000J0D01*
G01*
X16325000Y-16175000D01*
G75*
G02*
X16575000Y-16425000I0J-250000D01*
G01*
X16575000Y-17175000D01*
G75*
G02*
X16325000Y-17425000I-250000J0D01*
G01*
G37*
G36*
G01*
X18750000Y-8300000D02*
X17650000Y-8300000D01*
G75*
G02*
X17400000Y-8050000I0J250000D01*
G01*
X17400000Y-5550000D01*
G75*
G02*
X17650000Y-5300000I250000J0D01*
G01*
X18750000Y-5300000D01*
G75*
G02*
X19000000Y-5550000I0J-250000D01*
G01*
X19000000Y-8050000D01*
G75*
G02*
X18750000Y-8300000I-250000J0D01*
G01*
G37*
G36*
G01*
X18750000Y-12700000D02*
X17650000Y-12700000D01*
G75*
G02*
X17400000Y-12450000I0J250000D01*
G01*
X17400000Y-9950000D01*
G75*
G02*
X17650000Y-9700000I250000J0D01*
G01*
X18750000Y-9700000D01*
G75*
G02*
X19000000Y-9950000I0J-250000D01*
G01*
X19000000Y-12450000D01*
G75*
G02*
X18750000Y-12700000I-250000J0D01*
G01*
G37*
D11*
X24250000Y-22600000D03*
X24250000Y-26900000D03*
G36*
G01*
X66956250Y-37550000D02*
X66043750Y-37550000D01*
G75*
G02*
X65800000Y-37306250I0J243750D01*
G01*
X65800000Y-36818750D01*
G75*
G02*
X66043750Y-36575000I243750J0D01*
G01*
X66956250Y-36575000D01*
G75*
G02*
X67200000Y-36818750I0J-243750D01*
G01*
X67200000Y-37306250D01*
G75*
G02*
X66956250Y-37550000I-243750J0D01*
G01*
G37*
G36*
G01*
X66956250Y-39425000D02*
X66043750Y-39425000D01*
G75*
G02*
X65800000Y-39181250I0J243750D01*
G01*
X65800000Y-38693750D01*
G75*
G02*
X66043750Y-38450000I243750J0D01*
G01*
X66956250Y-38450000D01*
G75*
G02*
X67200000Y-38693750I0J-243750D01*
G01*
X67200000Y-39181250D01*
G75*
G02*
X66956250Y-39425000I-243750J0D01*
G01*
G37*
D12*
X61350000Y-34950000D03*
X32650000Y-34950000D03*
D13*
X60950000Y-34550000D03*
X33050000Y-34550000D03*
D14*
X59250000Y-31850000D03*
X58750000Y-31850000D03*
X58250000Y-31850000D03*
X57750000Y-31850000D03*
X57250000Y-31850000D03*
X56750000Y-31850000D03*
X56250000Y-31850000D03*
X55750000Y-31850000D03*
X55250000Y-31850000D03*
X54750000Y-31850000D03*
X54250000Y-31850000D03*
X53750000Y-31850000D03*
X53250000Y-31850000D03*
X52750000Y-31850000D03*
X52250000Y-31850000D03*
X51750000Y-31850000D03*
X51250000Y-31850000D03*
X50750000Y-31850000D03*
X50250000Y-31850000D03*
X49750000Y-31850000D03*
X49250000Y-31850000D03*
X48750000Y-31850000D03*
X48250000Y-31850000D03*
X47750000Y-31850000D03*
X47250000Y-31850000D03*
X46750000Y-31850000D03*
X46250000Y-31850000D03*
X45750000Y-31850000D03*
X45250000Y-31850000D03*
X44750000Y-31850000D03*
X44250000Y-31850000D03*
X43750000Y-31850000D03*
X43250000Y-31850000D03*
X42750000Y-31850000D03*
X42250000Y-31850000D03*
X41750000Y-31850000D03*
X41250000Y-31850000D03*
X40750000Y-31850000D03*
X40250000Y-31850000D03*
X39750000Y-31850000D03*
X39250000Y-31850000D03*
X38750000Y-31850000D03*
X38250000Y-31850000D03*
X37750000Y-31850000D03*
X37250000Y-31850000D03*
X36750000Y-31850000D03*
X36250000Y-31850000D03*
X35750000Y-31850000D03*
X35250000Y-31850000D03*
X34750000Y-31850000D03*
G36*
G01*
X69050000Y-32756250D02*
X69050000Y-31843750D01*
G75*
G02*
X69293750Y-31600000I243750J0D01*
G01*
X69781250Y-31600000D01*
G75*
G02*
X70025000Y-31843750I0J-243750D01*
G01*
X70025000Y-32756250D01*
G75*
G02*
X69781250Y-33000000I-243750J0D01*
G01*
X69293750Y-33000000D01*
G75*
G02*
X69050000Y-32756250I0J243750D01*
G01*
G37*
G36*
G01*
X67175000Y-32756250D02*
X67175000Y-31843750D01*
G75*
G02*
X67418750Y-31600000I243750J0D01*
G01*
X67906250Y-31600000D01*
G75*
G02*
X68150000Y-31843750I0J-243750D01*
G01*
X68150000Y-32756250D01*
G75*
G02*
X67906250Y-33000000I-243750J0D01*
G01*
X67418750Y-33000000D01*
G75*
G02*
X67175000Y-32756250I0J243750D01*
G01*
G37*
D15*
X7900000Y-28900000D03*
D16*
X6750000Y-31800000D03*
X9050000Y-31800000D03*
D17*
X69850000Y-37150000D03*
X70800000Y-39150000D03*
X68900000Y-39150000D03*
G36*
G01*
X70180000Y-30145000D02*
X70180000Y-30445000D01*
G75*
G02*
X70030000Y-30595000I-150000J0D01*
G01*
X68380000Y-30595000D01*
G75*
G02*
X68230000Y-30445000I0J150000D01*
G01*
X68230000Y-30145000D01*
G75*
G02*
X68380000Y-29995000I150000J0D01*
G01*
X70030000Y-29995000D01*
G75*
G02*
X70180000Y-30145000I0J-150000D01*
G01*
G37*
G36*
G01*
X70180000Y-28875000D02*
X70180000Y-29175000D01*
G75*
G02*
X70030000Y-29325000I-150000J0D01*
G01*
X68380000Y-29325000D01*
G75*
G02*
X68230000Y-29175000I0J150000D01*
G01*
X68230000Y-28875000D01*
G75*
G02*
X68380000Y-28725000I150000J0D01*
G01*
X70030000Y-28725000D01*
G75*
G02*
X70180000Y-28875000I0J-150000D01*
G01*
G37*
G36*
G01*
X70180000Y-27605000D02*
X70180000Y-27905000D01*
G75*
G02*
X70030000Y-28055000I-150000J0D01*
G01*
X68380000Y-28055000D01*
G75*
G02*
X68230000Y-27905000I0J150000D01*
G01*
X68230000Y-27605000D01*
G75*
G02*
X68380000Y-27455000I150000J0D01*
G01*
X70030000Y-27455000D01*
G75*
G02*
X70180000Y-27605000I0J-150000D01*
G01*
G37*
G36*
G01*
X70180000Y-26335000D02*
X70180000Y-26635000D01*
G75*
G02*
X70030000Y-26785000I-150000J0D01*
G01*
X68380000Y-26785000D01*
G75*
G02*
X68230000Y-26635000I0J150000D01*
G01*
X68230000Y-26335000D01*
G75*
G02*
X68380000Y-26185000I150000J0D01*
G01*
X70030000Y-26185000D01*
G75*
G02*
X70180000Y-26335000I0J-150000D01*
G01*
G37*
G36*
G01*
X70180000Y-25065000D02*
X70180000Y-25365000D01*
G75*
G02*
X70030000Y-25515000I-150000J0D01*
G01*
X68380000Y-25515000D01*
G75*
G02*
X68230000Y-25365000I0J150000D01*
G01*
X68230000Y-25065000D01*
G75*
G02*
X68380000Y-24915000I150000J0D01*
G01*
X70030000Y-24915000D01*
G75*
G02*
X70180000Y-25065000I0J-150000D01*
G01*
G37*
G36*
G01*
X70180000Y-23795000D02*
X70180000Y-24095000D01*
G75*
G02*
X70030000Y-24245000I-150000J0D01*
G01*
X68380000Y-24245000D01*
G75*
G02*
X68230000Y-24095000I0J150000D01*
G01*
X68230000Y-23795000D01*
G75*
G02*
X68380000Y-23645000I150000J0D01*
G01*
X70030000Y-23645000D01*
G75*
G02*
X70180000Y-23795000I0J-150000D01*
G01*
G37*
G36*
G01*
X70180000Y-22525000D02*
X70180000Y-22825000D01*
G75*
G02*
X70030000Y-22975000I-150000J0D01*
G01*
X68380000Y-22975000D01*
G75*
G02*
X68230000Y-22825000I0J150000D01*
G01*
X68230000Y-22525000D01*
G75*
G02*
X68380000Y-22375000I150000J0D01*
G01*
X70030000Y-22375000D01*
G75*
G02*
X70180000Y-22525000I0J-150000D01*
G01*
G37*
G36*
G01*
X70180000Y-21255000D02*
X70180000Y-21555000D01*
G75*
G02*
X70030000Y-21705000I-150000J0D01*
G01*
X68380000Y-21705000D01*
G75*
G02*
X68230000Y-21555000I0J150000D01*
G01*
X68230000Y-21255000D01*
G75*
G02*
X68380000Y-21105000I150000J0D01*
G01*
X70030000Y-21105000D01*
G75*
G02*
X70180000Y-21255000I0J-150000D01*
G01*
G37*
G36*
G01*
X75130000Y-21255000D02*
X75130000Y-21555000D01*
G75*
G02*
X74980000Y-21705000I-150000J0D01*
G01*
X73330000Y-21705000D01*
G75*
G02*
X73180000Y-21555000I0J150000D01*
G01*
X73180000Y-21255000D01*
G75*
G02*
X73330000Y-21105000I150000J0D01*
G01*
X74980000Y-21105000D01*
G75*
G02*
X75130000Y-21255000I0J-150000D01*
G01*
G37*
G36*
G01*
X75130000Y-22525000D02*
X75130000Y-22825000D01*
G75*
G02*
X74980000Y-22975000I-150000J0D01*
G01*
X73330000Y-22975000D01*
G75*
G02*
X73180000Y-22825000I0J150000D01*
G01*
X73180000Y-22525000D01*
G75*
G02*
X73330000Y-22375000I150000J0D01*
G01*
X74980000Y-22375000D01*
G75*
G02*
X75130000Y-22525000I0J-150000D01*
G01*
G37*
G36*
G01*
X75130000Y-23795000D02*
X75130000Y-24095000D01*
G75*
G02*
X74980000Y-24245000I-150000J0D01*
G01*
X73330000Y-24245000D01*
G75*
G02*
X73180000Y-24095000I0J150000D01*
G01*
X73180000Y-23795000D01*
G75*
G02*
X73330000Y-23645000I150000J0D01*
G01*
X74980000Y-23645000D01*
G75*
G02*
X75130000Y-23795000I0J-150000D01*
G01*
G37*
G36*
G01*
X75130000Y-25065000D02*
X75130000Y-25365000D01*
G75*
G02*
X74980000Y-25515000I-150000J0D01*
G01*
X73330000Y-25515000D01*
G75*
G02*
X73180000Y-25365000I0J150000D01*
G01*
X73180000Y-25065000D01*
G75*
G02*
X73330000Y-24915000I150000J0D01*
G01*
X74980000Y-24915000D01*
G75*
G02*
X75130000Y-25065000I0J-150000D01*
G01*
G37*
G36*
G01*
X75130000Y-26335000D02*
X75130000Y-26635000D01*
G75*
G02*
X74980000Y-26785000I-150000J0D01*
G01*
X73330000Y-26785000D01*
G75*
G02*
X73180000Y-26635000I0J150000D01*
G01*
X73180000Y-26335000D01*
G75*
G02*
X73330000Y-26185000I150000J0D01*
G01*
X74980000Y-26185000D01*
G75*
G02*
X75130000Y-26335000I0J-150000D01*
G01*
G37*
G36*
G01*
X75130000Y-27605000D02*
X75130000Y-27905000D01*
G75*
G02*
X74980000Y-28055000I-150000J0D01*
G01*
X73330000Y-28055000D01*
G75*
G02*
X73180000Y-27905000I0J150000D01*
G01*
X73180000Y-27605000D01*
G75*
G02*
X73330000Y-27455000I150000J0D01*
G01*
X74980000Y-27455000D01*
G75*
G02*
X75130000Y-27605000I0J-150000D01*
G01*
G37*
G36*
G01*
X75130000Y-28875000D02*
X75130000Y-29175000D01*
G75*
G02*
X74980000Y-29325000I-150000J0D01*
G01*
X73330000Y-29325000D01*
G75*
G02*
X73180000Y-29175000I0J150000D01*
G01*
X73180000Y-28875000D01*
G75*
G02*
X73330000Y-28725000I150000J0D01*
G01*
X74980000Y-28725000D01*
G75*
G02*
X75130000Y-28875000I0J-150000D01*
G01*
G37*
G36*
G01*
X75130000Y-30145000D02*
X75130000Y-30445000D01*
G75*
G02*
X74980000Y-30595000I-150000J0D01*
G01*
X73330000Y-30595000D01*
G75*
G02*
X73180000Y-30445000I0J150000D01*
G01*
X73180000Y-30145000D01*
G75*
G02*
X73330000Y-29995000I150000J0D01*
G01*
X74980000Y-29995000D01*
G75*
G02*
X75130000Y-30145000I0J-150000D01*
G01*
G37*
G36*
G01*
X78000000Y-24106250D02*
X78000000Y-23193750D01*
G75*
G02*
X78243750Y-22950000I243750J0D01*
G01*
X78731250Y-22950000D01*
G75*
G02*
X78975000Y-23193750I0J-243750D01*
G01*
X78975000Y-24106250D01*
G75*
G02*
X78731250Y-24350000I-243750J0D01*
G01*
X78243750Y-24350000D01*
G75*
G02*
X78000000Y-24106250I0J243750D01*
G01*
G37*
G36*
G01*
X76125000Y-24106250D02*
X76125000Y-23193750D01*
G75*
G02*
X76368750Y-22950000I243750J0D01*
G01*
X76856250Y-22950000D01*
G75*
G02*
X77100000Y-23193750I0J-243750D01*
G01*
X77100000Y-24106250D01*
G75*
G02*
X76856250Y-24350000I-243750J0D01*
G01*
X76368750Y-24350000D01*
G75*
G02*
X76125000Y-24106250I0J243750D01*
G01*
G37*
G36*
G01*
X78000000Y-28506250D02*
X78000000Y-27593750D01*
G75*
G02*
X78243750Y-27350000I243750J0D01*
G01*
X78731250Y-27350000D01*
G75*
G02*
X78975000Y-27593750I0J-243750D01*
G01*
X78975000Y-28506250D01*
G75*
G02*
X78731250Y-28750000I-243750J0D01*
G01*
X78243750Y-28750000D01*
G75*
G02*
X78000000Y-28506250I0J243750D01*
G01*
G37*
G36*
G01*
X76125000Y-28506250D02*
X76125000Y-27593750D01*
G75*
G02*
X76368750Y-27350000I243750J0D01*
G01*
X76856250Y-27350000D01*
G75*
G02*
X77100000Y-27593750I0J-243750D01*
G01*
X77100000Y-28506250D01*
G75*
G02*
X76856250Y-28750000I-243750J0D01*
G01*
X76368750Y-28750000D01*
G75*
G02*
X76125000Y-28506250I0J243750D01*
G01*
G37*
G36*
G01*
X77100000Y-25293750D02*
X77100000Y-26206250D01*
G75*
G02*
X76856250Y-26450000I-243750J0D01*
G01*
X76368750Y-26450000D01*
G75*
G02*
X76125000Y-26206250I0J243750D01*
G01*
X76125000Y-25293750D01*
G75*
G02*
X76368750Y-25050000I243750J0D01*
G01*
X76856250Y-25050000D01*
G75*
G02*
X77100000Y-25293750I0J-243750D01*
G01*
G37*
G36*
G01*
X78975000Y-25293750D02*
X78975000Y-26206250D01*
G75*
G02*
X78731250Y-26450000I-243750J0D01*
G01*
X78243750Y-26450000D01*
G75*
G02*
X78000000Y-26206250I0J243750D01*
G01*
X78000000Y-25293750D01*
G75*
G02*
X78243750Y-25050000I243750J0D01*
G01*
X78731250Y-25050000D01*
G75*
G02*
X78975000Y-25293750I0J-243750D01*
G01*
G37*
G36*
G01*
X78000000Y-30556250D02*
X78000000Y-29643750D01*
G75*
G02*
X78243750Y-29400000I243750J0D01*
G01*
X78731250Y-29400000D01*
G75*
G02*
X78975000Y-29643750I0J-243750D01*
G01*
X78975000Y-30556250D01*
G75*
G02*
X78731250Y-30800000I-243750J0D01*
G01*
X78243750Y-30800000D01*
G75*
G02*
X78000000Y-30556250I0J243750D01*
G01*
G37*
G36*
G01*
X76125000Y-30556250D02*
X76125000Y-29643750D01*
G75*
G02*
X76368750Y-29400000I243750J0D01*
G01*
X76856250Y-29400000D01*
G75*
G02*
X77100000Y-29643750I0J-243750D01*
G01*
X77100000Y-30556250D01*
G75*
G02*
X76856250Y-30800000I-243750J0D01*
G01*
X76368750Y-30800000D01*
G75*
G02*
X76125000Y-30556250I0J243750D01*
G01*
G37*
G36*
G01*
X72343750Y-38550001D02*
X73256250Y-38550001D01*
G75*
G02*
X73500000Y-38793751I0J-243750D01*
G01*
X73500000Y-39281251D01*
G75*
G02*
X73256250Y-39525001I-243750J0D01*
G01*
X72343750Y-39525001D01*
G75*
G02*
X72100000Y-39281251I0J243750D01*
G01*
X72100000Y-38793751D01*
G75*
G02*
X72343750Y-38550001I243750J0D01*
G01*
G37*
G36*
G01*
X72343750Y-36675001D02*
X73256250Y-36675001D01*
G75*
G02*
X73500000Y-36918751I0J-243750D01*
G01*
X73500000Y-37406251D01*
G75*
G02*
X73256250Y-37650001I-243750J0D01*
G01*
X72343750Y-37650001D01*
G75*
G02*
X72100000Y-37406251I0J243750D01*
G01*
X72100000Y-36918751D01*
G75*
G02*
X72343750Y-36675001I243750J0D01*
G01*
G37*
G36*
G01*
X12543750Y-29050000D02*
X13456250Y-29050000D01*
G75*
G02*
X13700000Y-29293750I0J-243750D01*
G01*
X13700000Y-29781250D01*
G75*
G02*
X13456250Y-30025000I-243750J0D01*
G01*
X12543750Y-30025000D01*
G75*
G02*
X12300000Y-29781250I0J243750D01*
G01*
X12300000Y-29293750D01*
G75*
G02*
X12543750Y-29050000I243750J0D01*
G01*
G37*
G36*
G01*
X12543750Y-27175000D02*
X13456250Y-27175000D01*
G75*
G02*
X13700000Y-27418750I0J-243750D01*
G01*
X13700000Y-27906250D01*
G75*
G02*
X13456250Y-28150000I-243750J0D01*
G01*
X12543750Y-28150000D01*
G75*
G02*
X12300000Y-27906250I0J243750D01*
G01*
X12300000Y-27418750D01*
G75*
G02*
X12543750Y-27175000I243750J0D01*
G01*
G37*
G36*
G01*
X14543750Y-29050000D02*
X15456250Y-29050000D01*
G75*
G02*
X15700000Y-29293750I0J-243750D01*
G01*
X15700000Y-29781250D01*
G75*
G02*
X15456250Y-30025000I-243750J0D01*
G01*
X14543750Y-30025000D01*
G75*
G02*
X14300000Y-29781250I0J243750D01*
G01*
X14300000Y-29293750D01*
G75*
G02*
X14543750Y-29050000I243750J0D01*
G01*
G37*
G36*
G01*
X14543750Y-27175000D02*
X15456250Y-27175000D01*
G75*
G02*
X15700000Y-27418750I0J-243750D01*
G01*
X15700000Y-27906250D01*
G75*
G02*
X15456250Y-28150000I-243750J0D01*
G01*
X14543750Y-28150000D01*
G75*
G02*
X14300000Y-27906250I0J243750D01*
G01*
X14300000Y-27418750D01*
G75*
G02*
X14543750Y-27175000I243750J0D01*
G01*
G37*
D18*
X18375000Y-21997500D03*
X16825000Y-21997500D03*
X18375000Y-23202500D03*
X16825000Y-23202500D03*
D19*
X19505000Y-25380000D03*
X18235000Y-25380000D03*
X16965000Y-25380000D03*
X15695000Y-25380000D03*
X15695000Y-19820000D03*
X16965000Y-19820000D03*
X18235000Y-19820000D03*
X19505000Y-19820000D03*
G36*
G01*
X16450000Y-31800001D02*
X16450000Y-30899999D01*
G75*
G02*
X16699999Y-30650000I249999J0D01*
G01*
X17350001Y-30650000D01*
G75*
G02*
X17600000Y-30899999I0J-249999D01*
G01*
X17600000Y-31800001D01*
G75*
G02*
X17350001Y-32050000I-249999J0D01*
G01*
X16699999Y-32050000D01*
G75*
G02*
X16450000Y-31800001I0J249999D01*
G01*
G37*
G36*
G01*
X14400000Y-31800001D02*
X14400000Y-30899999D01*
G75*
G02*
X14649999Y-30650000I249999J0D01*
G01*
X15300001Y-30650000D01*
G75*
G02*
X15550000Y-30899999I0J-249999D01*
G01*
X15550000Y-31800001D01*
G75*
G02*
X15300001Y-32050000I-249999J0D01*
G01*
X14649999Y-32050000D01*
G75*
G02*
X14400000Y-31800001I0J249999D01*
G01*
G37*
G36*
G01*
X13049999Y-22700000D02*
X13950001Y-22700000D01*
G75*
G02*
X14200000Y-22949999I0J-249999D01*
G01*
X14200000Y-23600001D01*
G75*
G02*
X13950001Y-23850000I-249999J0D01*
G01*
X13049999Y-23850000D01*
G75*
G02*
X12800000Y-23600001I0J249999D01*
G01*
X12800000Y-22949999D01*
G75*
G02*
X13049999Y-22700000I249999J0D01*
G01*
G37*
G36*
G01*
X13049999Y-20650000D02*
X13950001Y-20650000D01*
G75*
G02*
X14200000Y-20899999I0J-249999D01*
G01*
X14200000Y-21550001D01*
G75*
G02*
X13950001Y-21800000I-249999J0D01*
G01*
X13049999Y-21800000D01*
G75*
G02*
X12800000Y-21550001I0J249999D01*
G01*
X12800000Y-20899999D01*
G75*
G02*
X13049999Y-20650000I249999J0D01*
G01*
G37*
D20*
X24250000Y-33655000D03*
X24250000Y-30345000D03*
G36*
G01*
X16543750Y-29050000D02*
X17456250Y-29050000D01*
G75*
G02*
X17700000Y-29293750I0J-243750D01*
G01*
X17700000Y-29781250D01*
G75*
G02*
X17456250Y-30025000I-243750J0D01*
G01*
X16543750Y-30025000D01*
G75*
G02*
X16300000Y-29781250I0J243750D01*
G01*
X16300000Y-29293750D01*
G75*
G02*
X16543750Y-29050000I243750J0D01*
G01*
G37*
G36*
G01*
X16543750Y-27175000D02*
X17456250Y-27175000D01*
G75*
G02*
X17700000Y-27418750I0J-243750D01*
G01*
X17700000Y-27906250D01*
G75*
G02*
X17456250Y-28150000I-243750J0D01*
G01*
X16543750Y-28150000D01*
G75*
G02*
X16300000Y-27906250I0J243750D01*
G01*
X16300000Y-27418750D01*
G75*
G02*
X16543750Y-27175000I243750J0D01*
G01*
G37*
G36*
G01*
X38250000Y-24956250D02*
X38250000Y-24043750D01*
G75*
G02*
X38493750Y-23800000I243750J0D01*
G01*
X38981250Y-23800000D01*
G75*
G02*
X39225000Y-24043750I0J-243750D01*
G01*
X39225000Y-24956250D01*
G75*
G02*
X38981250Y-25200000I-243750J0D01*
G01*
X38493750Y-25200000D01*
G75*
G02*
X38250000Y-24956250I0J243750D01*
G01*
G37*
G36*
G01*
X36375000Y-24956250D02*
X36375000Y-24043750D01*
G75*
G02*
X36618750Y-23800000I243750J0D01*
G01*
X37106250Y-23800000D01*
G75*
G02*
X37350000Y-24043750I0J-243750D01*
G01*
X37350000Y-24956250D01*
G75*
G02*
X37106250Y-25200000I-243750J0D01*
G01*
X36618750Y-25200000D01*
G75*
G02*
X36375000Y-24956250I0J243750D01*
G01*
G37*
G36*
G01*
X32800000Y-20150000D02*
X32800000Y-21250000D01*
G75*
G02*
X32550000Y-21500000I-250000J0D01*
G01*
X30050000Y-21500000D01*
G75*
G02*
X29800000Y-21250000I0J250000D01*
G01*
X29800000Y-20150000D01*
G75*
G02*
X30050000Y-19900000I250000J0D01*
G01*
X32550000Y-19900000D01*
G75*
G02*
X32800000Y-20150000I0J-250000D01*
G01*
G37*
G36*
G01*
X37200000Y-20150000D02*
X37200000Y-21250000D01*
G75*
G02*
X36950000Y-21500000I-250000J0D01*
G01*
X34450000Y-21500000D01*
G75*
G02*
X34200000Y-21250000I0J250000D01*
G01*
X34200000Y-20150000D01*
G75*
G02*
X34450000Y-19900000I250000J0D01*
G01*
X36950000Y-19900000D01*
G75*
G02*
X37200000Y-20150000I0J-250000D01*
G01*
G37*
G36*
G01*
X32800000Y-13950000D02*
X32800000Y-15050000D01*
G75*
G02*
X32550000Y-15300000I-250000J0D01*
G01*
X30050000Y-15300000D01*
G75*
G02*
X29800000Y-15050000I0J250000D01*
G01*
X29800000Y-13950000D01*
G75*
G02*
X30050000Y-13700000I250000J0D01*
G01*
X32550000Y-13700000D01*
G75*
G02*
X32800000Y-13950000I0J-250000D01*
G01*
G37*
G36*
G01*
X37200000Y-13950000D02*
X37200000Y-15050000D01*
G75*
G02*
X36950000Y-15300000I-250000J0D01*
G01*
X34450000Y-15300000D01*
G75*
G02*
X34200000Y-15050000I0J250000D01*
G01*
X34200000Y-13950000D01*
G75*
G02*
X34450000Y-13700000I250000J0D01*
G01*
X36950000Y-13700000D01*
G75*
G02*
X37200000Y-13950000I0J-250000D01*
G01*
G37*
G36*
G01*
X19475000Y-15125000D02*
X19475000Y-13875000D01*
G75*
G02*
X19725000Y-13625000I250000J0D01*
G01*
X20475000Y-13625000D01*
G75*
G02*
X20725000Y-13875000I0J-250000D01*
G01*
X20725000Y-15125000D01*
G75*
G02*
X20475000Y-15375000I-250000J0D01*
G01*
X19725000Y-15375000D01*
G75*
G02*
X19475000Y-15125000I0J250000D01*
G01*
G37*
G36*
G01*
X22275000Y-15125000D02*
X22275000Y-13875000D01*
G75*
G02*
X22525000Y-13625000I250000J0D01*
G01*
X23275000Y-13625000D01*
G75*
G02*
X23525000Y-13875000I0J-250000D01*
G01*
X23525000Y-15125000D01*
G75*
G02*
X23275000Y-15375000I-250000J0D01*
G01*
X22525000Y-15375000D01*
G75*
G02*
X22275000Y-15125000I0J250000D01*
G01*
G37*
G36*
G01*
X19475000Y-17625000D02*
X19475000Y-16375000D01*
G75*
G02*
X19725000Y-16125000I250000J0D01*
G01*
X20475000Y-16125000D01*
G75*
G02*
X20725000Y-16375000I0J-250000D01*
G01*
X20725000Y-17625000D01*
G75*
G02*
X20475000Y-17875000I-250000J0D01*
G01*
X19725000Y-17875000D01*
G75*
G02*
X19475000Y-17625000I0J250000D01*
G01*
G37*
G36*
G01*
X22275000Y-17625000D02*
X22275000Y-16375000D01*
G75*
G02*
X22525000Y-16125000I250000J0D01*
G01*
X23275000Y-16125000D01*
G75*
G02*
X23525000Y-16375000I0J-250000D01*
G01*
X23525000Y-17625000D01*
G75*
G02*
X23275000Y-17875000I-250000J0D01*
G01*
X22525000Y-17875000D01*
G75*
G02*
X22275000Y-17625000I0J250000D01*
G01*
G37*
M02*
